AnekTamil-SemiCondensedExtraBold.ufo
<glyph name="exclam" format="2">
  <advance width="488.0"/>
  <unicode hex="0021"/>
  <outline>
    <contour>
      <point x="380.0" y="430.5" type="line"/>
      <point x="421.0" y="1278.0" type="line"/>
      <point x="67.0" y="1278.0" type="line"/>
      <point x="108.5" y="430.5" type="line"/>
    </contour>
    <contour>
      <point x="247.0" y="-29.0" type="curve" smooth="yes"/>
      <point x="362.5" y="-29.0"/>
      <point x="420.0" y="38.5"/>
      <point x="420.0" y="154.0" type="curve" smooth="yes"/>
      <point x="420.0" y="168.0" type="line" smooth="yes"/>
      <point x="420.0" y="282.0"/>
      <point x="362.5" y="351.0"/>
      <point x="247.0" y="351.0" type="curve" smooth="yes"/>
      <point x="129.0" y="351.0"/>
      <point x="74.5" y="282.0"/>
      <point x="74.5" y="168.0" type="curve" smooth="yes"/>
      <point x="74.5" y="154.0" type="line" smooth="yes"/>
      <point x="74.5" y="38.5"/>
      <point x="129.0" y="-29.0"/>
    </contour>
  </outline>
</glyph>
<glyph name="numbersign" format="2">
  <advance width="1054.0"/>
  <unicode hex="0023"/>
  <outline>
    <contour>
      <point x="118.5" y="0.0" type="line"/>
      <point x="374.0" y="0.0" type="line"/>
      <point x="528.5" y="1278.0" type="line"/>
      <point x="273.0" y="1278.0" type="line"/>
    </contour>
    <contour>
      <point x="37.0" y="267.0" type="line"/>
      <point x="965.5" y="267.0" type="line"/>
      <point x="965.5" y="505.0" type="line"/>
      <point x="37.0" y="505.0" type="line"/>
    </contour>
    <contour>
      <point x="530.0" y="0.0" type="line"/>
      <point x="787.0" y="0.0" type="line"/>
      <point x="937.5" y="1278.0" type="line"/>
      <point x="681.5" y="1278.0" type="line"/>
    </contour>
    <contour>
      <point x="90.5" y="771.5" type="line"/>
      <point x="1017.0" y="771.5" type="line"/>
      <point x="1017.0" y="1009.0" type="line"/>
      <point x="90.5" y="1009.0" type="line"/>
    </contour>
  </outline>
</glyph>
<glyph name="dollar" format="2">
  <advance width="906.0"/>
  <unicode hex="0024"/>
  <anchor x="442.5" y="0.0" name="bottom"/>
  <anchor x="442.5" y="1278.0" name="top"/>
  <outline>
    <contour>
      <point x="584.5" y="1128.5" type="line"/>
      <point x="584.5" y="1454.0" type="line"/>
      <point x="303.0" y="1454.0" type="line"/>
      <point x="303.0" y="1128.5" type="line"/>
    </contour>
    <contour>
      <point x="584.5" y="-182.5" type="line"/>
      <point x="584.5" y="172.5" type="line"/>
      <point x="303.0" y="172.5" type="line"/>
      <point x="303.0" y="-182.5" type="line"/>
    </contour>
    <component base="S"/>
  </outline>
</glyph>
<glyph name="percent" format="2">
  <advance width="1398.0"/>
  <unicode hex="0025"/>
  <outline>
    <contour>
      <point x="245.0" y="0.0" type="line"/>
      <point x="483.5" y="0.0" type="line"/>
      <point x="1152.0" y="1278.0" type="line"/>
      <point x="917.5" y="1278.0" type="line"/>
    </contour>
    <contour>
      <point x="1072.0" y="-29.5" type="curve" smooth="yes"/>
      <point x="1254.0" y="-29.5"/>
      <point x="1349.5" y="72.0"/>
      <point x="1349.5" y="256.5" type="curve" smooth="yes"/>
      <point x="1349.5" y="365.0" type="line" smooth="yes"/>
      <point x="1349.5" y="550.0"/>
      <point x="1254.0" y="650.5"/>
      <point x="1072.0" y="650.5" type="curve" smooth="yes"/>
      <point x="889.5" y="650.5"/>
      <point x="794.5" y="550.0"/>
      <point x="794.5" y="365.0" type="curve" smooth="yes"/>
      <point x="794.5" y="256.5" type="line" smooth="yes"/>
      <point x="794.5" y="71.0"/>
      <point x="889.5" y="-29.5"/>
    </contour>
    <contour>
      <point x="1072.0" y="145.0" type="curve" smooth="yes"/>
      <point x="1025.5" y="145.0"/>
      <point x="1005.5" y="177.0"/>
      <point x="1005.5" y="244.0" type="curve" smooth="yes"/>
      <point x="1005.5" y="376.5" type="line" smooth="yes"/>
      <point x="1005.5" y="444.0"/>
      <point x="1025.5" y="476.0"/>
      <point x="1072.0" y="476.0" type="curve" smooth="yes"/>
      <point x="1118.5" y="476.0"/>
      <point x="1138.5" y="444.0"/>
      <point x="1138.5" y="376.5" type="curve" smooth="yes"/>
      <point x="1138.5" y="244.0" type="line" smooth="yes"/>
      <point x="1138.5" y="177.0"/>
      <point x="1118.5" y="145.0"/>
    </contour>
    <contour>
      <point x="326.0" y="625.0" type="curve" smooth="yes"/>
      <point x="508.0" y="625.0"/>
      <point x="603.5" y="726.5"/>
      <point x="603.5" y="910.5" type="curve" smooth="yes"/>
      <point x="603.5" y="1019.5" type="line" smooth="yes"/>
      <point x="603.5" y="1204.0"/>
      <point x="508.0" y="1304.5"/>
      <point x="326.0" y="1304.5" type="curve" smooth="yes"/>
      <point x="143.5" y="1304.5"/>
      <point x="48.5" y="1204.0"/>
      <point x="48.5" y="1019.5" type="curve" smooth="yes"/>
      <point x="48.5" y="910.5" type="line" smooth="yes"/>
      <point x="48.5" y="725.5"/>
      <point x="143.5" y="625.0"/>
    </contour>
    <contour>
      <point x="326.0" y="799.5" type="curve" smooth="yes"/>
      <point x="279.5" y="799.5"/>
      <point x="260.0" y="831.0"/>
      <point x="260.0" y="898.5" type="curve" smooth="yes"/>
      <point x="260.0" y="1031.0" type="line" smooth="yes"/>
      <point x="260.0" y="1098.5"/>
      <point x="279.5" y="1130.0"/>
      <point x="326.0" y="1130.0" type="curve" smooth="yes"/>
      <point x="372.5" y="1130.0"/>
      <point x="392.5" y="1098.5"/>
      <point x="392.5" y="1031.0" type="curve" smooth="yes"/>
      <point x="392.5" y="898.5" type="line" smooth="yes"/>
      <point x="392.5" y="831.0"/>
      <point x="372.5" y="799.5"/>
    </contour>
  </outline>
</glyph>
<glyph name="ampersand" format="2">
  <advance width="1215.5"/>
  <unicode hex="0026"/>
  <outline>
    <contour>
      <point x="899.0" y="1.0" type="curve"/>
      <point x="1241.5" y="1.0" type="line"/>
      <point x="1241.5" y="24.5" type="line"/>
      <point x="1124.0" y="178.0"/>
      <point x="1037.0" y="284.0"/>
      <point x="924.0" y="415.0" type="curve"/>
      <point x="854.0" y="495.5" type="line"/>
      <point x="570.5" y="815.0" type="line" smooth="yes"/>
      <point x="520.5" y="872.5"/>
      <point x="496.5" y="906.5"/>
      <point x="496.5" y="945.0" type="curve" smooth="yes"/>
      <point x="496.5" y="948.0" type="line" smooth="yes"/>
      <point x="496.5" y="997.5"/>
      <point x="531.0" y="1024.5"/>
      <point x="610.5" y="1024.5" type="curve" smooth="yes"/>
      <point x="700.5" y="1024.5"/>
      <point x="791.5" y="1003.0"/>
      <point x="860.0" y="978.0" type="curve"/>
      <point x="837.5" y="1246.0" type="line"/>
      <point x="762.0" y="1278.0"/>
      <point x="657.5" y="1303.5"/>
      <point x="517.5" y="1303.5" type="curve" smooth="yes"/>
      <point x="281.5" y="1303.5"/>
      <point x="148.0" y="1183.5"/>
      <point x="148.0" y="998.5" type="curve" smooth="yes"/>
      <point x="148.0" y="989.5" type="line" smooth="yes"/>
      <point x="148.0" y="876.5"/>
      <point x="190.0" y="800.5"/>
      <point x="278.5" y="700.0" type="curve"/>
      <point x="333.0" y="637.5" type="line"/>
      <point x="678.5" y="260.5" type="line"/>
      <point x="723.5" y="212.0" type="line"/>
      <point x="771.5" y="153.5"/>
      <point x="847.5" y="64.5"/>
    </contour>
    <contour>
      <point x="470.5" y="-26.5" type="curve" smooth="yes"/>
      <point x="659.5" y="-26.5"/>
      <point x="764.5" y="40.0"/>
      <point x="852.0" y="150.0" type="curve"/>
      <point x="978.0" y="271.5" type="line"/>
      <point x="1101.5" y="424.5"/>
      <point x="1153.5" y="613.5"/>
      <point x="1170.0" y="821.0" type="curve"/>
      <point x="858.5" y="821.0" type="line"/>
      <point x="852.5" y="692.5"/>
      <point x="830.5" y="564.5"/>
      <point x="777.0" y="461.0" type="curve"/>
      <point x="679.0" y="331.5" type="line"/>
      <point x="644.5" y="283.0"/>
      <point x="595.5" y="250.5"/>
      <point x="511.0" y="250.5" type="curve" smooth="yes"/>
      <point x="413.5" y="250.5"/>
      <point x="366.0" y="304.0"/>
      <point x="366.0" y="397.0" type="curve" smooth="yes"/>
      <point x="366.0" y="422.5" type="line" smooth="yes"/>
      <point x="366.0" y="497.5"/>
      <point x="382.5" y="538.5"/>
      <point x="435.5" y="566.0" type="curve"/>
      <point x="263.5" y="775.5" type="line"/>
      <point x="110.0" y="689.0"/>
      <point x="47.0" y="575.5"/>
      <point x="47.0" y="406.0" type="curve" smooth="yes"/>
      <point x="47.0" y="372.5" type="line" smooth="yes"/>
      <point x="47.0" y="118.5"/>
      <point x="185.0" y="-26.5"/>
    </contour>
  </outline>
</glyph>
<glyph name="quotesingle" format="2">
  <advance width="399.5"/>
  <unicode hex="0027"/>
  <outline>
    <contour>
      <point x="322.0" y="807.5" type="line"/>
      <point x="354.0" y="1321.5" type="line"/>
      <point x="45.5" y="1321.5" type="line"/>
      <point x="76.5" y="807.5" type="line"/>
    </contour>
  </outline>
</glyph>
<glyph name="parenleft" format="2">
  <advance width="596.5"/>
  <unicode hex="0028"/>
  <outline>
    <contour>
      <point x="392.5" y="583.5" type="line" smooth="yes"/>
      <point x="392.5" y="897.0"/>
      <point x="463.5" y="1125.0"/>
      <point x="596.0" y="1351.5" type="curve"/>
      <point x="270.5" y="1351.5" type="line"/>
      <point x="151.5" y="1159.0"/>
      <point x="76.5" y="924.5"/>
      <point x="76.5" y="595.0" type="curve" smooth="yes"/>
      <point x="76.5" y="510.0" type="line" smooth="yes"/>
      <point x="76.5" y="180.0"/>
      <point x="151.0" y="-53.0"/>
      <point x="269.0" y="-245.5" type="curve"/>
      <point x="596.0" y="-245.5" type="line"/>
      <point x="463.5" y="-21.5"/>
      <point x="392.5" y="206.5"/>
      <point x="392.5" y="521.5" type="curve" smooth="yes"/>
    </contour>
  </outline>
</glyph>
<glyph name="parenright" format="2">
  <advance width="596.5"/>
  <unicode hex="0029"/>
  <outline>
    <contour>
      <point x="204.0" y="583.5" type="curve" smooth="yes"/>
      <point x="204.0" y="521.5" type="line" smooth="yes"/>
      <point x="204.0" y="206.5"/>
      <point x="133.0" y="-21.5"/>
      <point x="0.5" y="-245.5" type="curve"/>
      <point x="327.5" y="-245.5" type="line"/>
      <point x="445.5" y="-53.0"/>
      <point x="520.0" y="180.0"/>
      <point x="520.0" y="510.0" type="curve" smooth="yes"/>
      <point x="520.0" y="595.0" type="line" smooth="yes"/>
      <point x="520.0" y="924.5"/>
      <point x="445.0" y="1159.0"/>
      <point x="326.0" y="1351.5" type="curve"/>
      <point x="0.5" y="1351.5" type="line"/>
      <point x="133.0" y="1125.0"/>
      <point x="204.0" y="897.0"/>
    </contour>
  </outline>
</glyph>
<glyph name="asterisk" format="2">
  <advance width="728.5"/>
  <unicode hex="002A"/>
  <outline>
    <contour>
      <point x="268.0" y="610.5" type="line"/>
      <point x="361.0" y="781.0" type="line"/>
      <point x="367.5" y="781.0" type="line"/>
      <point x="461.0" y="610.5" type="line"/>
      <point x="665.5" y="749.5" type="line"/>
      <point x="532.5" y="885.5" type="line"/>
      <point x="533.5" y="892.5" type="line"/>
      <point x="703.0" y="914.0" type="line"/>
      <point x="645.5" y="1162.0" type="line"/>
      <point x="472.0" y="1090.0" type="line"/>
      <point x="468.0" y="1094.0" type="line"/>
      <point x="501.0" y="1278.0" type="line"/>
      <point x="227.5" y="1278.0" type="line"/>
      <point x="260.0" y="1094.0" type="line"/>
      <point x="255.5" y="1090.0" type="line"/>
      <point x="83.0" y="1162.0" type="line"/>
      <point x="25.5" y="914.0" type="line"/>
      <point x="195.0" y="892.5" type="line"/>
      <point x="197.0" y="885.5" type="line"/>
      <point x="63.0" y="749.5" type="line"/>
    </contour>
  </outline>
</glyph>
<glyph name="plus" format="2">
  <advance width="880.5"/>
  <unicode hex="002B"/>
  <outline>
    <contour>
      <point x="581.5" y="241.5" type="line"/>
      <point x="581.5" y="1013.0" type="line"/>
      <point x="300.0" y="1013.0" type="line"/>
      <point x="300.0" y="241.5" type="line"/>
    </contour>
    <contour>
      <point x="68.5" y="493.0" type="line"/>
      <point x="812.0" y="493.0" type="line"/>
      <point x="812.0" y="761.5" type="line"/>
      <point x="68.5" y="761.5" type="line"/>
    </contour>
  </outline>
</glyph>
<glyph name="comma" format="2">
  <advance width="444.0"/>
  <unicode hex="002C"/>
  <outline>
    <contour>
      <point x="373.5" y="346.5" type="curve"/>
      <point x="71.0" y="346.5" type="line"/>
      <point x="75.0" y="294.5"/>
      <point x="77.0" y="257.5"/>
      <point x="77.0" y="209.5" type="curve" smooth="yes"/>
      <point x="77.0" y="54.5"/>
      <point x="44.5" y="-64.0"/>
      <point x="-8.5" y="-170.0" type="curve"/>
      <point x="214.0" y="-221.5" type="line"/>
      <point x="333.5" y="-90.5"/>
      <point x="383.0" y="52.0"/>
      <point x="383.0" y="222.5" type="curve" smooth="yes"/>
      <point x="383.0" y="270.0"/>
      <point x="378.5" y="309.0"/>
    </contour>
  </outline>
</glyph>
<glyph name="hyphen" format="2">
  <advance width="651.0"/>
  <unicode hex="002D"/>
  <outline>
    <contour>
      <point x="71.0" y="368.0" type="line"/>
      <point x="580.0" y="368.0" type="line"/>
      <point x="580.0" y="637.0" type="line"/>
      <point x="71.0" y="637.0" type="line"/>
    </contour>
  </outline>
</glyph>
<glyph name="period" format="2">
  <advance width="453.5"/>
  <unicode hex="002E"/>
  <outline>
    <contour>
      <point x="227.0" y="-28.0" type="curve" smooth="yes"/>
      <point x="343.0" y="-28.0"/>
      <point x="401.0" y="40.0"/>
      <point x="401.0" y="156.5" type="curve" smooth="yes"/>
      <point x="401.0" y="170.5" type="line" smooth="yes"/>
      <point x="401.0" y="285.5"/>
      <point x="343.0" y="355.5"/>
      <point x="227.0" y="355.5" type="curve" smooth="yes"/>
      <point x="107.5" y="355.5"/>
      <point x="52.5" y="285.5"/>
      <point x="52.5" y="170.5" type="curve" smooth="yes"/>
      <point x="52.5" y="156.5" type="line" smooth="yes"/>
      <point x="52.5" y="40.0"/>
      <point x="107.5" y="-28.0"/>
    </contour>
  </outline>
</glyph>
<glyph name="zero" format="2">
  <advance width="1077.0"/>
  <unicode hex="0030"/>
  <outline>
    <contour>
      <point x="538.0" y="-25.5" type="curve" smooth="yes"/>
      <point x="852.0" y="-25.5"/>
      <point x="1012.5" y="143.0"/>
      <point x="1012.5" y="472.0" type="curve"/>
      <point x="1012.5" y="806.5" type="line"/>
      <point x="1012.5" y="1133.0"/>
      <point x="852.0" y="1303.0"/>
      <point x="538.0" y="1303.0" type="curve" smooth="yes"/>
      <point x="224.0" y="1303.0"/>
      <point x="64.5" y="1133.0"/>
      <point x="64.5" y="806.5" type="curve"/>
      <point x="64.5" y="472.0" type="line"/>
      <point x="64.5" y="143.0"/>
      <point x="224.5" y="-25.5"/>
    </contour>
    <contour>
      <point x="538.0" y="257.0" type="curve" smooth="yes"/>
      <point x="446.5" y="257.0"/>
      <point x="410.0" y="319.5"/>
      <point x="410.0" y="450.5" type="curve" smooth="yes"/>
      <point x="410.0" y="827.0" type="line" smooth="yes"/>
      <point x="410.0" y="958.0"/>
      <point x="445.5" y="1020.5"/>
      <point x="538.0" y="1020.5" type="curve" smooth="yes"/>
      <point x="630.5" y="1020.5"/>
      <point x="667.0" y="958.5"/>
      <point x="667.0" y="827.0" type="curve" smooth="yes"/>
      <point x="667.0" y="450.5" type="line" smooth="yes"/>
      <point x="667.0" y="319.5"/>
      <point x="630.5" y="257.0"/>
    </contour>
  </outline>
</glyph>
<glyph name="one" format="2">
  <advance width="676.5"/>
  <unicode hex="0031"/>
  <outline>
    <contour>
      <point x="251.5" y="0.0" type="line"/>
      <point x="589.0" y="0.0" type="line"/>
      <point x="589.0" y="1278.0" type="line"/>
      <point x="306.0" y="1278.0" type="line"/>
      <point x="33.0" y="1152.5" type="line"/>
      <point x="24.0" y="819.5" type="line"/>
      <point x="237.5" y="917.0" type="line"/>
      <point x="251.5" y="917.0" type="line"/>
    </contour>
  </outline>
</glyph>
<glyph name="two" format="2">
  <advance width="859.5"/>
  <unicode hex="0032"/>
  <outline>
    <contour>
      <point x="42.0" y="0.0" type="line"/>
      <point x="816.0" y="0.0" type="line"/>
      <point x="816.0" y="293.5" type="line"/>
      <point x="288.0" y="293.5" type="line"/>
      <point x="438.0" y="249.0" type="line"/>
      <point x="438.0" y="305.0" type="line"/>
      <point x="587.0" y="469.5" type="line" smooth="yes"/>
      <point x="736.5" y="628.5"/>
      <point x="809.0" y="742.5"/>
      <point x="809.0" y="912.0" type="curve" smooth="yes"/>
      <point x="809.0" y="932.0" type="line" smooth="yes"/>
      <point x="809.0" y="1160.5"/>
      <point x="672.0" y="1302.0"/>
      <point x="402.0" y="1302.0" type="curve" smooth="yes"/>
      <point x="257.0" y="1302.0"/>
      <point x="149.0" y="1265.5"/>
      <point x="77.5" y="1224.5" type="curve"/>
      <point x="53.0" y="934.5" type="line"/>
      <point x="119.0" y="969.0"/>
      <point x="206.0" y="1005.5"/>
      <point x="305.0" y="1005.5" type="curve" smooth="yes"/>
      <point x="420.0" y="1005.5"/>
      <point x="465.5" y="959.0"/>
      <point x="465.5" y="881.5" type="curve" smooth="yes"/>
      <point x="465.5" y="868.5" type="line" smooth="yes"/>
      <point x="465.5" y="791.5"/>
      <point x="417.0" y="732.5"/>
      <point x="306.5" y="614.0" type="curve" smooth="yes"/>
      <point x="42.0" y="314.0" type="line"/>
    </contour>
  </outline>
</glyph>
<glyph name="three" format="2">
  <advance width="876.0"/>
  <unicode hex="0033"/>
  <outline>
    <contour>
      <point x="379.5" y="-24.5" type="curve" smooth="yes"/>
      <point x="688.5" y="-24.5"/>
      <point x="831.5" y="119.5"/>
      <point x="831.5" y="343.5" type="curve" smooth="yes"/>
      <point x="831.5" y="370.5" type="line" smooth="yes"/>
      <point x="831.5" y="542.0"/>
      <point x="760.0" y="635.0"/>
      <point x="569.0" y="659.5" type="curve"/>
      <point x="587.0" y="620.0" type="line"/>
      <point x="587.0" y="668.0" type="line"/>
      <point x="747.0" y="692.5"/>
      <point x="824.5" y="778.0"/>
      <point x="824.5" y="945.5" type="curve" smooth="yes"/>
      <point x="824.5" y="969.5" type="line" smooth="yes"/>
      <point x="824.5" y="1179.5"/>
      <point x="690.0" y="1302.0"/>
      <point x="408.0" y="1302.0" type="curve" smooth="yes"/>
      <point x="259.5" y="1302.0"/>
      <point x="151.0" y="1269.5"/>
      <point x="73.5" y="1233.0" type="curve"/>
      <point x="49.5" y="954.5" type="line"/>
      <point x="121.0" y="982.5"/>
      <point x="217.0" y="1012.5"/>
      <point x="326.5" y="1012.5" type="curve" smooth="yes"/>
      <point x="444.5" y="1012.5"/>
      <point x="483.5" y="975.5"/>
      <point x="483.5" y="903.5" type="curve" smooth="yes"/>
      <point x="483.5" y="896.5" type="line" smooth="yes"/>
      <point x="483.5" y="822.5"/>
      <point x="440.0" y="790.5"/>
      <point x="328.0" y="786.0" type="curve" smooth="yes"/>
      <point x="169.0" y="780.5" type="line"/>
      <point x="169.0" y="505.5" type="line"/>
      <point x="328.5" y="501.0" type="line" smooth="yes"/>
      <point x="444.5" y="497.5"/>
      <point x="484.5" y="465.0"/>
      <point x="484.5" y="390.0" type="curve" smooth="yes"/>
      <point x="484.5" y="381.0" type="line" smooth="yes"/>
      <point x="484.5" y="306.5"/>
      <point x="448.0" y="268.5"/>
      <point x="313.5" y="268.5" type="curve" smooth="yes"/>
      <point x="210.0" y="268.5"/>
      <point x="117.5" y="297.0"/>
      <point x="39.0" y="331.0" type="curve"/>
      <point x="63.0" y="38.0" type="line"/>
      <point x="131.0" y="6.0"/>
      <point x="248.5" y="-24.5"/>
    </contour>
  </outline>
</glyph>
<glyph name="four" format="2">
  <advance width="1014.0"/>
  <unicode hex="0034"/>
  <outline>
    <contour>
      <point x="555.5" y="0.0" type="line"/>
      <point x="870.0" y="0.0" type="line"/>
      <point x="870.0" y="1278.0" type="line"/>
      <point x="339.5" y="1278.0" type="line"/>
      <point x="42.5" y="503.0" type="line"/>
      <point x="42.5" y="202.0" type="line"/>
      <point x="983.0" y="202.0" type="line"/>
      <point x="983.0" y="474.5" type="line"/>
      <point x="222.0" y="474.5" type="line"/>
      <point x="353.0" y="370.0" type="line"/>
      <point x="353.0" y="488.0" type="line"/>
      <point x="548.5" y="1048.5" type="line"/>
      <point x="569.0" y="1048.5" type="line"/>
      <point x="555.5" y="672.0" type="line"/>
    </contour>
  </outline>
</glyph>
<glyph name="five" format="2">
  <advance width="946.5"/>
  <unicode hex="0035"/>
  <outline>
    <contour>
      <point x="424.5" y="-23.5" type="curve" smooth="yes"/>
      <point x="773.0" y="-23.5"/>
      <point x="896.5" y="138.0"/>
      <point x="896.5" y="417.0" type="curve" smooth="yes"/>
      <point x="896.5" y="478.5" type="line" smooth="yes"/>
      <point x="896.5" y="712.0"/>
      <point x="820.5" y="845.0"/>
      <point x="635.5" y="845.0" type="curve" smooth="yes"/>
      <point x="490.5" y="845.0"/>
      <point x="422.5" y="777.5"/>
      <point x="393.5" y="663.0" type="curve"/>
      <point x="382.0" y="663.0" type="line"/>
      <point x="385.5" y="828.0" type="line"/>
      <point x="385.5" y="991.0" type="line"/>
      <point x="849.5" y="991.0" type="line"/>
      <point x="849.5" y="1278.0" type="line"/>
      <point x="76.5" y="1278.0" type="line"/>
      <point x="76.5" y="510.0" type="line"/>
      <point x="369.5" y="473.0" type="line"/>
      <point x="387.0" y="536.0"/>
      <point x="419.0" y="579.0"/>
      <point x="482.5" y="579.0" type="curve" smooth="yes"/>
      <point x="547.5" y="579.0"/>
      <point x="572.5" y="543.5"/>
      <point x="572.5" y="466.0" type="curve" smooth="yes"/>
      <point x="572.5" y="419.5" type="line" smooth="yes"/>
      <point x="572.5" y="321.0"/>
      <point x="528.5" y="271.0"/>
      <point x="380.0" y="271.0" type="curve" smooth="yes"/>
      <point x="260.5" y="271.0"/>
      <point x="148.0" y="307.0"/>
      <point x="70.5" y="343.0" type="curve"/>
      <point x="95.0" y="43.0" type="line"/>
      <point x="162.0" y="11.0"/>
      <point x="278.5" y="-23.5"/>
    </contour>
  </outline>
</glyph>
<glyph name="six" format="2">
  <advance width="1017.5"/>
  <unicode hex="0036"/>
  <outline>
    <contour>
      <point x="519.5" y="-23.5" type="curve" smooth="yes"/>
      <point x="816.5" y="-23.5"/>
      <point x="966.0" y="123.5"/>
      <point x="966.0" y="405.0" type="curve" smooth="yes"/>
      <point x="966.0" y="449.5" type="line" smooth="yes"/>
      <point x="966.0" y="702.0"/>
      <point x="878.0" y="843.0"/>
      <point x="672.5" y="843.0" type="curve" smooth="yes"/>
      <point x="499.0" y="843.0"/>
      <point x="427.0" y="745.5"/>
      <point x="404.5" y="634.0" type="curve"/>
      <point x="349.0" y="634.0" type="line"/>
      <point x="389.5" y="488.0" type="line"/>
      <point x="410.0" y="545.5"/>
      <point x="459.5" y="582.0"/>
      <point x="528.5" y="582.0" type="curve" smooth="yes"/>
      <point x="614.0" y="582.0"/>
      <point x="640.5" y="534.5"/>
      <point x="640.5" y="443.0" type="curve" smooth="yes"/>
      <point x="640.5" y="403.0" type="line" smooth="yes"/>
      <point x="640.5" y="304.5"/>
      <point x="609.5" y="258.5"/>
      <point x="526.5" y="258.5" type="curve" smooth="yes"/>
      <point x="432.0" y="258.5"/>
      <point x="394.0" y="316.0"/>
      <point x="394.0" y="445.5" type="curve"/>
      <point x="394.0" y="746.0" type="line" smooth="yes"/>
      <point x="394.0" y="934.0"/>
      <point x="470.0" y="1012.0"/>
      <point x="641.5" y="1012.0" type="curve" smooth="yes"/>
      <point x="752.0" y="1012.0"/>
      <point x="837.5" y="985.5"/>
      <point x="907.0" y="956.0" type="curve"/>
      <point x="879.0" y="1241.5" type="line"/>
      <point x="810.0" y="1272.0"/>
      <point x="702.0" y="1301.5"/>
      <point x="563.5" y="1301.5" type="curve" smooth="yes"/>
      <point x="229.0" y="1301.5"/>
      <point x="60.0" y="1110.0"/>
      <point x="60.0" y="763.0" type="curve" smooth="yes"/>
      <point x="60.0" y="456.5" type="line" smooth="yes"/>
      <point x="60.0" y="141.5"/>
      <point x="218.0" y="-23.5"/>
    </contour>
  </outline>
</glyph>
<glyph name="seven" format="2">
  <advance width="856.0"/>
  <unicode hex="0037"/>
  <outline>
    <contour>
      <point x="118.0" y="0.0" type="line"/>
      <point x="475.5" y="0.0" type="line"/>
      <point x="810.5" y="974.5" type="line"/>
      <point x="810.5" y="1278.0" type="line"/>
      <point x="36.0" y="1278.0" type="line"/>
      <point x="36.0" y="985.0" type="line"/>
      <point x="464.5" y="985.0" type="line"/>
    </contour>
  </outline>
</glyph>
<glyph name="eight" format="2">
  <advance width="1010.0"/>
  <unicode hex="0038"/>
  <outline>
    <contour>
      <point x="504.0" y="-30.0" type="curve" smooth="yes"/>
      <point x="848.5" y="-30.0"/>
      <point x="963.5" y="117.0"/>
      <point x="963.5" y="334.5" type="curve" smooth="yes"/>
      <point x="963.5" y="363.5" type="line" smooth="yes"/>
      <point x="963.5" y="536.0"/>
      <point x="894.5" y="625.5"/>
      <point x="747.5" y="665.0" type="curve"/>
      <point x="747.5" y="675.5" type="line"/>
      <point x="882.5" y="710.0"/>
      <point x="952.0" y="787.5"/>
      <point x="952.0" y="939.5" type="curve" smooth="yes"/>
      <point x="952.0" y="967.0" type="line" smooth="yes"/>
      <point x="952.0" y="1177.0"/>
      <point x="821.0" y="1305.5"/>
      <point x="504.0" y="1305.5" type="curve" smooth="yes"/>
      <point x="191.5" y="1305.5"/>
      <point x="58.0" y="1177.0"/>
      <point x="58.0" y="967.0" type="curve" smooth="yes"/>
      <point x="58.0" y="934.5" type="line" smooth="yes"/>
      <point x="58.0" y="788.0"/>
      <point x="127.0" y="708.5"/>
      <point x="260.5" y="675.5" type="curve"/>
      <point x="260.5" y="665.0" type="line"/>
      <point x="116.0" y="627.5"/>
      <point x="46.5" y="534.0"/>
      <point x="46.5" y="363.5" type="curve" smooth="yes"/>
      <point x="46.5" y="334.5" type="line" smooth="yes"/>
      <point x="46.5" y="111.5"/>
      <point x="170.0" y="-30.0"/>
    </contour>
    <contour>
      <point x="506.5" y="235.5" type="curve" smooth="yes"/>
      <point x="406.5" y="235.5"/>
      <point x="375.5" y="279.0"/>
      <point x="375.5" y="357.5" type="curve" smooth="yes"/>
      <point x="375.5" y="394.5" type="line" smooth="yes"/>
      <point x="375.5" y="467.5"/>
      <point x="407.0" y="508.5"/>
      <point x="500.0" y="527.5" type="curve"/>
      <point x="599.0" y="510.5"/>
      <point x="634.5" y="472.0"/>
      <point x="634.5" y="394.5" type="curve" smooth="yes"/>
      <point x="634.5" y="357.5" type="line" smooth="yes"/>
      <point x="634.5" y="280.0"/>
      <point x="605.0" y="235.5"/>
    </contour>
    <contour>
      <point x="509.5" y="767.0" type="curve"/>
      <point x="411.5" y="783.5"/>
      <point x="378.5" y="826.5"/>
      <point x="378.5" y="900.5" type="curve" smooth="yes"/>
      <point x="378.5" y="932.5" type="line" smooth="yes"/>
      <point x="378.5" y="1007.5"/>
      <point x="412.5" y="1051.0"/>
      <point x="504.0" y="1051.0" type="curve" smooth="yes"/>
      <point x="598.0" y="1051.0"/>
      <point x="631.0" y="1007.5"/>
      <point x="631.0" y="931.5" type="curve" smooth="yes"/>
      <point x="631.0" y="899.5" type="line" smooth="yes"/>
      <point x="631.0" y="826.5"/>
      <point x="592.5" y="781.0"/>
    </contour>
  </outline>
</glyph>
<glyph name="nine" format="2">
  <advance width="1017.0"/>
  <unicode hex="0039"/>
  <outline>
    <contour>
      <point x="498.5" y="1300.5" type="curve" smooth="yes"/>
      <point x="203.0" y="1300.5"/>
      <point x="51.5" y="1151.5"/>
      <point x="51.5" y="872.0" type="curve" smooth="yes"/>
      <point x="51.5" y="811.5" type="line" smooth="yes"/>
      <point x="51.5" y="572.0"/>
      <point x="144.0" y="434.0"/>
      <point x="352.0" y="434.0" type="curve" smooth="yes"/>
      <point x="513.0" y="434.0"/>
      <point x="588.5" y="515.0"/>
      <point x="612.5" y="642.5" type="curve"/>
      <point x="715.0" y="642.5" type="line"/>
      <point x="626.0" y="781.5" type="line"/>
      <point x="603.5" y="728.0"/>
      <point x="558.0" y="695.0"/>
      <point x="493.5" y="695.0" type="curve" smooth="yes"/>
      <point x="410.0" y="695.0"/>
      <point x="376.5" y="739.0"/>
      <point x="376.5" y="833.0" type="curve" smooth="yes"/>
      <point x="376.5" y="871.5" type="line" smooth="yes"/>
      <point x="376.5" y="969.0"/>
      <point x="409.5" y="1018.5"/>
      <point x="494.0" y="1018.5" type="curve" smooth="yes"/>
      <point x="586.0" y="1018.5"/>
      <point x="623.0" y="962.0"/>
      <point x="623.0" y="833.5" type="curve"/>
      <point x="623.0" y="513.0" type="line" smooth="yes"/>
      <point x="623.0" y="338.0"/>
      <point x="542.0" y="264.5"/>
      <point x="357.5" y="264.5" type="curve" smooth="yes"/>
      <point x="254.0" y="264.5"/>
      <point x="174.5" y="292.0"/>
      <point x="112.0" y="320.5" type="curve"/>
      <point x="140.5" y="29.5" type="line"/>
      <point x="199.5" y="2.0"/>
      <point x="297.5" y="-24.5"/>
      <point x="429.5" y="-24.5" type="curve" smooth="yes"/>
      <point x="780.5" y="-24.5"/>
      <point x="957.0" y="160.5"/>
      <point x="957.0" y="497.0" type="curve" smooth="yes"/>
      <point x="957.0" y="808.5" type="line" smooth="yes"/>
      <point x="957.0" y="1134.5"/>
      <point x="804.5" y="1300.5"/>
    </contour>
  </outline>
</glyph>
<glyph name="less" format="2">
  <advance width="880.5"/>
  <unicode hex="003C"/>
  <outline>
    <contour>
      <point x="283.0" y="635.0" type="line"/>
      <point x="810.5" y="715.5" type="line"/>
      <point x="810.5" y="990.0" type="line"/>
      <point x="68.5" y="838.5" type="line"/>
      <point x="68.5" y="413.5" type="line"/>
      <point x="810.5" y="262.0" type="line"/>
      <point x="810.5" y="536.5" type="line"/>
      <point x="283.0" y="617.0" type="line"/>
    </contour>
  </outline>
</glyph>
<glyph name="equal" format="2">
  <advance width="887.0"/>
  <unicode hex="003D"/>
  <outline>
    <contour>
      <point x="72.0" y="301.0" type="line"/>
      <point x="815.0" y="301.0" type="line"/>
      <point x="815.0" y="561.5" type="line"/>
      <point x="72.0" y="561.5" type="line"/>
    </contour>
    <contour>
      <point x="72.0" y="693.5" type="line"/>
      <point x="815.0" y="693.5" type="line"/>
      <point x="815.0" y="954.0" type="line"/>
      <point x="72.0" y="954.0" type="line"/>
    </contour>
  </outline>
</glyph>
<glyph name="greater" format="2">
  <advance width="880.5"/>
  <unicode hex="003E"/>
  <outline>
    <contour>
      <point x="597.5" y="635.0" type="line"/>
      <point x="597.5" y="617.0" type="line"/>
      <point x="70.0" y="536.5" type="line"/>
      <point x="70.0" y="262.0" type="line"/>
      <point x="812.0" y="413.5" type="line"/>
      <point x="812.0" y="838.5" type="line"/>
      <point x="70.0" y="990.0" type="line"/>
      <point x="70.0" y="715.5" type="line"/>
    </contour>
  </outline>
</glyph>
<glyph name="question" format="2">
  <advance width="766.0"/>
  <unicode hex="003F"/>
  <outline>
    <contour>
      <point x="175.5" y="406.0" type="line"/>
      <point x="309.0" y="440.0" type="line" smooth="yes"/>
      <point x="590.5" y="510.0"/>
      <point x="725.0" y="628.5"/>
      <point x="725.0" y="889.5" type="curve" smooth="yes"/>
      <point x="725.0" y="938.5" type="line" smooth="yes"/>
      <point x="725.0" y="1169.0"/>
      <point x="601.5" y="1303.0"/>
      <point x="344.5" y="1303.0" type="curve" smooth="yes"/>
      <point x="225.0" y="1303.0"/>
      <point x="120.5" y="1275.0"/>
      <point x="55.0" y="1245.5" type="curve"/>
      <point x="21.5" y="966.0" type="line"/>
      <point x="96.0" y="995.5"/>
      <point x="170.5" y="1015.0"/>
      <point x="247.5" y="1015.0" type="curve" smooth="yes"/>
      <point x="350.5" y="1015.0"/>
      <point x="389.0" y="974.0"/>
      <point x="389.0" y="897.0" type="curve" smooth="yes"/>
      <point x="389.0" y="881.0" type="line" smooth="yes"/>
      <point x="389.0" y="802.5"/>
      <point x="361.5" y="760.5"/>
      <point x="245.0" y="729.0" type="curve" smooth="yes"/>
      <point x="175.5" y="711.5" type="line"/>
    </contour>
    <contour>
      <point x="290.5" y="-29.0" type="curve" smooth="yes"/>
      <point x="406.0" y="-29.0"/>
      <point x="463.5" y="38.5"/>
      <point x="463.5" y="154.0" type="curve" smooth="yes"/>
      <point x="463.5" y="168.0" type="line" smooth="yes"/>
      <point x="463.5" y="282.0"/>
      <point x="406.0" y="351.0"/>
      <point x="290.5" y="351.0" type="curve" smooth="yes"/>
      <point x="172.5" y="351.0"/>
      <point x="118.0" y="282.0"/>
      <point x="118.0" y="168.0" type="curve" smooth="yes"/>
      <point x="118.0" y="154.0" type="line" smooth="yes"/>
      <point x="118.0" y="38.5"/>
      <point x="172.5" y="-29.0"/>
    </contour>
  </outline>
</glyph>
<glyph name="at" format="2">
  <advance width="1541.0"/>
  <unicode hex="0040"/>
  <outline>
    <contour>
      <point x="614.0" y="61.5" type="curve" smooth="yes"/>
      <point x="744.5" y="61.5"/>
      <point x="793.0" y="144.5"/>
      <point x="818.5" y="247.0" type="curve"/>
      <point x="876.0" y="247.0" type="line"/>
      <point x="836.0" y="360.5" type="line"/>
      <point x="821.5" y="321.0"/>
      <point x="794.5" y="298.5"/>
      <point x="761.0" y="298.5" type="curve" smooth="yes"/>
      <point x="724.0" y="298.5"/>
      <point x="708.0" y="324.0"/>
      <point x="708.0" y="372.0" type="curve" smooth="yes"/>
      <point x="708.0" y="398.0"/>
      <point x="711.0" y="431.0"/>
      <point x="727.5" y="577.0" type="curve" smooth="yes"/>
      <point x="736.0" y="654.0"/>
      <point x="753.5" y="697.5"/>
      <point x="803.0" y="697.5" type="curve" smooth="yes"/>
      <point x="846.5" y="697.5"/>
      <point x="862.0" y="668.5"/>
      <point x="862.0" y="619.0" type="curve" smooth="yes"/>
      <point x="862.0" y="610.5"/>
      <point x="861.5" y="600.0"/>
      <point x="860.5" y="589.5" type="curve"/>
      <point x="934.0" y="744.5" type="line"/>
      <point x="866.5" y="744.5" type="line"/>
      <point x="857.0" y="852.0"/>
      <point x="820.5" y="926.5"/>
      <point x="702.5" y="926.5" type="curve" smooth="yes"/>
      <point x="531.5" y="926.5"/>
      <point x="463.5" y="783.5"/>
      <point x="438.0" y="547.5" type="curve" smooth="yes"/>
      <point x="422.0" y="398.0"/>
      <point x="418.0" y="357.5"/>
      <point x="418.0" y="318.5" type="curve" smooth="yes"/>
      <point x="418.0" y="150.0"/>
      <point x="482.0" y="61.5"/>
    </contour>
    <contour>
      <point x="809.0" y="72.0" type="line"/>
      <point x="1075.0" y="94.5" type="line"/>
      <point x="1162.0" y="909.5" type="line"/>
      <point x="891.5" y="909.5" type="line"/>
      <point x="891.0" y="905.0" type="line"/>
      <point x="874.5" y="725.5" type="line"/>
      <point x="871.0" y="688.0" type="line"/>
      <point x="829.0" y="316.0" type="line"/>
      <point x="832.5" y="280.0" type="line"/>
    </contour>
    <contour>
      <point x="1017.5" y="294.5" type="curve"/>
      <point x="809.0" y="72.0" type="line"/>
      <point x="866.5" y="63.0"/>
      <point x="947.5" y="59.0"/>
      <point x="1007.5" y="61.5" type="curve" smooth="yes"/>
      <point x="1318.5" y="69.5"/>
      <point x="1452.0" y="172.5"/>
      <point x="1483.5" y="452.5" type="curve" smooth="yes"/>
      <point x="1496.5" y="570.0"/>
      <point x="1505.5" y="670.5"/>
      <point x="1508.5" y="730.0" type="curve" smooth="yes"/>
      <point x="1526.0" y="1122.5"/>
      <point x="1273.0" y="1337.5"/>
      <point x="839.5" y="1337.5" type="curve" smooth="yes"/>
      <point x="371.5" y="1337.5"/>
      <point x="131.0" y="1110.5"/>
      <point x="79.5" y="691.5" type="curve" smooth="yes"/>
      <point x="66.0" y="581.0"/>
      <point x="49.0" y="415.0"/>
      <point x="42.5" y="302.5" type="curve" smooth="yes"/>
      <point x="20.0" y="-117.5"/>
      <point x="276.0" y="-326.0"/>
      <point x="751.0" y="-326.0" type="curve" smooth="yes"/>
      <point x="981.0" y="-326.0"/>
      <point x="1139.5" y="-281.5"/>
      <point x="1250.0" y="-238.5" type="curve"/>
      <point x="1286.0" y="-16.5" type="line"/>
      <point x="1177.5" y="-61.5"/>
      <point x="997.0" y="-115.0"/>
      <point x="771.5" y="-115.0" type="curve" smooth="yes"/>
      <point x="421.0" y="-115.0"/>
      <point x="272.0" y="39.0"/>
      <point x="289.0" y="317.5" type="curve" smooth="yes"/>
      <point x="295.5" y="418.5"/>
      <point x="308.0" y="558.0"/>
      <point x="329.5" y="693.0" type="curve" smooth="yes"/>
      <point x="367.0" y="928.5"/>
      <point x="485.0" y="1127.0"/>
      <point x="826.5" y="1127.0" type="curve" smooth="yes"/>
      <point x="1144.0" y="1127.0"/>
      <point x="1275.0" y="964.5"/>
      <point x="1264.0" y="737.5" type="curve" smooth="yes"/>
      <point x="1260.5" y="677.5"/>
      <point x="1249.0" y="567.5"/>
      <point x="1236.0" y="462.5" type="curve" smooth="yes"/>
      <point x="1220.5" y="335.5"/>
      <point x="1174.0" y="285.5"/>
      <point x="1089.0" y="285.5" type="curve" smooth="yes"/>
      <point x="1058.5" y="285.5"/>
      <point x="1047.0" y="287.0"/>
    </contour>
  </outline>
</glyph>
<glyph name="A" format="2">
  <advance width="1069.0"/>
  <unicode hex="0041"/>
  <anchor x="535.0" y="0.0" name="bottom"/>
  <anchor x="1081.5" y="0.0" name="ogonek"/>
  <anchor x="535.0" y="1278.0" name="top"/>
  <outline>
    <contour>
      <point x="16.5" y="0.0" type="line"/>
      <point x="354.0" y="0.0" type="line"/>
      <point x="524.5" y="1046.5" type="line"/>
      <point x="546.5" y="1046.5" type="line"/>
      <point x="715.0" y="0.0" type="line"/>
      <point x="1052.5" y="0.0" type="line"/>
      <point x="793.0" y="1278.0" type="line"/>
      <point x="278.0" y="1278.0" type="line"/>
    </contour>
    <contour>
      <point x="299.0" y="280.0" type="line"/>
      <point x="767.0" y="280.0" type="line"/>
      <point x="767.0" y="537.5" type="line"/>
      <point x="299.0" y="537.5" type="line"/>
    </contour>
  </outline>
</glyph>
<glyph name="B" format="2">
  <advance width="1054.0"/>
  <unicode hex="0042"/>
  <anchor x="527.0" y="0.0" name="bottom"/>
  <anchor x="527.0" y="1278.0" name="top"/>
  <outline>
    <contour>
      <point x="332.0" y="0.0" type="line"/>
      <point x="592.0" y="0.0" type="line" smooth="yes"/>
      <point x="884.0" y="0.0"/>
      <point x="1010.0" y="117.0"/>
      <point x="1010.0" y="365.0" type="curve" smooth="yes"/>
      <point x="1010.0" y="397.0" type="line" smooth="yes"/>
      <point x="1010.0" y="573.5"/>
      <point x="940.0" y="675.0"/>
      <point x="748.5" y="699.0" type="curve"/>
      <point x="748.5" y="709.0" type="line"/>
      <point x="920.0" y="719.5"/>
      <point x="991.5" y="803.5"/>
      <point x="991.5" y="952.5" type="curve" smooth="yes"/>
      <point x="991.5" y="973.5" type="line" smooth="yes"/>
      <point x="991.5" y="1173.0"/>
      <point x="866.5" y="1278.0"/>
      <point x="571.5" y="1278.0" type="curve" smooth="yes"/>
      <point x="321.5" y="1278.0" type="line"/>
      <point x="321.5" y="1011.5" type="line"/>
      <point x="547.0" y="1011.5" type="line" smooth="yes"/>
      <point x="630.5" y="1011.5"/>
      <point x="662.0" y="976.5"/>
      <point x="662.0" y="899.5" type="curve" smooth="yes"/>
      <point x="662.0" y="885.0" type="line" smooth="yes"/>
      <point x="662.0" y="808.0"/>
      <point x="630.5" y="771.5"/>
      <point x="547.0" y="771.5" type="curve" smooth="yes"/>
      <point x="321.5" y="771.5" type="line"/>
      <point x="321.5" y="524.0" type="line"/>
      <point x="554.0" y="524.0" type="line" smooth="yes"/>
      <point x="642.5" y="524.0"/>
      <point x="675.0" y="488.5"/>
      <point x="675.0" y="410.5" type="curve" smooth="yes"/>
      <point x="675.0" y="385.0" type="line" smooth="yes"/>
      <point x="675.0" y="307.0"/>
      <point x="642.5" y="271.5"/>
      <point x="554.0" y="271.5" type="curve" smooth="yes"/>
      <point x="332.0" y="271.5" type="line"/>
    </contour>
    <contour>
      <point x="89.0" y="0.0" type="line"/>
      <point x="411.5" y="0.0" type="line"/>
      <point x="411.5" y="1278.0" type="line"/>
      <point x="89.0" y="1278.0" type="line"/>
    </contour>
  </outline>
</glyph>
<glyph name="C" format="2">
  <advance width="863.0"/>
  <unicode hex="0043"/>
  <anchor x="474.0" y="0.0" name="bottom"/>
  <anchor x="474.0" y="1278.0" name="top"/>
  <outline>
    <contour>
      <point x="522.5" y="-25.5" type="curve" smooth="yes"/>
      <point x="642.0" y="-25.5"/>
      <point x="737.5" y="7.0"/>
      <point x="796.0" y="43.5" type="curve"/>
      <point x="818.5" y="340.5" type="line"/>
      <point x="764.5" y="309.5"/>
      <point x="701.5" y="284.0"/>
      <point x="617.0" y="284.0" type="curve" smooth="yes"/>
      <point x="465.0" y="284.0"/>
      <point x="407.5" y="365.5"/>
      <point x="407.5" y="503.0" type="curve" smooth="yes"/>
      <point x="407.5" y="778.5" type="line" smooth="yes"/>
      <point x="407.5" y="917.0"/>
      <point x="463.5" y="999.5"/>
      <point x="605.5" y="999.5" type="curve" smooth="yes"/>
      <point x="691.0" y="999.5"/>
      <point x="754.5" y="974.0"/>
      <point x="809.5" y="944.5" type="curve"/>
      <point x="787.5" y="1237.0" type="line"/>
      <point x="728.5" y="1273.5"/>
      <point x="639.0" y="1303.5"/>
      <point x="519.5" y="1303.5" type="curve" smooth="yes"/>
      <point x="213.5" y="1303.5"/>
      <point x="61.5" y="1127.5"/>
      <point x="61.5" y="799.5" type="curve" smooth="yes"/>
      <point x="61.5" y="485.5" type="line" smooth="yes"/>
      <point x="61.5" y="152.0"/>
      <point x="207.5" y="-25.5"/>
    </contour>
  </outline>
</glyph>
<glyph name="D" format="2">
  <advance width="1084.5"/>
  <unicode hex="0044"/>
  <anchor x="524.0" y="0.0" name="bottom"/>
  <anchor x="542.5" y="639.0" name="center"/>
  <anchor x="524.0" y="1278.0" name="top"/>
  <outline>
    <contour>
      <point x="321.0" y="0.0" type="line"/>
      <point x="545.0" y="0.0" type="line" smooth="yes"/>
      <point x="874.0" y="0.0"/>
      <point x="1024.0" y="161.5"/>
      <point x="1024.0" y="459.0" type="curve" smooth="yes"/>
      <point x="1024.0" y="820.5" type="line" smooth="yes"/>
      <point x="1024.0" y="1116.5"/>
      <point x="871.0" y="1278.0"/>
      <point x="545.0" y="1278.0" type="curve" smooth="yes"/>
      <point x="321.0" y="1278.0" type="line"/>
      <point x="321.0" y="993.0" type="line"/>
      <point x="530.0" y="993.0" type="line" smooth="yes"/>
      <point x="637.0" y="993.0"/>
      <point x="685.5" y="936.5"/>
      <point x="685.5" y="821.0" type="curve" smooth="yes"/>
      <point x="685.5" y="460.0" type="line" smooth="yes"/>
      <point x="685.5" y="344.5"/>
      <point x="637.0" y="287.5"/>
      <point x="530.0" y="287.5" type="curve" smooth="yes"/>
      <point x="321.0" y="287.5" type="line"/>
    </contour>
    <contour>
      <point x="89.0" y="0.0" type="line"/>
      <point x="422.5" y="0.0" type="line"/>
      <point x="422.5" y="1278.0" type="line"/>
      <point x="89.0" y="1278.0" type="line"/>
    </contour>
  </outline>
</glyph>
<glyph name="E" format="2">
  <advance width="919.5"/>
  <unicode hex="0045"/>
  <anchor x="472.0" y="0.0" name="bottom"/>
  <anchor x="858.5" y="0.0" name="ogonek"/>
  <anchor x="472.0" y="1278.0" name="top"/>
  <anchor x="20.0" y="1278.0" name="topleft"/>
  <outline>
    <contour>
      <point x="89.0" y="0.0" type="line"/>
      <point x="420.0" y="0.0" type="line"/>
      <point x="420.0" y="1278.0" type="line"/>
      <point x="89.0" y="1278.0" type="line"/>
    </contour>
    <contour>
      <point x="246.5" y="0.0" type="line"/>
      <point x="855.5" y="0.0" type="line"/>
      <point x="855.5" y="290.5" type="line"/>
      <point x="246.5" y="290.5" type="line"/>
    </contour>
    <contour>
      <point x="298.0" y="509.0" type="line"/>
      <point x="837.5" y="509.0" type="line"/>
      <point x="837.5" y="787.0" type="line"/>
      <point x="298.0" y="787.0" type="line"/>
    </contour>
    <contour>
      <point x="246.5" y="991.0" type="line"/>
      <point x="851.0" y="991.0" type="line"/>
      <point x="851.0" y="1278.0" type="line"/>
      <point x="246.5" y="1278.0" type="line"/>
    </contour>
  </outline>
</glyph>
<glyph name="F" format="2">
  <advance width="873.5"/>
  <unicode hex="0046"/>
  <anchor x="437.5" y="0.0" name="bottom"/>
  <anchor x="437.5" y="1278.0" name="top"/>
  <outline>
    <contour>
      <point x="89.0" y="0.0" type="line"/>
      <point x="427.0" y="0.0" type="line"/>
      <point x="427.0" y="1278.0" type="line"/>
      <point x="89.0" y="1278.0" type="line"/>
    </contour>
    <contour>
      <point x="298.0" y="428.0" type="line"/>
      <point x="807.0" y="428.0" type="line"/>
      <point x="807.0" y="723.5" type="line"/>
      <point x="298.0" y="723.5" type="line"/>
    </contour>
    <contour>
      <point x="246.5" y="982.0" type="line"/>
      <point x="820.5" y="982.0" type="line"/>
      <point x="820.5" y="1278.0" type="line"/>
      <point x="246.5" y="1278.0" type="line"/>
    </contour>
  </outline>
</glyph>
<glyph name="G" format="2">
  <advance width="1071.5"/>
  <unicode hex="0047"/>
  <anchor x="537.0" y="0.0" name="bottom"/>
  <anchor x="537.0" y="1278.0" name="top"/>
  <outline>
    <contour>
      <point x="413.0" y="-25.5" type="curve" smooth="yes"/>
      <point x="599.0" y="-25.5"/>
      <point x="655.5" y="74.0"/>
      <point x="681.5" y="204.0" type="curve"/>
      <point x="991.0" y="204.0" type="line"/>
      <point x="991.0" y="762.5" type="line"/>
      <point x="554.5" y="762.5" type="line"/>
      <point x="554.5" y="505.5" type="line"/>
      <point x="732.5" y="506.5" type="line"/>
      <point x="685.5" y="614.0" type="line"/>
      <point x="685.5" y="349.5" type="line"/>
      <point x="664.0" y="304.0"/>
      <point x="624.5" y="269.5"/>
      <point x="553.0" y="269.5" type="curve" smooth="yes"/>
      <point x="448.5" y="269.5"/>
      <point x="402.5" y="331.5"/>
      <point x="402.5" y="448.0" type="curve" smooth="yes"/>
      <point x="402.5" y="750.0" type="line" smooth="yes"/>
      <point x="402.5" y="929.0"/>
      <point x="480.0" y="1007.5"/>
      <point x="669.0" y="1007.5" type="curve" smooth="yes"/>
      <point x="792.5" y="1007.5"/>
      <point x="888.5" y="972.0"/>
      <point x="963.5" y="936.0" type="curve"/>
      <point x="937.5" y="1226.0" type="line"/>
      <point x="861.5" y="1267.5"/>
      <point x="737.5" y="1303.5"/>
      <point x="590.0" y="1303.5" type="curve" smooth="yes"/>
      <point x="245.5" y="1303.5"/>
      <point x="61.5" y="1125.5"/>
      <point x="61.5" y="772.0" type="curve" smooth="yes"/>
      <point x="61.5" y="457.0" type="line" smooth="yes"/>
      <point x="61.5" y="154.0"/>
      <point x="168.5" y="-25.5"/>
    </contour>
    <contour>
      <point x="694.0" y="238.0" type="line"/>
      <point x="684.5" y="0.0" type="line"/>
      <point x="991.0" y="0.0" type="line"/>
      <point x="991.0" y="238.0" type="line"/>
    </contour>
  </outline>
</glyph>
<glyph name="H" format="2">
  <advance width="1134.0"/>
  <unicode hex="0048"/>
  <anchor x="567.5" y="0.0" name="bottom"/>
  <anchor x="567.5" y="639.0" name="center"/>
  <anchor x="567.5" y="1278.0" name="top"/>
  <anchor x="20.0" y="1278.0" name="topleft"/>
  <outline>
    <contour>
      <point x="430.5" y="0.0" type="line"/>
      <point x="430.5" y="1278.0" type="line"/>
      <point x="89.0" y="1278.0" type="line"/>
      <point x="89.0" y="0.0" type="line"/>
    </contour>
    <contour>
      <point x="1045.0" y="0.0" type="line"/>
      <point x="1045.0" y="1278.0" type="line"/>
      <point x="703.5" y="1278.0" type="line"/>
      <point x="703.5" y="0.0" type="line"/>
    </contour>
    <contour>
      <point x="298.5" y="795.0" type="line"/>
      <point x="298.5" y="506.0" type="line"/>
      <point x="819.5" y="506.0" type="line"/>
      <point x="819.5" y="795.0" type="line"/>
    </contour>
  </outline>
</glyph>
<glyph name="J" format="2">
  <advance width="704.0"/>
  <unicode hex="004A"/>
  <anchor x="355.0" y="0.0" name="bottom"/>
  <anchor x="449.5" y="1278.0" name="top"/>
  <outline>
    <contour>
      <point x="240.5" y="-19.0" type="curve" smooth="yes"/>
      <point x="518.5" y="-19.0"/>
      <point x="622.0" y="127.0"/>
      <point x="622.0" y="403.0" type="curve" smooth="yes"/>
      <point x="622.0" y="1278.0" type="line"/>
      <point x="280.5" y="1278.0" type="line"/>
      <point x="280.5" y="416.0" type="line" smooth="yes"/>
      <point x="280.5" y="323.5"/>
      <point x="254.5" y="275.0"/>
      <point x="153.5" y="275.0" type="curve" smooth="yes"/>
      <point x="110.5" y="275.0"/>
      <point x="70.5" y="284.0"/>
      <point x="28.0" y="298.5" type="curve"/>
      <point x="50.0" y="14.0" type="line"/>
      <point x="103.0" y="-7.0"/>
      <point x="172.0" y="-19.0"/>
    </contour>
  </outline>
</glyph>
<glyph name="K" format="2">
  <advance width="1065.0"/>
  <unicode hex="004B"/>
  <anchor x="550.5" y="0.0" name="bottom"/>
  <anchor x="550.5" y="1278.0" name="top"/>
  <outline>
    <contour>
      <point x="697.0" y="0.0" type="line"/>
      <point x="1070.0" y="0.0" type="line"/>
      <point x="731.5" y="716.5" type="line"/>
      <point x="731.5" y="642.0" type="line"/>
      <point x="1056.5" y="1278.0" type="line"/>
      <point x="690.0" y="1278.0" type="line"/>
      <point x="441.0" y="749.0" type="line"/>
      <point x="399.5" y="749.0" type="line"/>
      <point x="399.5" y="558.5" type="line"/>
      <point x="441.0" y="558.5" type="line"/>
    </contour>
    <contour>
      <point x="89.0" y="0.0" type="line"/>
      <point x="424.5" y="0.0" type="line"/>
      <point x="424.5" y="1278.0" type="line"/>
      <point x="89.0" y="1278.0" type="line"/>
    </contour>
  </outline>
</glyph>
<glyph name="L" format="2">
  <advance width="852.0"/>
  <unicode hex="004C"/>
  <anchor x="436.0" y="0.0" name="bottom"/>
  <anchor x="346.0" y="639.0" name="center"/>
  <anchor x="260.0" y="1278.0" name="top"/>
  <anchor x="557.0" y="1278.0" name="topright"/>
  <outline>
    <contour>
      <point x="430.5" y="0.0" type="line"/>
      <point x="430.5" y="1278.0" type="line"/>
      <point x="89.0" y="1278.0" type="line"/>
      <point x="89.0" y="0.0" type="line"/>
    </contour>
    <contour>
      <point x="298.0" y="294.5" type="line"/>
      <point x="298.0" y="0.0" type="line"/>
      <point x="809.0" y="0.0" type="line"/>
      <point x="809.0" y="294.5" type="line"/>
    </contour>
  </outline>
</glyph>
<glyph name="M" format="2">
  <advance width="1429.5"/>
  <unicode hex="004D"/>
  <anchor x="715.0" y="0.0" name="bottom"/>
  <anchor x="715.0" y="1278.0" name="top"/>
  <outline>
    <contour>
      <point x="82.5" y="0.0" type="line"/>
      <point x="403.0" y="0.0" type="line"/>
      <point x="405.5" y="333.5" type="line"/>
      <point x="404.5" y="872.0" type="line"/>
      <point x="418.0" y="872.0" type="line"/>
      <point x="575.0" y="149.0" type="line"/>
      <point x="854.5" y="149.0" type="line"/>
      <point x="1011.0" y="872.0" type="line"/>
      <point x="1024.0" y="872.0" type="line"/>
      <point x="1023.5" y="334.0" type="line"/>
      <point x="1026.5" y="0.0" type="line"/>
      <point x="1347.0" y="0.0" type="line"/>
      <point x="1324.0" y="1278.0" type="line"/>
      <point x="869.5" y="1278.0" type="line"/>
      <point x="721.5" y="570.0" type="line"/>
      <point x="710.5" y="570.0" type="line"/>
      <point x="560.5" y="1278.0" type="line"/>
      <point x="105.5" y="1278.0" type="line"/>
    </contour>
  </outline>
</glyph>
<glyph name="N" format="2">
  <advance width="1160.0"/>
  <unicode hex="004E"/>
  <anchor x="588.0" y="0.0" name="bottom"/>
  <anchor x="588.0" y="1278.0" name="top"/>
  <outline>
    <contour>
      <point x="542.5" y="1279.5" type="line"/>
      <point x="89.0" y="1279.5" type="line"/>
      <point x="89.0" y="0.0" type="line"/>
      <point x="403.5" y="0.0" type="line"/>
      <point x="403.5" y="326.5" type="line"/>
      <point x="385.0" y="918.0" type="line"/>
      <point x="397.0" y="918.0" type="line"/>
      <point x="627.0" y="0.0" type="line"/>
      <point x="1071.0" y="0.0" type="line"/>
      <point x="1071.0" y="1279.5" type="line"/>
      <point x="758.0" y="1279.5" type="line"/>
      <point x="758.0" y="962.0" type="line"/>
      <point x="776.5" y="382.0" type="line"/>
      <point x="764.5" y="382.0" type="line"/>
    </contour>
  </outline>
</glyph>
<glyph name="O" format="2">
  <advance width="1103.0"/>
  <unicode hex="004F"/>
  <anchor x="551.5" y="0.0" name="bottom"/>
  <anchor x="551.5" y="639.0" name="center"/>
  <anchor x="832.0" y="2.5" name="ogonek"/>
  <anchor x="551.5" y="1278.0" name="top"/>
  <anchor x="12.5" y="1278.0" name="topleft"/>
  <anchor x="1072.5" y="1278.0" name="topright"/>
  <outline>
    <contour>
      <point x="551.5" y="-27.5" type="curve" smooth="yes"/>
      <point x="880.0" y="-27.5"/>
      <point x="1041.5" y="144.0"/>
      <point x="1041.5" y="472.5" type="curve" smooth="yes"/>
      <point x="1041.5" y="797.5" type="line" smooth="yes"/>
      <point x="1041.5" y="1126.0"/>
      <point x="878.5" y="1303.5"/>
      <point x="551.5" y="1303.5" type="curve" smooth="yes"/>
      <point x="224.5" y="1303.5"/>
      <point x="61.5" y="1126.0"/>
      <point x="61.5" y="797.5" type="curve" smooth="yes"/>
      <point x="61.5" y="472.5" type="line" smooth="yes"/>
      <point x="61.5" y="144.0"/>
      <point x="223.0" y="-27.5"/>
    </contour>
    <contour>
      <point x="551.5" y="255.0" type="curve" smooth="yes"/>
      <point x="449.5" y="255.0"/>
      <point x="407.0" y="319.5"/>
      <point x="407.0" y="448.0" type="curve" smooth="yes"/>
      <point x="407.0" y="823.0" type="line" smooth="yes"/>
      <point x="407.0" y="956.0"/>
      <point x="449.5" y="1022.0"/>
      <point x="551.5" y="1022.0" type="curve" smooth="yes"/>
      <point x="653.0" y="1022.0"/>
      <point x="696.0" y="956.0"/>
      <point x="696.0" y="823.0" type="curve" smooth="yes"/>
      <point x="696.0" y="448.0" type="line" smooth="yes"/>
      <point x="696.0" y="319.5"/>
      <point x="653.0" y="255.0"/>
    </contour>
  </outline>
</glyph>
<glyph name="P" format="2">
  <advance width="1034.5"/>
  <unicode hex="0050"/>
  <anchor x="517.5" y="0.0" name="bottom"/>
  <anchor x="517.5" y="1278.0" name="top"/>
  <outline>
    <contour>
      <point x="308.5" y="342.0" type="line"/>
      <point x="552.0" y="342.0" type="line" smooth="yes"/>
      <point x="856.5" y="342.0"/>
      <point x="991.0" y="478.0"/>
      <point x="991.0" y="755.0" type="curve" smooth="yes"/>
      <point x="991.0" y="864.0" type="line" smooth="yes"/>
      <point x="991.0" y="1134.5"/>
      <point x="856.5" y="1278.0"/>
      <point x="549.0" y="1278.0" type="curve" smooth="yes"/>
      <point x="308.5" y="1278.0" type="line"/>
      <point x="308.5" y="999.5" type="line"/>
      <point x="527.5" y="999.5" type="line" smooth="yes"/>
      <point x="622.5" y="999.5"/>
      <point x="656.5" y="958.0"/>
      <point x="656.5" y="856.5" type="curve" smooth="yes"/>
      <point x="656.5" y="763.0" type="line" smooth="yes"/>
      <point x="656.5" y="661.5"/>
      <point x="622.5" y="621.0"/>
      <point x="527.5" y="621.0" type="curve" smooth="yes"/>
      <point x="308.5" y="621.0" type="line"/>
    </contour>
    <contour>
      <point x="89.0" y="0.0" type="line"/>
      <point x="421.5" y="0.0" type="line"/>
      <point x="421.5" y="383.0" type="line"/>
      <point x="419.5" y="543.0" type="line"/>
      <point x="419.5" y="1278.0" type="line"/>
      <point x="89.0" y="1278.0" type="line"/>
    </contour>
  </outline>
</glyph>
<glyph name="Q" format="2">
  <advance width="1105.5"/>
  <unicode hex="0051"/>
  <anchor x="553.5" y="0.0" name="bottom"/>
  <anchor x="553.5" y="1278.0" name="top"/>
  <outline>
    <contour>
      <point x="1095.5" y="-51.5" type="line"/>
      <point x="1095.5" y="236.5" type="line"/>
      <point x="800.5" y="225.5" type="line"/>
      <point x="800.5" y="237.5" type="line"/>
      <point x="963.0" y="258.5"/>
      <point x="1041.0" y="367.0"/>
      <point x="1041.0" y="561.0" type="curve" smooth="yes"/>
      <point x="1041.0" y="799.0" type="line" smooth="yes"/>
      <point x="1041.0" y="1126.5"/>
      <point x="878.0" y="1303.5"/>
      <point x="551.5" y="1303.5" type="curve" smooth="yes"/>
      <point x="224.5" y="1303.5"/>
      <point x="61.5" y="1126.5"/>
      <point x="61.5" y="798.0" type="curve" smooth="yes"/>
      <point x="61.5" y="481.0" type="line" smooth="yes"/>
      <point x="61.5" y="147.5"/>
      <point x="216.5" y="-10.0"/>
      <point x="618.0" y="-29.0" type="curve" smooth="yes"/>
    </contour>
    <contour>
      <point x="571.5" y="256.5" type="line" smooth="yes"/>
      <point x="466.0" y="258.5"/>
      <point x="407.0" y="327.5"/>
      <point x="407.0" y="452.5" type="curve" smooth="yes"/>
      <point x="407.0" y="822.0" type="line" smooth="yes"/>
      <point x="407.0" y="955.0"/>
      <point x="449.5" y="1021.0"/>
      <point x="551.5" y="1021.0" type="curve" smooth="yes"/>
      <point x="653.0" y="1021.0"/>
      <point x="696.0" y="955.0"/>
      <point x="696.0" y="822.0" type="curve" smooth="yes"/>
      <point x="696.0" y="468.0" type="line" smooth="yes"/>
      <point x="696.0" y="344.5"/>
      <point x="660.0" y="281.5"/>
      <point x="594.5" y="256.0" type="curve"/>
    </contour>
  </outline>
</glyph>
<glyph name="R" format="2">
  <advance width="1053.5"/>
  <unicode hex="0052"/>
  <anchor x="536.5" y="0.0" name="bottom"/>
  <anchor x="527.5" y="1278.0" name="top"/>
  <outline>
    <contour>
      <point x="670.5" y="0.0" type="line"/>
      <point x="1011.5" y="0.0" type="line"/>
      <point x="982.5" y="294.0" type="line" smooth="yes"/>
      <point x="961.5" y="498.0"/>
      <point x="912.5" y="607.0"/>
      <point x="675.5" y="622.0" type="curve"/>
      <point x="735.5" y="577.5" type="line"/>
      <point x="735.5" y="626.5" type="line"/>
      <point x="906.0" y="632.0"/>
      <point x="994.0" y="722.5"/>
      <point x="994.0" y="896.0" type="curve" smooth="yes"/>
      <point x="994.0" y="926.0" type="line" smooth="yes"/>
      <point x="994.0" y="1154.5"/>
      <point x="863.0" y="1278.0"/>
      <point x="566.5" y="1278.0" type="curve" smooth="yes"/>
      <point x="325.0" y="1278.0" type="line"/>
      <point x="325.0" y="1001.0" type="line"/>
      <point x="529.5" y="1001.0" type="line" smooth="yes"/>
      <point x="623.5" y="1001.0"/>
      <point x="658.0" y="959.5"/>
      <point x="658.0" y="859.0" type="curve" smooth="yes"/>
      <point x="658.0" y="817.5" type="line" smooth="yes"/>
      <point x="658.0" y="717.0"/>
      <point x="621.0" y="676.0"/>
      <point x="529.5" y="676.0" type="curve" smooth="yes"/>
      <point x="326.5" y="675.5" type="line"/>
      <point x="326.5" y="410.0" type="line"/>
      <point x="521.5" y="409.5" type="line" smooth="yes"/>
      <point x="611.5" y="409.5"/>
      <point x="647.5" y="368.0"/>
      <point x="654.0" y="269.0" type="curve" smooth="yes"/>
    </contour>
    <contour>
      <point x="89.0" y="0.0" type="line"/>
      <point x="420.0" y="0.0" type="line"/>
      <point x="420.0" y="455.0" type="line"/>
      <point x="418.0" y="587.5" type="line"/>
      <point x="418.0" y="1278.0" type="line"/>
      <point x="89.0" y="1278.0" type="line"/>
    </contour>
  </outline>
</glyph>
<glyph name="S" format="2">
  <advance width="906.0"/>
  <unicode hex="0053"/>
  <anchor x="442.5" y="0.0" name="bottom"/>
  <anchor x="442.5" y="1278.0" name="top"/>
  <outline>
    <contour>
      <point x="415.5" y="-25.5" type="curve" smooth="yes"/>
      <point x="717.0" y="-25.5"/>
      <point x="862.5" y="106.5"/>
      <point x="862.5" y="357.5" type="curve" smooth="yes"/>
      <point x="862.5" y="377.0" type="line" smooth="yes"/>
      <point x="862.5" y="583.0"/>
      <point x="763.5" y="659.0"/>
      <point x="569.0" y="756.0" type="curve" smooth="yes"/>
      <point x="428.0" y="828.0"/>
      <point x="384.5" y="863.0"/>
      <point x="384.5" y="923.0" type="curve" smooth="yes"/>
      <point x="384.5" y="927.0" type="line" smooth="yes"/>
      <point x="384.5" y="981.5"/>
      <point x="420.5" y="1011.0"/>
      <point x="527.5" y="1011.0" type="curve" smooth="yes"/>
      <point x="639.0" y="1011.0"/>
      <point x="735.0" y="978.0"/>
      <point x="811.5" y="939.0" type="curve"/>
      <point x="787.0" y="1227.5" type="line"/>
      <point x="710.0" y="1269.0"/>
      <point x="602.0" y="1303.5"/>
      <point x="454.0" y="1303.5" type="curve" smooth="yes"/>
      <point x="186.0" y="1303.5"/>
      <point x="40.0" y="1175.0"/>
      <point x="40.0" y="948.5" type="curve" smooth="yes"/>
      <point x="40.0" y="929.5" type="line" smooth="yes"/>
      <point x="40.0" y="728.0"/>
      <point x="151.5" y="633.0"/>
      <point x="347.0" y="534.5" type="curve" smooth="yes"/>
      <point x="467.5" y="473.5"/>
      <point x="517.0" y="445.5"/>
      <point x="517.0" y="377.5" type="curve" smooth="yes"/>
      <point x="517.0" y="367.0" type="line" smooth="yes"/>
      <point x="517.0" y="304.0"/>
      <point x="473.5" y="272.5"/>
      <point x="361.0" y="272.5" type="curve" smooth="yes"/>
      <point x="239.0" y="272.5"/>
      <point x="128.0" y="313.0"/>
      <point x="49.0" y="350.0" type="curve"/>
      <point x="74.0" y="44.5" type="line"/>
      <point x="152.5" y="8.5"/>
      <point x="270.5" y="-25.5"/>
    </contour>
  </outline>
</glyph>
<glyph name="T" format="2">
  <advance width="954.0"/>
  <unicode hex="0054"/>
  <anchor x="477.0" y="0.0" name="bottom"/>
  <anchor x="477.0" y="639.0" name="center"/>
  <anchor x="477.0" y="1278.0" name="top"/>
  <outline>
    <contour>
      <point x="306.5" y="0.0" type="line"/>
      <point x="648.0" y="0.0" type="line"/>
      <point x="648.0" y="1242.5" type="line"/>
      <point x="306.5" y="1242.5" type="line"/>
    </contour>
    <contour>
      <point x="38.5" y="985.0" type="line"/>
      <point x="915.5" y="985.0" type="line"/>
      <point x="915.5" y="1278.0" type="line"/>
      <point x="38.5" y="1278.0" type="line"/>
    </contour>
  </outline>
</glyph>
<glyph name="U" format="2">
  <advance width="1117.0"/>
  <unicode hex="0055"/>
  <anchor x="559.0" y="0.0" name="bottom"/>
  <anchor x="826.5" y="2.5" name="ogonek"/>
  <anchor x="559.0" y="1278.0" name="top"/>
  <anchor x="1118.0" y="1278.0" name="topright"/>
  <outline>
    <contour>
      <point x="559.0" y="-27.5" type="curve" smooth="yes"/>
      <point x="883.0" y="-27.5"/>
      <point x="1035.5" y="139.0"/>
      <point x="1035.5" y="457.0" type="curve" smooth="yes"/>
      <point x="1035.5" y="1278.0" type="line"/>
      <point x="694.0" y="1278.0" type="line"/>
      <point x="694.0" y="440.0" type="line" smooth="yes"/>
      <point x="694.0" y="317.5"/>
      <point x="655.0" y="259.5"/>
      <point x="559.0" y="259.5" type="curve" smooth="yes"/>
      <point x="462.0" y="259.5"/>
      <point x="423.0" y="317.5"/>
      <point x="423.0" y="440.0" type="curve" smooth="yes"/>
      <point x="423.0" y="1278.0" type="line"/>
      <point x="81.5" y="1278.0" type="line"/>
      <point x="81.5" y="457.0" type="line" smooth="yes"/>
      <point x="81.5" y="139.0"/>
      <point x="234.5" y="-27.5"/>
    </contour>
  </outline>
</glyph>
<glyph name="V" format="2">
  <advance width="1062.0"/>
  <unicode hex="0056"/>
  <anchor x="531.0" y="0.0" name="bottom"/>
  <anchor x="531.0" y="1278.0" name="top"/>
  <outline>
    <contour>
      <point x="270.0" y="0.0" type="line"/>
      <point x="792.5" y="0.0" type="line"/>
      <point x="1045.5" y="1278.0" type="line"/>
      <point x="701.0" y="1278.0" type="line"/>
      <point x="542.0" y="247.0" type="line"/>
      <point x="520.0" y="247.0" type="line"/>
      <point x="361.5" y="1278.0" type="line"/>
      <point x="16.5" y="1278.0" type="line"/>
    </contour>
  </outline>
</glyph>
<glyph name="W" format="2">
  <advance width="1523.5"/>
  <unicode hex="0057"/>
  <anchor x="762.0" y="0.0" name="bottom"/>
  <anchor x="762.0" y="1278.0" name="top"/>
  <outline>
    <contour>
      <point x="194.5" y="0.0" type="line"/>
      <point x="661.0" y="0.0" type="line"/>
      <point x="743.5" y="838.0" type="line"/>
      <point x="756.0" y="974.0" type="line"/>
      <point x="769.5" y="974.0" type="line"/>
      <point x="781.0" y="838.0" type="line"/>
      <point x="865.5" y="0.0" type="line"/>
      <point x="1332.0" y="0.0" type="line"/>
      <point x="1495.5" y="1278.0" type="line"/>
      <point x="1157.5" y="1278.0" type="line"/>
      <point x="1079.0" y="380.0" type="line"/>
      <point x="1070.5" y="283.5" type="line"/>
      <point x="1056.0" y="283.5" type="line"/>
      <point x="1045.5" y="380.5" type="line"/>
      <point x="950.0" y="1255.5" type="line"/>
      <point x="575.0" y="1255.5" type="line"/>
      <point x="478.0" y="380.5" type="line"/>
      <point x="467.5" y="283.5" type="line"/>
      <point x="453.0" y="283.5" type="line"/>
      <point x="445.5" y="380.5" type="line"/>
      <point x="369.5" y="1278.0" type="line"/>
      <point x="28.0" y="1278.0" type="line"/>
    </contour>
  </outline>
</glyph>
<glyph name="X" format="2">
  <advance width="1034.0"/>
  <unicode hex="0058"/>
  <anchor x="517.5" y="0.0" name="bottom"/>
  <anchor x="517.5" y="1278.0" name="top"/>
  <outline>
    <contour>
      <point x="15.0" y="0.0" type="line"/>
      <point x="360.5" y="0.0" type="line"/>
      <point x="508.5" y="475.0" type="line"/>
      <point x="525.0" y="475.0" type="line"/>
      <point x="673.5" y="0.0" type="line"/>
      <point x="1019.0" y="0.0" type="line"/>
      <point x="760.5" y="706.0" type="line"/>
      <point x="760.5" y="627.5" type="line"/>
      <point x="1008.5" y="1278.0" type="line"/>
      <point x="666.5" y="1278.0" type="line"/>
      <point x="525.0" y="838.0" type="line"/>
      <point x="508.5" y="838.0" type="line"/>
      <point x="367.5" y="1278.0" type="line"/>
      <point x="25.5" y="1278.0" type="line"/>
      <point x="272.0" y="627.5" type="line"/>
      <point x="272.0" y="706.0" type="line"/>
    </contour>
  </outline>
</glyph>
<glyph name="Y" format="2">
  <advance width="1013.0"/>
  <unicode hex="0059"/>
  <anchor x="506.5" y="0.0" name="bottom"/>
  <anchor x="506.5" y="1278.0" name="top"/>
  <anchor x="20.0" y="1278.0" name="topleft"/>
  <outline>
    <contour>
      <point x="352.5" y="315.0" type="line"/>
      <point x="662.5" y="315.0" type="line"/>
      <point x="1012.5" y="1278.0" type="line"/>
      <point x="665.5" y="1278.0" type="line"/>
      <point x="569.5" y="929.0" type="line"/>
      <point x="515.5" y="711.0" type="line"/>
      <point x="499.0" y="711.0" type="line"/>
      <point x="445.0" y="929.0" type="line"/>
      <point x="347.0" y="1278.0" type="line"/>
      <point x="0.0" y="1278.0" type="line"/>
    </contour>
    <contour>
      <point x="342.0" y="0.0" type="line"/>
      <point x="673.0" y="0.0" type="line"/>
      <point x="673.0" y="626.0" type="line"/>
      <point x="342.0" y="626.0" type="line"/>
    </contour>
  </outline>
</glyph>
<glyph name="Z" format="2">
  <advance width="919.0"/>
  <unicode hex="005A"/>
  <anchor x="460.0" y="0.0" name="bottom"/>
  <anchor x="460.0" y="639.0" name="center"/>
  <anchor x="460.0" y="1278.0" name="top"/>
  <outline>
    <contour>
      <point x="870.5" y="294.5" type="line"/>
      <point x="415.0" y="294.5" type="line"/>
      <point x="861.0" y="1008.5" type="line"/>
      <point x="861.0" y="1278.0" type="line"/>
      <point x="55.0" y="1278.0" type="line"/>
      <point x="55.0" y="985.0" type="line"/>
      <point x="490.5" y="985.0" type="line"/>
      <point x="47.0" y="271.5" type="line"/>
      <point x="47.0" y="0.0" type="line"/>
      <point x="870.5" y="0.0" type="line"/>
    </contour>
  </outline>
</glyph>
<glyph name="bracketleft" format="2">
  <advance width="589.0"/>
  <unicode hex="005B"/>
  <outline>
    <contour>
      <point x="92.0" y="-245.5" type="line"/>
      <point x="549.0" y="-245.5" type="line"/>
      <point x="549.0" y="0.5" type="line"/>
      <point x="402.5" y="0.5" type="line"/>
      <point x="402.5" y="1105.5" type="line"/>
      <point x="549.0" y="1105.5" type="line"/>
      <point x="549.0" y="1351.5" type="line"/>
      <point x="92.0" y="1351.5" type="line"/>
    </contour>
  </outline>
</glyph>
<glyph name="backslash" format="2">
  <advance width="778.5"/>
  <unicode hex="005C"/>
  <outline>
    <contour>
      <point x="790.5" y="-245.5" type="line"/>
      <point x="277.5" y="1351.5" type="line"/>
      <point x="-12.0" y="1351.5" type="line"/>
      <point x="501.0" y="-245.5" type="line"/>
    </contour>
  </outline>
</glyph>
<glyph name="bracketright" format="2">
  <advance width="589.0"/>
  <unicode hex="005D"/>
  <outline>
    <contour>
      <point x="497.0" y="-245.5" type="line"/>
      <point x="497.0" y="1351.5" type="line"/>
      <point x="40.0" y="1351.5" type="line"/>
      <point x="40.0" y="1105.5" type="line"/>
      <point x="186.5" y="1105.5" type="line"/>
      <point x="186.5" y="0.5" type="line"/>
      <point x="40.0" y="0.5" type="line"/>
      <point x="40.0" y="-245.5" type="line"/>
    </contour>
  </outline>
</glyph>
<glyph name="asciicircum" format="2">
  <advance width="807.0"/>
  <unicode hex="005E"/>
  <outline>
    <contour>
      <point x="189.5" y="1278.0" type="line"/>
      <point x="13.5" y="612.5" type="line"/>
      <point x="284.0" y="612.5" type="line"/>
      <point x="398.5" y="1109.5" type="line"/>
      <point x="409.5" y="1109.5" type="line"/>
      <point x="523.5" y="612.5" type="line"/>
      <point x="793.5" y="612.5" type="line"/>
      <point x="617.0" y="1278.0" type="line"/>
    </contour>
  </outline>
</glyph>
<glyph name="underscore" format="2">
  <advance width="745.5"/>
  <unicode hex="005F"/>
  <outline>
    <contour>
      <point x="22.5" y="-279.0" type="line"/>
      <point x="723.0" y="-279.0" type="line"/>
      <point x="723.0" y="-20.5" type="line"/>
      <point x="22.5" y="-20.5" type="line"/>
    </contour>
  </outline>
</glyph>
<glyph name="grave" format="2">
  <advance width="670.5"/>
  <unicode hex="0060"/>
  <anchor x="441.5" y="995.5" name="_top"/>
  <anchor x="441.5" y="1368.0" name="top"/>
  <outline>
    <contour>
      <point x="436.5" y="1371.0" type="line"/>
      <point x="106.5" y="1371.0" type="line"/>
      <point x="106.5" y="1369.0" type="line"/>
      <point x="319.5" y="1075.5" type="line"/>
      <point x="578.0" y="1075.5" type="line"/>
      <point x="578.0" y="1077.0" type="line"/>
    </contour>
  </outline>
</glyph>
<glyph name="a" format="2">
  <advance width="937.5"/>
  <unicode hex="0061"/>
  <anchor x="469.5" y="0.0" name="bottom"/>
  <anchor x="895.0" y="0.0" name="ogonek"/>
  <anchor x="469.5" y="995.5" name="top"/>
  <outline>
    <contour>
      <point x="546.5" y="0.0" type="line"/>
      <point x="868.0" y="0.0" type="line"/>
      <point x="868.0" y="609.0" type="line" smooth="yes"/>
      <point x="868.0" y="865.0"/>
      <point x="757.5" y="1017.5"/>
      <point x="450.5" y="1017.5" type="curve" smooth="yes"/>
      <point x="308.5" y="1017.5"/>
      <point x="191.0" y="981.5"/>
      <point x="108.5" y="941.0" type="curve"/>
      <point x="84.5" y="680.5" type="line"/>
      <point x="172.5" y="716.0"/>
      <point x="275.5" y="750.0"/>
      <point x="383.0" y="750.0" type="curve" smooth="yes"/>
      <point x="502.5" y="750.0"/>
      <point x="543.5" y="710.0"/>
      <point x="543.5" y="617.0" type="curve"/>
      <point x="548.0" y="587.0" type="line"/>
      <point x="548.0" y="238.0" type="line"/>
      <point x="557.0" y="233.5" type="line"/>
    </contour>
    <contour>
      <point x="295.5" y="-19.5" type="curve" smooth="yes"/>
      <point x="462.0" y="-19.5"/>
      <point x="519.5" y="71.5"/>
      <point x="544.5" y="194.5" type="curve"/>
      <point x="592.0" y="194.5" type="line"/>
      <point x="549.5" y="308.0" type="line"/>
      <point x="533.0" y="266.5"/>
      <point x="497.5" y="233.5"/>
      <point x="433.0" y="233.5" type="curve" smooth="yes"/>
      <point x="373.0" y="233.5"/>
      <point x="351.5" y="266.0"/>
      <point x="351.5" y="317.5" type="curve" smooth="yes"/>
      <point x="351.5" y="332.0" type="line" smooth="yes"/>
      <point x="351.5" y="382.0"/>
      <point x="376.0" y="405.5"/>
      <point x="440.0" y="417.0" type="curve" smooth="yes"/>
      <point x="600.5" y="445.5" type="line"/>
      <point x="573.0" y="647.0" type="line"/>
      <point x="371.0" y="614.0" type="line" smooth="yes"/>
      <point x="142.5" y="576.0"/>
      <point x="40.0" y="501.0"/>
      <point x="40.0" y="303.5" type="curve" smooth="yes"/>
      <point x="40.0" y="269.0" type="line" smooth="yes"/>
      <point x="40.0" y="83.5"/>
      <point x="126.0" y="-19.5"/>
    </contour>
  </outline>
</glyph>
<glyph name="b" format="2">
  <advance width="1008.5"/>
  <unicode hex="0062"/>
  <anchor x="510.5" y="0.0" name="bottom"/>
  <anchor x="510.5" y="1321.5" name="top"/>
  <outline>
    <contour>
      <point x="658.5" y="-19.5" type="curve" smooth="yes"/>
      <point x="866.0" y="-19.5"/>
      <point x="952.0" y="127.5"/>
      <point x="952.0" y="413.5" type="curve" smooth="yes"/>
      <point x="952.0" y="579.0" type="line" smooth="yes"/>
      <point x="952.0" y="867.5"/>
      <point x="863.0" y="1015.0"/>
      <point x="665.5" y="1015.0" type="curve" smooth="yes"/>
      <point x="503.0" y="1015.0"/>
      <point x="438.5" y="920.0"/>
      <point x="416.0" y="794.0" type="curve"/>
      <point x="343.5" y="794.0" type="line"/>
      <point x="401.5" y="665.5" type="line"/>
      <point x="417.0" y="713.0"/>
      <point x="459.0" y="748.0"/>
      <point x="516.0" y="748.0" type="curve" smooth="yes"/>
      <point x="588.5" y="748.0"/>
      <point x="618.5" y="700.5"/>
      <point x="618.5" y="600.0" type="curve" smooth="yes"/>
      <point x="618.5" y="406.0" type="line" smooth="yes"/>
      <point x="618.5" y="306.0"/>
      <point x="587.0" y="256.5"/>
      <point x="515.0" y="256.5" type="curve" smooth="yes"/>
      <point x="441.5" y="256.5"/>
      <point x="406.5" y="306.5"/>
      <point x="405.5" y="396.0" type="curve"/>
      <point x="326.0" y="204.0" type="line"/>
      <point x="410.0" y="204.0" type="line"/>
      <point x="434.0" y="73.0"/>
      <point x="501.0" y="-19.5"/>
    </contour>
    <contour>
      <point x="79.0" y="0.0" type="line"/>
      <point x="408.5" y="0.0" type="line"/>
      <point x="398.0" y="239.0" type="line"/>
      <point x="405.5" y="268.5" type="line"/>
      <point x="405.5" y="728.0" type="line"/>
      <point x="405.0" y="754.0" type="line"/>
      <point x="409.5" y="1070.0" type="line"/>
      <point x="409.5" y="1321.5" type="line"/>
      <point x="79.0" y="1321.5" type="line"/>
    </contour>
  </outline>
</glyph>
<glyph name="c" format="2">
  <advance width="772.0"/>
  <unicode hex="0063"/>
  <anchor x="425.0" y="0.0" name="bottom"/>
  <anchor x="425.0" y="995.5" name="top"/>
  <outline>
    <contour>
      <point x="461.0" y="-21.0" type="curve" smooth="yes"/>
      <point x="561.5" y="-21.0"/>
      <point x="652.0" y="1.5"/>
      <point x="712.5" y="33.5" type="curve"/>
      <point x="735.5" y="309.0" type="line"/>
      <point x="684.0" y="282.5"/>
      <point x="628.5" y="264.0"/>
      <point x="558.5" y="264.0" type="curve" smooth="yes"/>
      <point x="439.0" y="264.0"/>
      <point x="385.5" y="326.5"/>
      <point x="385.5" y="440.0" type="curve" smooth="yes"/>
      <point x="385.5" y="566.5" type="line" smooth="yes"/>
      <point x="385.5" y="677.5"/>
      <point x="431.5" y="738.0"/>
      <point x="549.5" y="738.0" type="curve" smooth="yes"/>
      <point x="620.0" y="738.0"/>
      <point x="676.0" y="718.0"/>
      <point x="726.0" y="691.5" type="curve"/>
      <point x="702.5" y="963.5" type="line"/>
      <point x="644.0" y="994.5"/>
      <point x="560.0" y="1017.0"/>
      <point x="461.0" y="1017.0" type="curve" smooth="yes"/>
      <point x="183.5" y="1017.0"/>
      <point x="53.0" y="853.5"/>
      <point x="53.0" y="575.5" type="curve" smooth="yes"/>
      <point x="53.0" y="423.5" type="line" smooth="yes"/>
      <point x="53.0" y="141.5"/>
      <point x="182.0" y="-21.0"/>
    </contour>
  </outline>
</glyph>
<glyph name="d" format="2">
  <advance width="1009.0"/>
  <unicode hex="0064"/>
  <anchor x="498.5" y="0.0" name="bottom"/>
  <anchor x="498.5" y="498.0" name="center"/>
  <anchor x="498.5" y="1321.5" name="top"/>
  <anchor x="1008.0" y="1321.5" name="topright"/>
  <outline>
    <contour>
      <point x="343.0" y="-19.5" type="curve" smooth="yes"/>
      <point x="511.0" y="-19.5"/>
      <point x="575.5" y="80.5"/>
      <point x="599.0" y="204.0" type="curve"/>
      <point x="672.5" y="204.0" type="line"/>
      <point x="607.0" y="337.5" type="line"/>
      <point x="590.5" y="289.0"/>
      <point x="552.5" y="256.5"/>
      <point x="498.0" y="256.5" type="curve" smooth="yes"/>
      <point x="422.5" y="256.5"/>
      <point x="390.0" y="304.5"/>
      <point x="390.0" y="405.0" type="curve" smooth="yes"/>
      <point x="390.0" y="601.5" type="line" smooth="yes"/>
      <point x="390.0" y="700.0"/>
      <point x="422.5" y="748.0"/>
      <point x="494.5" y="748.0" type="curve" smooth="yes"/>
      <point x="567.0" y="748.0"/>
      <point x="602.0" y="697.5"/>
      <point x="603.0" y="608.5" type="curve"/>
      <point x="670.5" y="794.0" type="line"/>
      <point x="592.0" y="794.0" type="line"/>
      <point x="567.5" y="925.5"/>
      <point x="503.5" y="1015.0"/>
      <point x="350.0" y="1015.0" type="curve" smooth="yes"/>
      <point x="143.5" y="1015.0"/>
      <point x="56.5" y="865.5"/>
      <point x="56.5" y="573.0" type="curve" smooth="yes"/>
      <point x="56.5" y="407.5" type="line" smooth="yes"/>
      <point x="56.5" y="125.5"/>
      <point x="146.0" y="-19.5"/>
    </contour>
    <contour>
      <point x="600.0" y="0.0" type="line"/>
      <point x="930.0" y="0.0" type="line"/>
      <point x="930.0" y="1321.5" type="line"/>
      <point x="599.5" y="1321.5" type="line"/>
      <point x="599.5" y="1070.0" type="line"/>
      <point x="603.0" y="773.5" type="line"/>
      <point x="603.0" y="730.0" type="line"/>
      <point x="603.0" y="284.5" type="line"/>
      <point x="610.5" y="241.5" type="line"/>
    </contour>
  </outline>
</glyph>
<glyph name="e" format="2">
  <advance width="943.5"/>
  <unicode hex="0065"/>
  <anchor x="484.0" y="0.0" name="bottom"/>
  <anchor x="845.0" y="10.0" name="ogonek"/>
  <anchor x="484.0" y="995.5" name="top"/>
  <outline>
    <contour>
      <point x="537.0" y="-20.5" type="curve" smooth="yes"/>
      <point x="665.0" y="-20.5"/>
      <point x="777.0" y="3.0"/>
      <point x="856.0" y="42.0" type="curve"/>
      <point x="879.0" y="292.0" type="line"/>
      <point x="795.5" y="263.0"/>
      <point x="702.0" y="245.0"/>
      <point x="603.5" y="245.0" type="curve" smooth="yes"/>
      <point x="424.0" y="245.0"/>
      <point x="371.0" y="304.5"/>
      <point x="371.0" y="398.5" type="curve" smooth="yes"/>
      <point x="371.0" y="463.5" type="line"/>
      <point x="368.5" y="507.5" type="line"/>
      <point x="368.5" y="622.0" type="line" smooth="yes"/>
      <point x="368.5" y="719.0"/>
      <point x="398.0" y="768.5"/>
      <point x="479.0" y="768.5" type="curve" smooth="yes"/>
      <point x="559.5" y="768.5"/>
      <point x="589.0" y="720.5"/>
      <point x="589.0" y="622.5" type="curve" smooth="yes"/>
      <point x="589.0" y="565.0"/>
      <point x="588.0" y="485.0"/>
      <point x="585.5" y="384.5" type="curve"/>
      <point x="878.5" y="384.5" type="line"/>
      <point x="888.5" y="436.0"/>
      <point x="893.0" y="496.0"/>
      <point x="893.0" y="552.5" type="curve" smooth="yes"/>
      <point x="893.0" y="598.0" type="line" smooth="yes"/>
      <point x="893.0" y="869.5"/>
      <point x="757.0" y="1020.0"/>
      <point x="479.0" y="1020.0" type="curve" smooth="yes"/>
      <point x="195.5" y="1020.0"/>
      <point x="53.0" y="861.5"/>
      <point x="53.0" y="566.0" type="curve" smooth="yes"/>
      <point x="53.0" y="442.0" type="line" smooth="yes"/>
      <point x="53.0" y="137.5"/>
      <point x="206.5" y="-20.5"/>
    </contour>
    <contour>
      <point x="243.0" y="384.5" type="line"/>
      <point x="810.0" y="384.5" type="line"/>
      <point x="810.0" y="590.5" type="line"/>
      <point x="243.0" y="590.5" type="line"/>
    </contour>
  </outline>
</glyph>
<glyph name="f" format="2">
  <advance width="678.0"/>
  <unicode hex="0066"/>
  <anchor x="339.5" y="0.0" name="bottom"/>
  <anchor x="339.5" y="1323.5" name="top"/>
  <outline>
    <contour>
      <point x="398.5" y="1355.0" type="curve" smooth="yes"/>
      <point x="187.5" y="1355.0"/>
      <point x="86.5" y="1279.0"/>
      <point x="86.5" y="1144.5" type="curve" smooth="yes"/>
      <point x="86.5" y="1140.0" type="line" smooth="yes"/>
      <point x="86.5" y="1051.0"/>
      <point x="144.0" y="994.5"/>
      <point x="218.5" y="970.5" type="curve"/>
      <point x="218.5" y="937.5" type="line"/>
      <point x="431.0" y="941.5" type="line"/>
      <point x="418.0" y="961.5"/>
      <point x="409.5" y="978.5"/>
      <point x="409.5" y="1006.0" type="curve" smooth="yes"/>
      <point x="409.5" y="1008.0" type="line" smooth="yes"/>
      <point x="409.5" y="1060.5"/>
      <point x="438.0" y="1091.0"/>
      <point x="532.0" y="1091.0" type="curve" smooth="yes"/>
      <point x="583.0" y="1091.0"/>
      <point x="627.5" y="1083.0"/>
      <point x="665.0" y="1073.5" type="curve"/>
      <point x="639.5" y="1316.0" type="line"/>
      <point x="582.0" y="1336.5"/>
      <point x="497.0" y="1355.0"/>
    </contour>
    <contour>
      <point x="116.5" y="0.0" type="line"/>
      <point x="445.0" y="0.0" type="line"/>
      <point x="445.0" y="871.5" type="line"/>
      <point x="116.5" y="871.5" type="line"/>
    </contour>
    <contour>
      <point x="12.5" y="699.0" type="line"/>
      <point x="642.0" y="699.0" type="line"/>
      <point x="666.0" y="963.0" type="line"/>
      <point x="389.5" y="963.0" type="line"/>
      <point x="264.5" y="960.5" type="line"/>
      <point x="12.5" y="963.0" type="line"/>
    </contour>
  </outline>
</glyph>
<glyph name="g" format="2">
  <advance width="941.5"/>
  <unicode hex="0067"/>
  <anchor x="471.0" y="-347.0" name="bottom"/>
  <anchor x="471.0" y="995.5" name="top"/>
  <outline>
    <contour>
      <point x="477.5" y="296.5" type="curve"/>
      <point x="751.5" y="296.5"/>
      <point x="878.0" y="401.0"/>
      <point x="878.0" y="574.0" type="curve" smooth="yes"/>
      <point x="878.0" y="583.0" type="line" smooth="yes"/>
      <point x="878.0" y="711.0"/>
      <point x="813.0" y="774.5"/>
      <point x="674.5" y="792.0" type="curve"/>
      <point x="674.5" y="802.0" type="line"/>
      <point x="920.5" y="795.0" type="line"/>
      <point x="920.5" y="1033.0" type="line"/>
      <point x="471.0" y="1010.5" type="line" smooth="yes"/>
      <point x="173.5" y="995.5"/>
      <point x="44.5" y="873.5"/>
      <point x="44.5" y="656.0" type="curve" smooth="yes"/>
      <point x="44.5" y="628.5" type="line" smooth="yes"/>
      <point x="44.5" y="416.0"/>
      <point x="194.0" y="296.5"/>
    </contour>
    <contour>
      <point x="457.0" y="-132.5" type="line" smooth="yes"/>
      <point x="354.0" y="-132.5"/>
      <point x="317.0" y="-103.5"/>
      <point x="317.0" y="-59.5" type="curve" smooth="yes"/>
      <point x="317.0" y="-58.0" type="line" smooth="yes"/>
      <point x="317.0" y="-21.5"/>
      <point x="340.5" y="2.0"/>
      <point x="381.0" y="11.5" type="curve"/>
      <point x="320.5" y="10.0" type="line"/>
      <point x="552.0" y="-20.0" type="line" smooth="yes"/>
      <point x="603.0" y="-27.0"/>
      <point x="637.5" y="-37.0"/>
      <point x="637.5" y="-73.0" type="curve" smooth="yes"/>
      <point x="637.5" y="-74.5" type="line" smooth="yes"/>
      <point x="637.5" y="-110.5"/>
      <point x="602.5" y="-132.5"/>
      <point x="498.5" y="-132.5" type="curve" smooth="yes"/>
    </contour>
    <contour>
      <point x="439.5" y="-378.0" type="curve" smooth="yes"/>
      <point x="488.5" y="-378.0" type="line" smooth="yes"/>
      <point x="769.5" y="-378.0"/>
      <point x="931.5" y="-279.0"/>
      <point x="931.5" y="-83.5" type="curve" smooth="yes"/>
      <point x="931.5" y="-74.5" type="line" smooth="yes"/>
      <point x="931.5" y="99.0"/>
      <point x="834.0" y="173.0"/>
      <point x="627.0" y="208.5" type="curve" smooth="yes"/>
      <point x="430.5" y="242.0" type="line" smooth="yes"/>
      <point x="385.5" y="249.5"/>
      <point x="365.5" y="255.5"/>
      <point x="365.5" y="277.5" type="curve" smooth="yes"/>
      <point x="365.5" y="278.0" type="line" smooth="yes"/>
      <point x="365.5" y="294.5"/>
      <point x="378.5" y="303.5"/>
      <point x="405.0" y="303.5" type="curve"/>
      <point x="446.5" y="303.5" type="line"/>
      <point x="250.5" y="361.0" type="line"/>
      <point x="250.5" y="322.0" type="line"/>
      <point x="133.5" y="319.0"/>
      <point x="67.5" y="273.5"/>
      <point x="67.5" y="182.0" type="curve" smooth="yes"/>
      <point x="67.5" y="180.0" type="line" smooth="yes"/>
      <point x="67.5" y="98.0"/>
      <point x="122.5" y="54.5"/>
      <point x="228.0" y="35.0" type="curve"/>
      <point x="228.0" y="25.5" type="line"/>
      <point x="105.5" y="17.5"/>
      <point x="26.5" y="-36.5"/>
      <point x="26.5" y="-153.5" type="curve" smooth="yes"/>
      <point x="26.5" y="-157.5" type="line" smooth="yes"/>
      <point x="26.5" y="-313.0"/>
      <point x="174.5" y="-378.0"/>
    </contour>
    <contour>
      <point x="467.5" y="520.5" type="curve" smooth="yes"/>
      <point x="391.0" y="520.5"/>
      <point x="359.0" y="559.0"/>
      <point x="359.0" y="634.0" type="curve" smooth="yes"/>
      <point x="359.0" y="661.0" type="line" smooth="yes"/>
      <point x="359.0" y="737.0"/>
      <point x="391.0" y="774.5"/>
      <point x="466.5" y="774.5" type="curve" smooth="yes"/>
      <point x="467.5" y="774.5" type="line" smooth="yes"/>
      <point x="542.5" y="774.5"/>
      <point x="574.0" y="735.5"/>
      <point x="574.0" y="661.0" type="curve" smooth="yes"/>
      <point x="574.0" y="634.0" type="line" smooth="yes"/>
      <point x="574.0" y="559.0"/>
      <point x="542.5" y="520.5"/>
    </contour>
  </outline>
</glyph>
<glyph name="h" format="2">
  <advance width="1014.5"/>
  <unicode hex="0068"/>
  <anchor x="508.0" y="0.0" name="bottom"/>
  <anchor x="508.0" y="662.0" name="center"/>
  <anchor x="244.5" y="1321.5" name="top"/>
  <outline>
    <contour>
      <point x="608.5" y="0.0" type="line"/>
      <point x="941.0" y="0.0" type="line"/>
      <point x="941.0" y="675.0" type="line" smooth="yes"/>
      <point x="941.0" y="902.0"/>
      <point x="860.0" y="1015.0"/>
      <point x="674.5" y="1015.0" type="curve" smooth="yes"/>
      <point x="505.0" y="1015.0"/>
      <point x="440.0" y="917.5"/>
      <point x="416.5" y="794.0" type="curve"/>
      <point x="335.0" y="794.0" type="line"/>
      <point x="409.0" y="661.0" type="line"/>
      <point x="424.5" y="705.0"/>
      <point x="460.5" y="739.5"/>
      <point x="515.5" y="739.5" type="curve" smooth="yes"/>
      <point x="587.0" y="739.5"/>
      <point x="608.5" y="695.0"/>
      <point x="608.5" y="615.0" type="curve" smooth="yes"/>
    </contour>
    <contour>
      <point x="79.0" y="0.0" type="line"/>
      <point x="411.5" y="0.0" type="line"/>
      <point x="411.5" y="694.0" type="line"/>
      <point x="405.0" y="736.5" type="line"/>
      <point x="409.5" y="1069.5" type="line"/>
      <point x="409.5" y="1321.5" type="line"/>
      <point x="79.0" y="1321.5" type="line"/>
    </contour>
  </outline>
</glyph>
<glyph name="i" format="2">
  <advance width="489.5"/>
  <unicode hex="0069"/>
  <anchor x="245.0" y="0.0" name="bottom"/>
  <anchor x="441.0" y="0.0" name="ogonek"/>
  <outline>
    <contour>
      <point x="79.0" y="0.0" type="line"/>
      <point x="411.0" y="0.0" type="line"/>
      <point x="411.0" y="995.5" type="line"/>
      <point x="79.0" y="995.5" type="line"/>
    </contour>
    <contour>
      <point x="245.0" y="1059.5" type="curve" smooth="yes"/>
      <point x="363.5" y="1059.5"/>
      <point x="417.5" y="1119.5"/>
      <point x="417.5" y="1215.0" type="curve" smooth="yes"/>
      <point x="417.5" y="1224.5" type="line" smooth="yes"/>
      <point x="417.5" y="1319.0"/>
      <point x="363.5" y="1380.0"/>
      <point x="245.0" y="1380.0" type="curve" smooth="yes"/>
      <point x="125.5" y="1380.0"/>
      <point x="72.5" y="1319.0"/>
      <point x="72.5" y="1224.5" type="curve" smooth="yes"/>
      <point x="72.5" y="1215.0" type="line" smooth="yes"/>
      <point x="72.5" y="1120.0"/>
      <point x="125.5" y="1059.5"/>
    </contour>
  </outline>
</glyph>
<glyph name="j" format="2">
  <advance width="498.5"/>
  <unicode hex="006A"/>
  <outline>
    <contour>
      <point x="87.5" y="167.0" type="line"/>
      <point x="420.0" y="167.0" type="line"/>
      <point x="420.0" y="995.5" type="line"/>
      <point x="87.5" y="995.5" type="line"/>
    </contour>
    <contour>
      <point x="254.0" y="1059.5" type="curve" smooth="yes"/>
      <point x="372.5" y="1059.5"/>
      <point x="426.5" y="1119.5"/>
      <point x="426.5" y="1215.0" type="curve" smooth="yes"/>
      <point x="426.5" y="1224.5" type="line" smooth="yes"/>
      <point x="426.5" y="1319.0"/>
      <point x="372.5" y="1380.0"/>
      <point x="254.0" y="1380.0" type="curve" smooth="yes"/>
      <point x="134.5" y="1380.0"/>
      <point x="81.5" y="1319.0"/>
      <point x="81.5" y="1224.5" type="curve" smooth="yes"/>
      <point x="81.5" y="1215.0" type="line" smooth="yes"/>
      <point x="81.5" y="1120.0"/>
      <point x="134.5" y="1059.5"/>
    </contour>
    <component base="jbottom"/>
  </outline>
</glyph>
<glyph name="k" format="2">
  <advance width="982.0"/>
  <unicode hex="006B"/>
  <anchor x="492.0" y="0.0" name="bottom"/>
  <anchor x="492.0" y="1321.5" name="top"/>
  <outline>
    <contour>
      <point x="619.5" y="0.0" type="line"/>
      <point x="984.0" y="0.0" type="line"/>
      <point x="706.0" y="559.0" type="line"/>
      <point x="706.0" y="493.5" type="line"/>
      <point x="973.5" y="995.5" type="line"/>
      <point x="617.0" y="995.5" type="line"/>
      <point x="421.5" y="604.5" type="line"/>
      <point x="374.0" y="604.5" type="line"/>
      <point x="374.0" y="430.0" type="line"/>
      <point x="421.5" y="430.0" type="line"/>
    </contour>
    <contour>
      <point x="79.0" y="0.0" type="line"/>
      <point x="410.5" y="0.0" type="line"/>
      <point x="410.5" y="1321.5" type="line"/>
      <point x="79.0" y="1321.5" type="line"/>
    </contour>
  </outline>
</glyph>
<glyph name="l" format="2">
  <advance width="490.5"/>
  <unicode hex="006C"/>
  <anchor x="246.0" y="0.0" name="bottom"/>
  <anchor x="246.0" y="662.0" name="center"/>
  <anchor x="246.0" y="1321.5" name="top"/>
  <anchor x="489.5" y="1321.5" name="topright"/>
  <outline>
    <contour>
      <point x="79.0" y="0.0" type="line"/>
      <point x="411.5" y="0.0" type="line"/>
      <point x="411.5" y="1321.5" type="line"/>
      <point x="79.0" y="1321.5" type="line"/>
    </contour>
  </outline>
</glyph>
<glyph name="m" format="2">
  <advance width="1505.0"/>
  <unicode hex="006D"/>
  <anchor x="751.5" y="0.0" name="bottom"/>
  <anchor x="751.5" y="995.5" name="top"/>
  <outline>
    <contour>
      <point x="1102.0" y="0.0" type="line"/>
      <point x="1431.5" y="0.0" type="line"/>
      <point x="1431.5" y="680.0" type="line" smooth="yes"/>
      <point x="1431.5" y="903.5"/>
      <point x="1353.0" y="1015.0"/>
      <point x="1172.0" y="1015.0" type="curve" smooth="yes"/>
      <point x="1003.5" y="1015.0"/>
      <point x="939.5" y="913.0"/>
      <point x="916.5" y="791.0" type="curve"/>
      <point x="889.5" y="791.0" type="line"/>
      <point x="916.5" y="660.0" type="line"/>
      <point x="929.0" y="706.0"/>
      <point x="963.5" y="739.5"/>
      <point x="1015.0" y="739.5" type="curve" smooth="yes"/>
      <point x="1081.5" y="739.5"/>
      <point x="1102.0" y="697.0"/>
      <point x="1102.0" y="621.0" type="curve" smooth="yes"/>
    </contour>
    <contour>
      <point x="79.0" y="0.0" type="line"/>
      <point x="408.5" y="0.0" type="line"/>
      <point x="408.5" y="744.5" type="line"/>
      <point x="394.5" y="749.0" type="line"/>
      <point x="405.5" y="995.5" type="line"/>
      <point x="79.0" y="995.5" type="line"/>
    </contour>
    <contour>
      <point x="590.5" y="0.0" type="line"/>
      <point x="920.0" y="0.0" type="line"/>
      <point x="920.0" y="661.0" type="line" smooth="yes"/>
      <point x="920.0" y="693.0"/>
      <point x="914.0" y="735.5"/>
      <point x="911.0" y="762.0" type="curve"/>
      <point x="894.0" y="927.5"/>
      <point x="820.0" y="1015.0"/>
      <point x="660.5" y="1015.0" type="curve" smooth="yes"/>
      <point x="497.0" y="1015.0"/>
      <point x="432.5" y="918.5"/>
      <point x="407.0" y="794.0" type="curve"/>
      <point x="351.0" y="794.0" type="line"/>
      <point x="405.5" y="661.0" type="line"/>
      <point x="418.5" y="706.0"/>
      <point x="453.0" y="739.5"/>
      <point x="504.5" y="739.5" type="curve" smooth="yes"/>
      <point x="570.0" y="739.5"/>
      <point x="590.5" y="697.0"/>
      <point x="590.5" y="621.0" type="curve" smooth="yes"/>
    </contour>
  </outline>
</glyph>
<glyph name="n" format="2">
  <advance width="1014.5"/>
  <unicode hex="006E"/>
  <anchor x="508.0" y="0.0" name="bottom"/>
  <anchor x="508.0" y="995.5" name="top"/>
  <outline>
    <contour>
      <point x="608.5" y="0.0" type="line"/>
      <point x="941.0" y="0.0" type="line"/>
      <point x="941.0" y="675.0" type="line" smooth="yes"/>
      <point x="941.0" y="902.0"/>
      <point x="860.0" y="1015.0"/>
      <point x="673.5" y="1015.0" type="curve" smooth="yes"/>
      <point x="501.5" y="1015.0"/>
      <point x="435.0" y="916.5"/>
      <point x="410.0" y="794.0" type="curve"/>
      <point x="350.0" y="794.0" type="line"/>
      <point x="408.5" y="661.0" type="line"/>
      <point x="424.0" y="705.0"/>
      <point x="460.5" y="739.5"/>
      <point x="515.5" y="739.5" type="curve" smooth="yes"/>
      <point x="586.5" y="739.5"/>
      <point x="608.5" y="695.0"/>
      <point x="608.5" y="615.0" type="curve" smooth="yes"/>
    </contour>
    <contour>
      <point x="79.0" y="0.0" type="line"/>
      <point x="411.5" y="0.0" type="line"/>
      <point x="411.5" y="739.0" type="line"/>
      <point x="397.5" y="757.0" type="line"/>
      <point x="408.5" y="995.5" type="line"/>
      <point x="79.0" y="995.5" type="line"/>
    </contour>
  </outline>
</glyph>
<glyph name="o" format="2">
  <advance width="977.5"/>
  <unicode hex="006F"/>
  <anchor x="489.5" y="0.0" name="bottom"/>
  <anchor x="489.5" y="498.0" name="center"/>
  <anchor x="756.0" y="10.0" name="ogonek"/>
  <anchor x="489.5" y="995.5" name="top"/>
  <anchor x="976.0" y="995.5" name="topright"/>
  <outline>
    <contour>
      <point x="489.0" y="-25.0" type="curve" smooth="yes"/>
      <point x="778.5" y="-25.0"/>
      <point x="924.5" y="131.5"/>
      <point x="924.5" y="413.5" type="curve"/>
      <point x="924.5" y="577.5" type="line"/>
      <point x="924.5" y="862.5"/>
      <point x="777.5" y="1020.5"/>
      <point x="489.0" y="1020.5" type="curve" smooth="yes"/>
      <point x="200.5" y="1020.5"/>
      <point x="53.0" y="862.5"/>
      <point x="53.0" y="577.5" type="curve"/>
      <point x="53.0" y="413.5" type="line"/>
      <point x="53.0" y="131.5"/>
      <point x="199.5" y="-25.0"/>
    </contour>
    <contour>
      <point x="489.0" y="240.0" type="curve" smooth="yes"/>
      <point x="416.0" y="240.0"/>
      <point x="383.5" y="290.0"/>
      <point x="383.5" y="388.5" type="curve" smooth="yes"/>
      <point x="383.5" y="603.0" type="line" smooth="yes"/>
      <point x="383.5" y="705.5"/>
      <point x="416.0" y="755.5"/>
      <point x="489.0" y="755.5" type="curve" smooth="yes"/>
      <point x="562.0" y="755.5"/>
      <point x="594.0" y="705.5"/>
      <point x="594.0" y="603.0" type="curve" smooth="yes"/>
      <point x="594.0" y="388.5" type="line" smooth="yes"/>
      <point x="594.0" y="290.0"/>
      <point x="562.0" y="240.0"/>
    </contour>
  </outline>
</glyph>
<glyph name="p" format="2">
  <advance width="1008.5"/>
  <unicode hex="0070"/>
  <anchor x="510.5" y="0.0" name="bottom"/>
  <anchor x="510.5" y="995.5" name="top"/>
  <outline>
    <contour>
      <point x="659.0" y="-19.5" type="curve" smooth="yes"/>
      <point x="864.5" y="-19.5"/>
      <point x="952.0" y="127.5"/>
      <point x="952.0" y="416.0" type="curve" smooth="yes"/>
      <point x="952.0" y="583.0" type="line" smooth="yes"/>
      <point x="952.0" y="869.0"/>
      <point x="863.0" y="1015.0"/>
      <point x="665.5" y="1015.0" type="curve" smooth="yes"/>
      <point x="498.0" y="1015.0"/>
      <point x="433.0" y="918.0"/>
      <point x="410.0" y="794.0" type="curve"/>
      <point x="327.0" y="794.0" type="line"/>
      <point x="401.5" y="665.5" type="line"/>
      <point x="417.0" y="713.0"/>
      <point x="459.0" y="748.0"/>
      <point x="516.0" y="748.0" type="curve" smooth="yes"/>
      <point x="588.5" y="748.0"/>
      <point x="618.5" y="700.5"/>
      <point x="618.5" y="600.0" type="curve" smooth="yes"/>
      <point x="618.5" y="406.0" type="line" smooth="yes"/>
      <point x="618.5" y="306.0"/>
      <point x="587.0" y="256.5"/>
      <point x="515.0" y="256.5" type="curve" smooth="yes"/>
      <point x="441.5" y="256.5"/>
      <point x="406.5" y="306.5"/>
      <point x="405.5" y="396.0" type="curve"/>
      <point x="342.5" y="204.0" type="line"/>
      <point x="413.5" y="204.0" type="line"/>
      <point x="436.0" y="73.0"/>
      <point x="503.0" y="-19.5"/>
    </contour>
    <contour>
      <point x="79.0" y="-347.0" type="line"/>
      <point x="409.5" y="-347.0" type="line"/>
      <point x="409.5" y="-38.5" type="line"/>
      <point x="402.5" y="241.5" type="line"/>
      <point x="405.5" y="286.0" type="line"/>
      <point x="405.5" y="713.5" type="line"/>
      <point x="396.0" y="726.5" type="line"/>
      <point x="408.5" y="995.5" type="line"/>
      <point x="79.0" y="995.5" type="line"/>
    </contour>
  </outline>
</glyph>
<glyph name="q" format="2">
  <advance width="1009.0"/>
  <unicode hex="0071"/>
  <anchor x="498.5" y="0.0" name="bottom"/>
  <anchor x="498.5" y="995.5" name="top"/>
  <outline>
    <contour>
      <point x="343.0" y="-19.5" type="curve" smooth="yes"/>
      <point x="508.0" y="-19.5"/>
      <point x="573.0" y="80.5"/>
      <point x="595.0" y="204.0" type="curve"/>
      <point x="689.0" y="204.0" type="line"/>
      <point x="607.0" y="337.5" type="line"/>
      <point x="590.5" y="289.0"/>
      <point x="552.5" y="256.5"/>
      <point x="498.0" y="256.5" type="curve" smooth="yes"/>
      <point x="422.5" y="256.5"/>
      <point x="390.0" y="304.5"/>
      <point x="390.0" y="405.0" type="curve" smooth="yes"/>
      <point x="390.0" y="601.5" type="line" smooth="yes"/>
      <point x="390.0" y="700.0"/>
      <point x="422.5" y="748.0"/>
      <point x="494.5" y="748.0" type="curve" smooth="yes"/>
      <point x="567.0" y="748.0"/>
      <point x="602.0" y="697.5"/>
      <point x="603.0" y="608.5" type="curve"/>
      <point x="684.0" y="794.0" type="line"/>
      <point x="599.0" y="794.0" type="line"/>
      <point x="575.5" y="923.5"/>
      <point x="508.5" y="1015.0"/>
      <point x="350.0" y="1015.0" type="curve" smooth="yes"/>
      <point x="143.5" y="1015.0"/>
      <point x="56.5" y="865.5"/>
      <point x="56.5" y="579.5" type="curve" smooth="yes"/>
      <point x="56.5" y="407.5" type="line" smooth="yes"/>
      <point x="56.5" y="125.5"/>
      <point x="146.0" y="-19.5"/>
    </contour>
    <contour>
      <point x="599.5" y="-347.0" type="line"/>
      <point x="930.0" y="-347.0" type="line"/>
      <point x="930.0" y="995.5" type="line"/>
      <point x="600.0" y="995.5" type="line"/>
      <point x="610.5" y="763.5" type="line"/>
      <point x="603.0" y="727.0" type="line"/>
      <point x="603.0" y="297.5" type="line"/>
      <point x="606.0" y="230.5" type="line"/>
      <point x="599.5" y="-38.5" type="line"/>
    </contour>
  </outline>
</glyph>
<glyph name="r" format="2">
  <advance width="700.5"/>
  <unicode hex="0072"/>
  <anchor x="245.0" y="0.0" name="bottom"/>
  <anchor x="368.5" y="995.5" name="top"/>
  <outline>
    <contour>
      <point x="408.0" y="554.5" type="line"/>
      <point x="442.5" y="614.5"/>
      <point x="511.5" y="649.5"/>
      <point x="615.0" y="649.5" type="curve" smooth="yes"/>
      <point x="640.0" y="649.5"/>
      <point x="668.5" y="647.5"/>
      <point x="686.0" y="644.5" type="curve"/>
      <point x="674.5" y="1003.5" type="line"/>
      <point x="659.0" y="1005.5"/>
      <point x="647.0" y="1007.0"/>
      <point x="633.0" y="1007.0" type="curve" smooth="yes"/>
      <point x="479.0" y="1007.0"/>
      <point x="404.5" y="911.5"/>
      <point x="383.5" y="755.0" type="curve"/>
      <point x="299.0" y="755.0" type="line"/>
    </contour>
    <contour>
      <point x="79.0" y="0.0" type="line"/>
      <point x="411.5" y="0.0" type="line"/>
      <point x="411.5" y="679.0" type="line"/>
      <point x="368.5" y="679.0" type="line"/>
      <point x="382.0" y="995.5" type="line"/>
      <point x="79.0" y="995.5" type="line"/>
    </contour>
  </outline>
</glyph>
<glyph name="s" format="2">
  <advance width="805.5"/>
  <unicode hex="0073"/>
  <anchor x="398.0" y="0.0" name="bottom"/>
  <anchor x="395.0" y="995.5" name="top"/>
  <outline>
    <contour>
      <point x="380.5" y="-20.0" type="curve" smooth="yes"/>
      <point x="650.0" y="-20.0"/>
      <point x="775.0" y="88.0"/>
      <point x="775.0" y="297.0" type="curve" smooth="yes"/>
      <point x="775.0" y="306.0" type="line" smooth="yes"/>
      <point x="775.0" y="475.0"/>
      <point x="694.5" y="536.0"/>
      <point x="508.5" y="599.5" type="curve" smooth="yes"/>
      <point x="393.0" y="640.0"/>
      <point x="353.5" y="660.0"/>
      <point x="353.5" y="699.5" type="curve" smooth="yes"/>
      <point x="353.5" y="702.5" type="line" smooth="yes"/>
      <point x="353.5" y="734.5"/>
      <point x="377.5" y="751.5"/>
      <point x="462.5" y="751.5" type="curve" smooth="yes"/>
      <point x="564.0" y="751.5"/>
      <point x="659.0" y="722.5"/>
      <point x="734.0" y="689.5" type="curve"/>
      <point x="710.5" y="951.0" type="line"/>
      <point x="643.5" y="985.5"/>
      <point x="538.0" y="1016.0"/>
      <point x="413.0" y="1016.0" type="curve" smooth="yes"/>
      <point x="165.0" y="1016.0"/>
      <point x="32.5" y="916.5"/>
      <point x="32.5" y="721.0" type="curve" smooth="yes"/>
      <point x="32.5" y="711.5" type="line" smooth="yes"/>
      <point x="32.5" y="566.5"/>
      <point x="100.0" y="483.0"/>
      <point x="282.0" y="417.0" type="curve" smooth="yes"/>
      <point x="411.0" y="365.5"/>
      <point x="449.5" y="353.5"/>
      <point x="449.5" y="309.5" type="curve" smooth="yes"/>
      <point x="449.5" y="306.5" type="line" smooth="yes"/>
      <point x="449.5" y="270.5"/>
      <point x="424.0" y="251.5"/>
      <point x="340.0" y="251.5" type="curve" smooth="yes"/>
      <point x="224.0" y="251.5"/>
      <point x="125.5" y="286.5"/>
      <point x="40.5" y="322.5" type="curve"/>
      <point x="64.0" y="41.5" type="line"/>
      <point x="140.0" y="8.5"/>
      <point x="247.5" y="-20.0"/>
    </contour>
  </outline>
</glyph>
<glyph name="t" format="2">
  <advance width="701.5"/>
  <unicode hex="0074"/>
  <anchor x="382.0" y="0.0" name="bottom"/>
  <anchor x="351.0" y="498.0" name="center"/>
  <anchor x="287.5" y="1220.0" name="top"/>
  <anchor x="519.5" y="1434.0" name="topright"/>
  <outline>
    <contour>
      <point x="432.5" y="-19.0" type="curve" smooth="yes"/>
      <point x="526.5" y="-19.0"/>
      <point x="602.0" y="-1.0"/>
      <point x="660.0" y="27.0" type="curve"/>
      <point x="684.5" y="299.5" type="line"/>
      <point x="646.5" y="285.5"/>
      <point x="601.5" y="274.0"/>
      <point x="555.0" y="274.0" type="curve" smooth="yes"/>
      <point x="468.5" y="274.0"/>
      <point x="442.0" y="305.0"/>
      <point x="442.0" y="376.0" type="curve" smooth="yes"/>
      <point x="442.0" y="920.0" type="line"/>
      <point x="114.0" y="920.0" type="line"/>
      <point x="114.0" y="309.0" type="line" smooth="yes"/>
      <point x="114.0" y="93.0"/>
      <point x="202.0" y="-19.0"/>
    </contour>
    <contour>
      <point x="10.0" y="732.0" type="line"/>
      <point x="652.5" y="732.0" type="line"/>
      <point x="677.0" y="995.5" type="line"/>
      <point x="10.0" y="995.5" type="line"/>
    </contour>
    <contour>
      <point x="119.5" y="974.5" type="line"/>
      <point x="433.0" y="974.5" type="line"/>
      <point x="444.0" y="1244.0" type="line"/>
      <point x="119.0" y="1210.5" type="line"/>
    </contour>
  </outline>
</glyph>
<glyph name="u" format="2">
  <advance width="1014.5"/>
  <unicode hex="0075"/>
  <anchor x="508.0" y="0.0" name="bottom"/>
  <anchor x="965.5" y="0.0" name="ogonek"/>
  <anchor x="508.0" y="995.5" name="top"/>
  <anchor x="1005.0" y="995.5" name="topright"/>
  <outline>
    <contour>
      <point x="406.0" y="995.5" type="line"/>
      <point x="73.5" y="995.5" type="line"/>
      <point x="73.5" y="320.5" type="line" smooth="yes"/>
      <point x="73.5" y="93.5"/>
      <point x="154.5" y="-19.5"/>
      <point x="341.0" y="-19.5" type="curve" smooth="yes"/>
      <point x="513.0" y="-19.5"/>
      <point x="579.5" y="79.0"/>
      <point x="604.5" y="201.5" type="curve"/>
      <point x="664.5" y="201.5" type="line"/>
      <point x="606.0" y="334.5" type="line"/>
      <point x="590.5" y="290.5"/>
      <point x="554.0" y="256.0"/>
      <point x="499.0" y="256.0" type="curve" smooth="yes"/>
      <point x="428.0" y="256.0"/>
      <point x="406.0" y="300.5"/>
      <point x="406.0" y="380.5" type="curve" smooth="yes"/>
    </contour>
    <contour>
      <point x="935.5" y="995.5" type="line"/>
      <point x="603.0" y="995.5" type="line"/>
      <point x="603.0" y="256.5" type="line"/>
      <point x="617.0" y="238.5" type="line"/>
      <point x="606.0" y="0.0" type="line"/>
      <point x="935.5" y="0.0" type="line"/>
    </contour>
  </outline>
</glyph>
<glyph name="v" format="2">
  <advance width="942.0"/>
  <unicode hex="0076"/>
  <anchor x="471.0" y="0.0" name="bottom"/>
  <anchor x="471.0" y="995.5" name="top"/>
  <outline>
    <contour>
      <point x="484.0" y="218.0" type="line"/>
      <point x="462.0" y="218.0" type="line"/>
      <point x="352.5" y="995.5" type="line"/>
      <point x="14.5" y="995.5" type="line"/>
      <point x="205.0" y="0.0" type="line"/>
      <point x="738.5" y="0.0" type="line"/>
      <point x="927.5" y="995.5" type="line"/>
      <point x="593.5" y="995.5" type="line"/>
    </contour>
  </outline>
</glyph>
<glyph name="w" format="2">
  <advance width="1406.0"/>
  <unicode hex="0077"/>
  <anchor x="703.5" y="0.0" name="bottom"/>
  <anchor x="703.5" y="995.5" name="top"/>
  <outline>
    <contour>
      <point x="164.5" y="0.0" type="line"/>
      <point x="626.0" y="0.0" type="line"/>
      <point x="690.5" y="633.0" type="line"/>
      <point x="699.0" y="726.5" type="line"/>
      <point x="711.5" y="726.5" type="line"/>
      <point x="719.0" y="633.0" type="line"/>
      <point x="781.0" y="0.0" type="line"/>
      <point x="1242.0" y="0.0" type="line"/>
      <point x="1386.5" y="995.5" type="line"/>
      <point x="1064.0" y="995.5" type="line"/>
      <point x="985.5" y="234.0" type="line"/>
      <point x="970.0" y="234.0" type="line"/>
      <point x="892.0" y="975.0" type="line"/>
      <point x="516.5" y="975.0" type="line"/>
      <point x="439.0" y="234.0" type="line"/>
      <point x="422.0" y="234.0" type="line"/>
      <point x="348.0" y="995.5" type="line"/>
      <point x="19.5" y="995.5" type="line"/>
    </contour>
  </outline>
</glyph>
<glyph name="x" format="2">
  <advance width="948.5"/>
  <unicode hex="0078"/>
  <anchor x="474.5" y="0.0" name="bottom"/>
  <anchor x="474.5" y="995.5" name="top"/>
  <outline>
    <contour>
      <point x="12.0" y="0.0" type="line"/>
      <point x="353.5" y="0.0" type="line"/>
      <point x="466.0" y="354.0" type="line"/>
      <point x="483.5" y="354.0" type="line"/>
      <point x="595.0" y="0.0" type="line"/>
      <point x="936.5" y="0.0" type="line"/>
      <point x="721.0" y="567.0" type="line"/>
      <point x="721.0" y="471.0" type="line"/>
      <point x="931.5" y="995.5" type="line"/>
      <point x="589.5" y="995.5" type="line"/>
      <point x="483.5" y="654.5" type="line"/>
      <point x="466.0" y="654.5" type="line"/>
      <point x="359.5" y="995.5" type="line"/>
      <point x="17.0" y="995.5" type="line"/>
      <point x="228.0" y="471.0" type="line"/>
      <point x="228.0" y="567.0" type="line"/>
    </contour>
  </outline>
</glyph>
<glyph name="y" format="2">
  <advance width="942.5"/>
  <unicode hex="0079"/>
  <anchor x="668.5" y="-188.0" name="bottom"/>
  <anchor x="471.5" y="995.5" name="top"/>
  <outline>
    <contour>
      <point x="621.5" y="258.5" type="line"/>
      <point x="448.5" y="258.5" type="line"/>
      <point x="351.0" y="995.5" type="line"/>
      <point x="14.5" y="995.5" type="line"/>
      <point x="208.0" y="39.0" type="line"/>
      <point x="586.0" y="39.0" type="line"/>
      <point x="423.0" y="148.5" type="line"/>
      <point x="307.0" y="-347.0" type="line"/>
      <point x="632.5" y="-347.0" type="line"/>
      <point x="928.0" y="995.5" type="line"/>
      <point x="592.5" y="995.5" type="line"/>
      <point x="452.5" y="210.0" type="line"/>
    </contour>
  </outline>
</glyph>
<glyph name="z" format="2">
  <advance width="826.0"/>
  <unicode hex="007A"/>
  <anchor x="413.0" y="0.0" name="bottom"/>
  <anchor x="413.0" y="498.0" name="center"/>
  <anchor x="413.0" y="995.5" name="top"/>
  <outline>
    <contour>
      <point x="777.5" y="280.0" type="line"/>
      <point x="419.5" y="280.0" type="line"/>
      <point x="772.5" y="740.5" type="line"/>
      <point x="772.5" y="995.5" type="line"/>
      <point x="52.0" y="995.5" type="line"/>
      <point x="52.0" y="717.5" type="line"/>
      <point x="399.0" y="717.5" type="line"/>
      <point x="48.5" y="257.0" type="line"/>
      <point x="48.5" y="0.0" type="line"/>
      <point x="777.5" y="0.0" type="line"/>
    </contour>
  </outline>
</glyph>
<glyph name="braceleft" format="2">
  <advance width="639.0"/>
  <unicode hex="007B"/>
  <outline>
    <contour>
      <point x="600.0" y="1337.5" type="line"/>
      <point x="549.0" y="1349.5"/>
      <point x="496.5" y="1358.5"/>
      <point x="447.0" y="1358.5" type="curve" smooth="yes"/>
      <point x="238.0" y="1358.5"/>
      <point x="135.0" y="1266.0"/>
      <point x="135.0" y="1035.5" type="curve" smooth="yes"/>
      <point x="135.0" y="980.0"/>
      <point x="149.0" y="841.5"/>
      <point x="149.0" y="797.0" type="curve" smooth="yes"/>
      <point x="149.0" y="728.0"/>
      <point x="117.5" y="696.0"/>
      <point x="41.0" y="690.5" type="curve"/>
      <point x="41.0" y="416.5" type="line"/>
      <point x="117.5" y="411.0"/>
      <point x="149.0" y="379.5"/>
      <point x="149.0" y="310.5" type="curve" smooth="yes"/>
      <point x="149.0" y="266.0"/>
      <point x="135.0" y="127.5"/>
      <point x="135.0" y="70.5" type="curve" smooth="yes"/>
      <point x="135.0" y="-161.0"/>
      <point x="238.0" y="-253.5"/>
      <point x="447.0" y="-253.5" type="curve" smooth="yes"/>
      <point x="496.5" y="-253.5"/>
      <point x="547.5" y="-245.0"/>
      <point x="600.0" y="-232.0" type="curve"/>
      <point x="600.0" y="5.5" type="line"/>
      <point x="585.0" y="1.5"/>
      <point x="566.0" y="-1.5"/>
      <point x="546.0" y="-1.5" type="curve" smooth="yes"/>
      <point x="476.0" y="-1.5"/>
      <point x="450.5" y="30.5"/>
      <point x="450.5" y="103.0" type="curve" smooth="yes"/>
      <point x="450.5" y="141.0"/>
      <point x="464.0" y="273.5"/>
      <point x="464.0" y="317.5" type="curve" smooth="yes"/>
      <point x="464.0" y="448.5"/>
      <point x="424.5" y="532.5"/>
      <point x="265.5" y="552.0" type="curve"/>
      <point x="290.5" y="539.5" type="line"/>
      <point x="290.5" y="559.5" type="line"/>
      <point x="422.5" y="582.5"/>
      <point x="464.0" y="659.0"/>
      <point x="464.0" y="788.5" type="curve" smooth="yes"/>
      <point x="464.0" y="832.5"/>
      <point x="450.5" y="965.0"/>
      <point x="450.5" y="1003.0" type="curve" smooth="yes"/>
      <point x="450.5" y="1075.5"/>
      <point x="475.5" y="1107.5"/>
      <point x="544.0" y="1107.5" type="curve" smooth="yes"/>
      <point x="565.0" y="1107.5"/>
      <point x="584.5" y="1104.5"/>
      <point x="600.0" y="1100.5" type="curve"/>
    </contour>
  </outline>
</glyph>
<glyph name="bar" format="2">
  <advance width="490.5"/>
  <unicode hex="007C"/>
  <outline>
    <contour>
      <point x="385.0" y="-407.0" type="line"/>
      <point x="385.0" y="1423.5" type="line"/>
      <point x="105.5" y="1423.5" type="line"/>
      <point x="105.5" y="-407.0" type="line"/>
    </contour>
  </outline>
</glyph>
<glyph name="braceright" format="2">
  <advance width="639.0"/>
  <unicode hex="007D"/>
  <outline>
    <contour>
      <point x="39.0" y="1337.5" type="curve"/>
      <point x="39.0" y="1100.5" type="line"/>
      <point x="54.5" y="1104.5"/>
      <point x="74.0" y="1107.5"/>
      <point x="95.0" y="1107.5" type="curve" smooth="yes"/>
      <point x="163.5" y="1107.5"/>
      <point x="188.5" y="1075.5"/>
      <point x="188.5" y="1003.0" type="curve" smooth="yes"/>
      <point x="188.5" y="965.0"/>
      <point x="175.0" y="832.5"/>
      <point x="175.0" y="788.5" type="curve" smooth="yes"/>
      <point x="175.0" y="659.0"/>
      <point x="216.5" y="582.5"/>
      <point x="348.5" y="559.5" type="curve"/>
      <point x="348.5" y="539.5" type="line"/>
      <point x="373.5" y="552.0" type="line"/>
      <point x="214.5" y="532.5"/>
      <point x="175.0" y="448.5"/>
      <point x="175.0" y="317.5" type="curve" smooth="yes"/>
      <point x="175.0" y="273.5"/>
      <point x="188.5" y="141.0"/>
      <point x="188.5" y="103.0" type="curve" smooth="yes"/>
      <point x="188.5" y="30.5"/>
      <point x="163.0" y="-1.5"/>
      <point x="93.0" y="-1.5" type="curve" smooth="yes"/>
      <point x="73.0" y="-1.5"/>
      <point x="54.0" y="1.5"/>
      <point x="39.0" y="5.5" type="curve"/>
      <point x="39.0" y="-232.0" type="line"/>
      <point x="91.5" y="-245.0"/>
      <point x="142.5" y="-253.5"/>
      <point x="192.0" y="-253.5" type="curve" smooth="yes"/>
      <point x="401.0" y="-253.5"/>
      <point x="504.0" y="-161.0"/>
      <point x="504.0" y="70.5" type="curve" smooth="yes"/>
      <point x="504.0" y="127.5"/>
      <point x="490.0" y="266.0"/>
      <point x="490.0" y="310.5" type="curve" smooth="yes"/>
      <point x="490.0" y="379.5"/>
      <point x="521.5" y="411.0"/>
      <point x="598.0" y="416.5" type="curve"/>
      <point x="598.0" y="690.5" type="line"/>
      <point x="521.5" y="696.0"/>
      <point x="490.0" y="728.0"/>
      <point x="490.0" y="797.0" type="curve" smooth="yes"/>
      <point x="490.0" y="841.5"/>
      <point x="504.0" y="980.0"/>
      <point x="504.0" y="1035.5" type="curve" smooth="yes"/>
      <point x="504.0" y="1266.0"/>
      <point x="401.0" y="1358.5"/>
      <point x="192.0" y="1358.5" type="curve" smooth="yes"/>
      <point x="142.5" y="1358.5"/>
      <point x="90.0" y="1349.5"/>
    </contour>
  </outline>
</glyph>
<glyph name="asciitilde" format="2">
  <advance width="988.0"/>
  <unicode hex="007E"/>
  <outline>
    <contour>
      <point x="667.0" y="478.0" type="curve" smooth="yes"/>
      <point x="850.5" y="478.0"/>
      <point x="919.5" y="597.5"/>
      <point x="919.5" y="778.0" type="curve" smooth="yes"/>
      <point x="919.5" y="851.0" type="line"/>
      <point x="686.5" y="851.0" type="line"/>
      <point x="686.5" y="847.0" type="line" smooth="yes"/>
      <point x="684.5" y="787.5"/>
      <point x="672.0" y="757.5"/>
      <point x="615.5" y="757.5" type="curve" smooth="yes"/>
      <point x="543.0" y="757.5"/>
      <point x="445.0" y="818.5"/>
      <point x="320.0" y="818.5" type="curve" smooth="yes"/>
      <point x="137.0" y="818.5"/>
      <point x="68.5" y="704.5"/>
      <point x="68.5" y="518.5" type="curve" smooth="yes"/>
      <point x="68.5" y="444.5" type="line"/>
      <point x="301.5" y="444.5" type="line"/>
      <point x="301.5" y="451.0" type="line" smooth="yes"/>
      <point x="303.0" y="511.5"/>
      <point x="316.5" y="538.5"/>
      <point x="372.5" y="538.5" type="curve" smooth="yes"/>
      <point x="445.5" y="538.5"/>
      <point x="545.0" y="478.0"/>
    </contour>
  </outline>
</glyph>
<glyph name="exclamdown" format="2">
  <advance width="488.0"/>
  <unicode hex="00A1"/>
  <outline>
    <contour>
      <point x="380.0" y="565.0" type="line"/>
      <point x="108.5" y="565.0" type="line"/>
      <point x="67.0" y="-282.5" type="line"/>
      <point x="421.0" y="-282.5" type="line"/>
    </contour>
    <contour>
      <point x="247.0" y="1024.5" type="curve" smooth="yes"/>
      <point x="129.0" y="1024.5"/>
      <point x="74.5" y="957.0"/>
      <point x="74.5" y="841.5" type="curve" smooth="yes"/>
      <point x="74.5" y="827.5" type="line" smooth="yes"/>
      <point x="74.5" y="713.5"/>
      <point x="129.0" y="644.5"/>
      <point x="247.0" y="644.5" type="curve" smooth="yes"/>
      <point x="362.5" y="644.5"/>
      <point x="420.0" y="713.5"/>
      <point x="420.0" y="827.5" type="curve" smooth="yes"/>
      <point x="420.0" y="841.5" type="line" smooth="yes"/>
      <point x="420.0" y="957.0"/>
      <point x="362.5" y="1024.5"/>
    </contour>
  </outline>
</glyph>
<glyph name="cent" format="2">
  <advance width="772.0"/>
  <unicode hex="00A2"/>
  <anchor x="425.0" y="0.0" name="bottom"/>
  <anchor x="425.0" y="995.5" name="top"/>
  <outline>
    <contour>
      <point x="593.0" y="842.5" type="line"/>
      <point x="593.0" y="1168.0" type="line"/>
      <point x="312.0" y="1168.0" type="line"/>
      <point x="312.0" y="842.5" type="line"/>
    </contour>
    <contour>
      <point x="593.0" y="-182.5" type="line"/>
      <point x="593.0" y="172.5" type="line"/>
      <point x="312.0" y="172.5" type="line"/>
      <point x="312.0" y="-182.5" type="line"/>
    </contour>
    <component base="c"/>
  </outline>
</glyph>
<glyph name="sterling" format="2">
  <advance width="918.0"/>
  <unicode hex="00A3"/>
  <outline>
    <contour>
      <point x="52.5" y="558.0" type="line"/>
      <point x="793.0" y="558.0" type="line"/>
      <point x="807.0" y="779.5" type="line"/>
      <point x="66.5" y="779.5" type="line"/>
    </contour>
    <contour>
      <point x="329.0" y="294.5" type="line"/>
      <point x="329.0" y="305.0" type="line"/>
      <point x="468.5" y="328.5"/>
      <point x="531.5" y="376.5"/>
      <point x="531.5" y="503.0" type="curve" smooth="yes"/>
      <point x="531.5" y="622.5"/>
      <point x="490.0" y="764.5"/>
      <point x="490.0" y="889.0" type="curve" smooth="yes"/>
      <point x="490.0" y="966.5"/>
      <point x="518.5" y="1012.0"/>
      <point x="646.0" y="1012.0" type="curve" smooth="yes"/>
      <point x="711.5" y="1012.0"/>
      <point x="772.0" y="1003.5"/>
      <point x="836.5" y="988.5" type="curve"/>
      <point x="814.5" y="1271.0" type="line"/>
      <point x="741.5" y="1291.5"/>
      <point x="646.5" y="1303.5"/>
      <point x="551.5" y="1303.5" type="curve" smooth="yes"/>
      <point x="257.5" y="1303.5"/>
      <point x="141.0" y="1180.5"/>
      <point x="141.0" y="946.5" type="curve" smooth="yes"/>
      <point x="141.0" y="803.5"/>
      <point x="185.5" y="635.0"/>
      <point x="185.5" y="501.0" type="curve" smooth="yes"/>
      <point x="185.5" y="385.0"/>
      <point x="158.5" y="339.5"/>
      <point x="102.0" y="306.0" type="curve" smooth="yes"/>
      <point x="60.5" y="283.0" type="line"/>
      <point x="60.5" y="0.0" type="line"/>
      <point x="873.0" y="0.0" type="line"/>
      <point x="873.0" y="294.5" type="line"/>
    </contour>
  </outline>
</glyph>
<glyph name="currency" format="2">
  <advance width="1050.5"/>
  <unicode hex="00A4"/>
  <outline>
    <contour>
      <point x="524.5" y="228.0" type="curve" smooth="yes"/>
      <point x="777.5" y="228.0"/>
      <point x="907.0" y="362.0"/>
      <point x="907.0" y="602.5" type="curve" smooth="yes"/>
      <point x="907.0" y="634.0" type="line" smooth="yes"/>
      <point x="907.0" y="873.0"/>
      <point x="777.5" y="1007.0"/>
      <point x="524.5" y="1007.0" type="curve" smooth="yes"/>
      <point x="271.0" y="1007.0"/>
      <point x="141.5" y="873.0"/>
      <point x="141.5" y="634.0" type="curve" smooth="yes"/>
      <point x="141.5" y="602.5" type="line" smooth="yes"/>
      <point x="141.5" y="362.0"/>
      <point x="271.0" y="228.0"/>
    </contour>
    <contour>
      <point x="524.5" y="471.0" type="curve" smooth="yes"/>
      <point x="461.5" y="471.0"/>
      <point x="434.0" y="510.0"/>
      <point x="434.0" y="592.5" type="curve" smooth="yes"/>
      <point x="434.0" y="643.5" type="line" smooth="yes"/>
      <point x="434.0" y="726.5"/>
      <point x="461.5" y="765.0"/>
      <point x="524.5" y="765.0" type="curve" smooth="yes"/>
      <point x="587.0" y="765.0"/>
      <point x="612.0" y="725.5"/>
      <point x="613.5" y="643.5" type="curve" smooth="yes"/>
      <point x="614.5" y="592.5" type="line" smooth="yes"/>
      <point x="616.0" y="510.0"/>
      <point x="587.0" y="471.0"/>
    </contour>
    <contour>
      <point x="813.5" y="488.5" type="line"/>
      <point x="633.5" y="320.0" type="line"/>
      <point x="823.5" y="101.0" type="line"/>
      <point x="1014.0" y="256.0" type="line"/>
    </contour>
    <contour>
      <point x="422.0" y="326.0" type="line"/>
      <point x="238.5" y="487.0" type="line"/>
      <point x="37.0" y="256.0" type="line"/>
      <point x="226.5" y="101.0" type="line"/>
    </contour>
    <contour>
      <point x="227.0" y="752.0" type="line"/>
      <point x="415.0" y="910.5" type="line"/>
      <point x="227.0" y="1126.5" type="line"/>
      <point x="37.0" y="972.0" type="line"/>
    </contour>
    <contour>
      <point x="626.5" y="899.5" type="line"/>
      <point x="805.0" y="730.0" type="line"/>
      <point x="1013.0" y="972.0" type="line"/>
      <point x="823.0" y="1126.5" type="line"/>
    </contour>
  </outline>
</glyph>
<glyph name="yen" format="2">
  <advance width="1012.5"/>
  <unicode hex="00A5"/>
  <anchor x="506.5" y="0.0" name="bottom"/>
  <anchor x="506.5" y="1278.0" name="top"/>
  <anchor x="20.0" y="1278.0" name="topleft"/>
  <outline>
    <contour>
      <point x="562.5" y="500.0" type="line"/>
      <point x="922.0" y="500.0" type="line"/>
      <point x="935.0" y="690.5" type="line"/>
      <point x="609.5" y="690.5" type="line"/>
    </contour>
    <contour>
      <point x="95.5" y="401.0" type="line"/>
      <point x="82.0" y="215.0" type="line"/>
      <point x="922.0" y="215.0" type="line"/>
      <point x="935.0" y="401.0" type="line"/>
    </contour>
    <contour>
      <point x="387.0" y="690.5" type="line"/>
      <point x="95.5" y="690.5" type="line"/>
      <point x="82.0" y="500.0" type="line"/>
      <point x="436.5" y="500.0" type="line"/>
    </contour>
    <component base="Y"/>
  </outline>
</glyph>
<glyph name="brokenbar" format="2">
  <advance width="492.5"/>
  <unicode hex="00A6"/>
  <outline>
    <contour>
      <point x="387.0" y="575.0" type="line"/>
      <point x="387.0" y="1423.5" type="line"/>
      <point x="105.5" y="1423.5" type="line"/>
      <point x="105.5" y="575.0" type="line"/>
    </contour>
    <contour>
      <point x="387.0" y="-407.0" type="line"/>
      <point x="387.0" y="447.5" type="line"/>
      <point x="105.5" y="447.5" type="line"/>
      <point x="105.5" y="-407.0" type="line"/>
    </contour>
  </outline>
</glyph>
<glyph name="section" format="2">
  <advance width="851.0"/>
  <unicode hex="00A7"/>
  <outline>
    <contour>
      <point x="462.0" y="480.5" type="curve"/>
      <point x="624.5" y="369.5" type="line"/>
      <point x="623.0" y="443.0" type="line"/>
      <point x="727.5" y="458.0"/>
      <point x="791.5" y="528.0"/>
      <point x="791.5" y="637.0" type="curve" smooth="yes"/>
      <point x="791.5" y="652.5" type="line" smooth="yes"/>
      <point x="791.5" y="789.0"/>
      <point x="714.5" y="840.5"/>
      <point x="537.0" y="902.0" type="curve" smooth="yes"/>
      <point x="400.5" y="945.0"/>
      <point x="377.0" y="961.0"/>
      <point x="377.0" y="992.0" type="curve" smooth="yes"/>
      <point x="377.0" y="994.5" type="line" smooth="yes"/>
      <point x="377.0" y="1025.0"/>
      <point x="399.5" y="1040.0"/>
      <point x="483.5" y="1040.0" type="curve" smooth="yes"/>
      <point x="583.5" y="1040.0"/>
      <point x="677.5" y="1011.5"/>
      <point x="751.0" y="978.0" type="curve"/>
      <point x="727.5" y="1237.5" type="line"/>
      <point x="659.5" y="1273.0"/>
      <point x="556.5" y="1303.5"/>
      <point x="434.0" y="1303.5" type="curve" smooth="yes"/>
      <point x="187.0" y="1303.5"/>
      <point x="56.0" y="1209.0"/>
      <point x="56.0" y="1021.0" type="curve" smooth="yes"/>
      <point x="56.0" y="1011.5" type="line" smooth="yes"/>
      <point x="56.0" y="864.0"/>
      <point x="118.5" y="777.5"/>
      <point x="320.0" y="707.5" type="curve" smooth="yes"/>
      <point x="463.5" y="654.5"/>
      <point x="514.5" y="632.5"/>
      <point x="514.5" y="567.0" type="curve" smooth="yes"/>
      <point x="514.5" y="560.5" type="line" smooth="yes"/>
      <point x="514.5" y="516.5"/>
      <point x="500.5" y="497.0"/>
    </contour>
    <contour>
      <point x="385.0" y="702.5" type="curve"/>
      <point x="217.5" y="802.0" type="line"/>
      <point x="219.0" y="737.5" type="line"/>
      <point x="121.0" y="721.0"/>
      <point x="57.0" y="653.0"/>
      <point x="57.0" y="544.5" type="curve" smooth="yes"/>
      <point x="57.0" y="530.5" type="line" smooth="yes"/>
      <point x="57.0" y="402.5"/>
      <point x="137.0" y="338.0"/>
      <point x="307.0" y="277.5" type="curve" smooth="yes"/>
      <point x="440.0" y="228.5"/>
      <point x="466.0" y="218.0"/>
      <point x="466.0" y="182.5" type="curve" smooth="yes"/>
      <point x="466.0" y="179.5" type="line" smooth="yes"/>
      <point x="466.0" y="145.5"/>
      <point x="440.0" y="128.5"/>
      <point x="357.5" y="128.5" type="curve" smooth="yes"/>
      <point x="244.0" y="128.5"/>
      <point x="146.0" y="164.0"/>
      <point x="62.0" y="200.5" type="curve"/>
      <point x="85.5" y="-79.0" type="line"/>
      <point x="160.0" y="-113.5"/>
      <point x="265.0" y="-143.0"/>
      <point x="396.5" y="-143.0" type="curve" smooth="yes"/>
      <point x="666.5" y="-143.0"/>
      <point x="791.5" y="-36.0"/>
      <point x="791.5" y="161.0" type="curve" smooth="yes"/>
      <point x="791.5" y="170.0" type="line" smooth="yes"/>
      <point x="791.5" y="344.0"/>
      <point x="719.5" y="407.0"/>
      <point x="535.5" y="463.0" type="curve" smooth="yes"/>
      <point x="387.0" y="511.0"/>
      <point x="330.5" y="548.0"/>
      <point x="330.5" y="612.5" type="curve" smooth="yes"/>
      <point x="330.5" y="622.0" type="line"/>
      <point x="330.5" y="664.0"/>
      <point x="344.5" y="686.0"/>
    </contour>
  </outline>
</glyph>
<glyph name="copyright" format="2">
  <advance width="1309.5"/>
  <unicode hex="00A9"/>
  <outline>
    <contour>
      <point x="654.5" y="-26.0" type="curve" smooth="yes"/>
      <point x="1040.5" y="-26.0"/>
      <point x="1248.0" y="182.5"/>
      <point x="1248.0" y="561.0" type="curve" smooth="yes"/>
      <point x="1248.0" y="720.5" type="line" smooth="yes"/>
      <point x="1248.0" y="1095.5"/>
      <point x="1040.5" y="1302.0"/>
      <point x="654.5" y="1302.0" type="curve" smooth="yes"/>
      <point x="268.5" y="1302.0"/>
      <point x="61.5" y="1095.5"/>
      <point x="61.5" y="720.5" type="curve" smooth="yes"/>
      <point x="61.5" y="561.0" type="line" smooth="yes"/>
      <point x="61.5" y="182.5"/>
      <point x="268.5" y="-26.0"/>
    </contour>
    <contour>
      <point x="694.5" y="303.5" type="curve" smooth="yes"/>
      <point x="760.5" y="303.5"/>
      <point x="819.5" y="318.5"/>
      <point x="859.0" y="339.5" type="curve"/>
      <point x="874.0" y="526.5" type="line"/>
      <point x="841.5" y="508.5"/>
      <point x="805.0" y="496.0"/>
      <point x="760.0" y="496.0" type="curve" smooth="yes"/>
      <point x="681.5" y="496.0"/>
      <point x="645.5" y="538.0"/>
      <point x="645.5" y="613.0" type="curve" smooth="yes"/>
      <point x="645.5" y="670.0" type="line" smooth="yes"/>
      <point x="645.5" y="743.5"/>
      <point x="676.0" y="785.0"/>
      <point x="754.5" y="785.0" type="curve" smooth="yes"/>
      <point x="799.5" y="785.0"/>
      <point x="835.0" y="771.5"/>
      <point x="868.0" y="754.5" type="curve"/>
      <point x="852.5" y="937.5" type="line"/>
      <point x="814.5" y="958.5"/>
      <point x="759.5" y="973.0"/>
      <point x="694.0" y="973.0" type="curve" smooth="yes"/>
      <point x="509.5" y="973.0"/>
      <point x="422.5" y="863.5"/>
      <point x="422.5" y="675.5" type="curve" smooth="yes"/>
      <point x="422.5" y="602.5" type="line" smooth="yes"/>
      <point x="422.5" y="413.5"/>
      <point x="508.0" y="303.5"/>
    </contour>
    <contour>
      <point x="654.5" y="159.0" type="curve" smooth="yes"/>
      <point x="411.5" y="159.0"/>
      <point x="278.5" y="298.0"/>
      <point x="278.5" y="545.0" type="curve" smooth="yes"/>
      <point x="278.5" y="738.0" type="line" smooth="yes"/>
      <point x="278.5" y="981.0"/>
      <point x="411.5" y="1117.0"/>
      <point x="654.5" y="1117.0" type="curve" smooth="yes"/>
      <point x="897.5" y="1117.0"/>
      <point x="1031.0" y="981.0"/>
      <point x="1031.0" y="738.0" type="curve" smooth="yes"/>
      <point x="1031.0" y="545.0" type="line" smooth="yes"/>
      <point x="1031.0" y="298.0"/>
      <point x="897.5" y="159.0"/>
    </contour>
  </outline>
</glyph>
<glyph name="ordfeminine" format="2">
  <advance width="596.0"/>
  <unicode hex="00AA"/>
  <outline>
    <contour>
      <point x="329.5" y="639.0" type="line"/>
      <point x="552.0" y="639.0" type="line"/>
      <point x="552.0" y="1029.0" type="line" smooth="yes"/>
      <point x="552.0" y="1186.0"/>
      <point x="490.5" y="1290.5"/>
      <point x="286.0" y="1290.5" type="curve" smooth="yes"/>
      <point x="200.5" y="1290.5"/>
      <point x="125.5" y="1270.0"/>
      <point x="72.0" y="1244.5" type="curve"/>
      <point x="54.0" y="1067.5" type="line"/>
      <point x="112.0" y="1090.0"/>
      <point x="177.0" y="1109.5"/>
      <point x="245.5" y="1109.5" type="curve" smooth="yes"/>
      <point x="314.5" y="1109.5"/>
      <point x="333.0" y="1088.5"/>
      <point x="333.0" y="1039.5" type="curve"/>
      <point x="333.0" y="1011.0" type="line"/>
      <point x="333.0" y="786.0" type="line"/>
      <point x="337.0" y="781.0" type="line"/>
    </contour>
    <contour>
      <point x="182.5" y="626.0" type="curve" smooth="yes"/>
      <point x="278.5" y="626.0"/>
      <point x="312.5" y="679.0"/>
      <point x="328.0" y="753.5" type="curve"/>
      <point x="361.5" y="753.5" type="line"/>
      <point x="334.0" y="827.5" type="line"/>
      <point x="327.0" y="808.5"/>
      <point x="311.0" y="792.5"/>
      <point x="282.5" y="792.5" type="curve" smooth="yes"/>
      <point x="253.5" y="792.5"/>
      <point x="243.0" y="809.0"/>
      <point x="243.0" y="835.0" type="curve" smooth="yes"/>
      <point x="243.0" y="856.0" type="line" smooth="yes"/>
      <point x="243.0" y="886.5"/>
      <point x="254.0" y="901.0"/>
      <point x="290.0" y="908.0" type="curve" smooth="yes"/>
      <point x="364.5" y="922.0" type="line"/>
      <point x="347.0" y="1057.0" type="line"/>
      <point x="232.5" y="1038.0" type="line" smooth="yes"/>
      <point x="81.5" y="1012.5"/>
      <point x="25.0" y="958.0"/>
      <point x="25.0" y="839.0" type="curve" smooth="yes"/>
      <point x="25.0" y="810.5" type="line" smooth="yes"/>
      <point x="25.0" y="692.5"/>
      <point x="78.0" y="626.0"/>
    </contour>
  </outline>
</glyph>
<glyph name="logicalnot" format="2">
  <advance width="873.0"/>
  <unicode hex="00AC"/>
  <outline>
    <contour>
      <point x="812.0" y="241.5" type="line"/>
      <point x="812.0" y="658.0" type="line"/>
      <point x="530.5" y="658.0" type="line"/>
      <point x="530.5" y="241.5" type="line"/>
    </contour>
    <contour>
      <point x="68.5" y="493.0" type="line"/>
      <point x="812.0" y="493.0" type="line"/>
      <point x="812.0" y="761.5" type="line"/>
      <point x="68.5" y="761.5" type="line"/>
    </contour>
  </outline>
</glyph>
<glyph name="registered" format="2">
  <advance width="780.0"/>
  <unicode hex="00AE"/>
  <outline>
    <contour>
      <point x="390.0" y="505.5" type="curve" smooth="yes"/>
      <point x="616.5" y="505.5"/>
      <point x="742.0" y="634.5"/>
      <point x="742.0" y="851.5" type="curve" smooth="yes"/>
      <point x="742.0" y="952.5" type="line" smooth="yes"/>
      <point x="742.0" y="1169.0"/>
      <point x="616.5" y="1298.0"/>
      <point x="390.0" y="1298.0" type="curve" smooth="yes"/>
      <point x="162.5" y="1298.0"/>
      <point x="37.5" y="1169.0"/>
      <point x="37.5" y="952.5" type="curve" smooth="yes"/>
      <point x="37.5" y="851.5" type="line" smooth="yes"/>
      <point x="37.5" y="634.5"/>
      <point x="162.5" y="505.5"/>
    </contour>
    <contour>
      <point x="390.0" y="615.5" type="curve" smooth="yes"/>
      <point x="239.0" y="615.5"/>
      <point x="166.0" y="692.5"/>
      <point x="166.0" y="843.5" type="curve" smooth="yes"/>
      <point x="166.0" y="962.5" type="line" smooth="yes"/>
      <point x="166.0" y="1111.5"/>
      <point x="239.0" y="1187.5"/>
      <point x="390.0" y="1187.5" type="curve" smooth="yes"/>
      <point x="540.5" y="1187.5"/>
      <point x="613.5" y="1111.5"/>
      <point x="613.5" y="962.5" type="curve" smooth="yes"/>
      <point x="613.5" y="843.5" type="line" smooth="yes"/>
      <point x="613.5" y="692.5"/>
      <point x="540.5" y="615.5"/>
    </contour>
    <contour>
      <point x="433.5" y="717.0" type="line"/>
      <point x="550.0" y="717.0" type="line"/>
      <point x="540.0" y="804.0" type="line" smooth="yes"/>
      <point x="532.0" y="870.5"/>
      <point x="511.0" y="897.5"/>
      <point x="438.5" y="903.5" type="curve"/>
      <point x="458.0" y="889.0" type="line"/>
      <point x="458.0" y="905.0" type="line"/>
      <point x="517.0" y="908.5"/>
      <point x="544.0" y="939.0"/>
      <point x="544.0" y="992.5" type="curve" smooth="yes"/>
      <point x="544.0" y="999.0" type="line" smooth="yes"/>
      <point x="544.0" y="1067.0"/>
      <point x="501.0" y="1108.0"/>
      <point x="405.5" y="1108.0" type="curve" smooth="yes"/>
      <point x="335.0" y="1108.0" type="line"/>
      <point x="335.0" y="1015.0" type="line"/>
      <point x="393.5" y="1015.0" type="line" smooth="yes"/>
      <point x="418.5" y="1015.0"/>
      <point x="430.0" y="1001.5"/>
      <point x="430.0" y="974.0" type="curve" smooth="yes"/>
      <point x="430.0" y="964.5" type="line" smooth="yes"/>
      <point x="430.0" y="937.5"/>
      <point x="418.5" y="924.5"/>
      <point x="393.5" y="924.5" type="curve" smooth="yes"/>
      <point x="335.0" y="924.5" type="line"/>
      <point x="335.0" y="835.0" type="line"/>
      <point x="384.5" y="834.5" type="line" smooth="yes"/>
      <point x="415.0" y="834.0"/>
      <point x="424.0" y="823.0"/>
      <point x="427.5" y="784.5" type="curve" smooth="yes"/>
    </contour>
    <contour>
      <point x="251.5" y="717.0" type="line"/>
      <point x="365.0" y="717.0" type="line"/>
      <point x="365.0" y="861.5" type="line"/>
      <point x="364.0" y="899.0" type="line"/>
      <point x="364.0" y="1108.0" type="line"/>
      <point x="251.5" y="1108.0" type="line"/>
    </contour>
  </outline>
</glyph>
<glyph name="degree" format="2">
  <advance width="617.0"/>
  <unicode hex="00B0"/>
  <outline>
    <contour>
      <point x="309.0" y="742.0" type="curve" smooth="yes"/>
      <point x="483.5" y="742.0"/>
      <point x="578.0" y="841.5"/>
      <point x="578.0" y="1014.5" type="curve" smooth="yes"/>
      <point x="578.0" y="1034.0" type="line" smooth="yes"/>
      <point x="578.0" y="1206.5"/>
      <point x="483.5" y="1306.0"/>
      <point x="309.0" y="1306.0" type="curve" smooth="yes"/>
      <point x="134.5" y="1306.0"/>
      <point x="39.0" y="1206.5"/>
      <point x="39.0" y="1034.0" type="curve" smooth="yes"/>
      <point x="39.0" y="1014.5" type="line" smooth="yes"/>
      <point x="39.0" y="841.5"/>
      <point x="134.5" y="742.0"/>
    </contour>
    <contour>
      <point x="309.0" y="910.0" type="curve" smooth="yes"/>
      <point x="263.0" y="910.0"/>
      <point x="240.0" y="944.0"/>
      <point x="240.0" y="1011.5" type="curve" smooth="yes"/>
      <point x="240.0" y="1038.0" type="line" smooth="yes"/>
      <point x="240.0" y="1103.5"/>
      <point x="263.0" y="1138.0"/>
      <point x="309.0" y="1138.0" type="curve" smooth="yes"/>
      <point x="355.0" y="1138.0"/>
      <point x="377.5" y="1103.5"/>
      <point x="377.5" y="1038.0" type="curve" smooth="yes"/>
      <point x="377.5" y="1011.5" type="line" smooth="yes"/>
      <point x="377.5" y="944.0"/>
      <point x="355.0" y="910.0"/>
    </contour>
  </outline>
</glyph>
<glyph name="plusminus" format="2">
  <advance width="887.0"/>
  <unicode hex="00B1"/>
  <outline>
    <contour>
      <point x="72.0" y="82.0" type="line"/>
      <point x="815.0" y="82.0" type="line"/>
      <point x="815.0" y="344.5" type="line"/>
      <point x="72.0" y="344.5" type="line"/>
    </contour>
    <contour>
      <point x="584.5" y="429.0" type="line"/>
      <point x="584.5" y="1080.5" type="line"/>
      <point x="303.0" y="1080.5" type="line"/>
      <point x="303.0" y="429.0" type="line"/>
    </contour>
    <contour>
      <point x="72.0" y="620.5" type="line"/>
      <point x="815.0" y="620.5" type="line"/>
      <point x="815.0" y="889.0" type="line"/>
      <point x="72.0" y="889.0" type="line"/>
    </contour>
  </outline>
</glyph>
<glyph name="twosuperior" format="2">
  <advance width="513.5"/>
  <unicode hex="00B2"/>
  <outline>
    <contour>
      <point x="23.5" y="713.0" type="line"/>
      <point x="489.5" y="713.0" type="line"/>
      <point x="489.5" y="893.0" type="line"/>
      <point x="190.5" y="893.0" type="line"/>
      <point x="281.0" y="865.5" type="line"/>
      <point x="281.0" y="899.0" type="line"/>
      <point x="369.0" y="982.5" type="line" smooth="yes"/>
      <point x="446.0" y="1047.0"/>
      <point x="486.5" y="1109.0"/>
      <point x="486.5" y="1196.0" type="curve" smooth="yes"/>
      <point x="486.5" y="1204.5" type="line" smooth="yes"/>
      <point x="486.5" y="1328.0"/>
      <point x="402.5" y="1410.0"/>
      <point x="240.0" y="1410.0" type="curve" smooth="yes"/>
      <point x="161.0" y="1410.0"/>
      <point x="96.5" y="1393.0"/>
      <point x="47.0" y="1369.5" type="curve"/>
      <point x="29.0" y="1191.0" type="line"/>
      <point x="65.5" y="1206.0"/>
      <point x="122.0" y="1224.5"/>
      <point x="178.5" y="1224.5" type="curve" smooth="yes"/>
      <point x="244.5" y="1224.5"/>
      <point x="263.0" y="1201.5"/>
      <point x="263.0" y="1167.0" type="curve" smooth="yes"/>
      <point x="263.0" y="1164.5" type="line" smooth="yes"/>
      <point x="263.0" y="1125.0"/>
      <point x="225.5" y="1092.0"/>
      <point x="174.0" y="1045.5" type="curve" smooth="yes"/>
      <point x="23.5" y="901.5" type="line"/>
    </contour>
  </outline>
</glyph>
<glyph name="threesuperior" format="2">
  <advance width="528.0"/>
  <unicode hex="00B3"/>
  <outline>
    <contour>
      <point x="225.0" y="697.0" type="curve" smooth="yes"/>
      <point x="415.5" y="697.0"/>
      <point x="504.5" y="771.5"/>
      <point x="504.5" y="894.5" type="curve" smooth="yes"/>
      <point x="504.5" y="906.0" type="line" smooth="yes"/>
      <point x="504.5" y="1001.0"/>
      <point x="462.5" y="1052.0"/>
      <point x="351.0" y="1065.5" type="curve"/>
      <point x="366.0" y="1041.0" type="line"/>
      <point x="366.0" y="1070.0" type="line"/>
      <point x="460.5" y="1085.5"/>
      <point x="501.0" y="1139.0"/>
      <point x="501.0" y="1221.0" type="curve" smooth="yes"/>
      <point x="501.0" y="1231.0" type="line" smooth="yes"/>
      <point x="501.0" y="1347.0"/>
      <point x="417.0" y="1410.5"/>
      <point x="246.0" y="1410.5" type="curve" smooth="yes"/>
      <point x="165.0" y="1410.5"/>
      <point x="95.0" y="1395.0"/>
      <point x="45.0" y="1375.0" type="curve"/>
      <point x="27.5" y="1202.0" type="line"/>
      <point x="67.5" y="1214.0"/>
      <point x="126.5" y="1229.5"/>
      <point x="192.5" y="1229.5" type="curve" smooth="yes"/>
      <point x="250.5" y="1229.5"/>
      <point x="273.0" y="1215.0"/>
      <point x="273.0" y="1186.5" type="curve" smooth="yes"/>
      <point x="273.0" y="1184.0" type="line" smooth="yes"/>
      <point x="273.0" y="1153.0"/>
      <point x="245.5" y="1142.0"/>
      <point x="191.0" y="1139.5" type="curve" smooth="yes"/>
      <point x="98.5" y="1136.0" type="line"/>
      <point x="98.5" y="977.0" type="line"/>
      <point x="198.0" y="973.5" type="line" smooth="yes"/>
      <point x="255.0" y="971.0"/>
      <point x="272.5" y="955.5"/>
      <point x="272.5" y="928.5" type="curve" smooth="yes"/>
      <point x="272.5" y="925.5" type="line" smooth="yes"/>
      <point x="272.5" y="896.5"/>
      <point x="251.5" y="878.5"/>
      <point x="183.0" y="878.5" type="curve" smooth="yes"/>
      <point x="122.5" y="878.5"/>
      <point x="70.0" y="891.0"/>
      <point x="22.5" y="906.0" type="curve"/>
      <point x="40.0" y="726.5" type="line"/>
      <point x="80.5" y="710.0"/>
      <point x="153.0" y="697.0"/>
    </contour>
  </outline>
</glyph>
<glyph name="micro" format="2">
  <advance width="1020.0"/>
  <unicode hex="00B5"/>
  <outline>
    <contour>
      <point x="941.0" y="995.5" type="line"/>
      <point x="608.5" y="995.5" type="line"/>
      <point x="608.5" y="256.5" type="line"/>
      <point x="652.5" y="243.0" type="line"/>
      <point x="641.5" y="0.0" type="line"/>
      <point x="941.0" y="0.0" type="line"/>
    </contour>
    <contour>
      <point x="411.5" y="381.5" type="curve" smooth="yes"/>
      <point x="411.5" y="995.5" type="line"/>
      <point x="79.0" y="995.5" type="line"/>
      <point x="79.0" y="-347.0" type="line"/>
      <point x="399.0" y="-347.0" type="line"/>
      <point x="399.0" y="-280.5" type="line"/>
      <point x="375.0" y="48.0" type="line"/>
      <point x="380.0" y="48.0" type="line"/>
      <point x="400.5" y="8.5"/>
      <point x="431.0" y="-15.5"/>
      <point x="490.5" y="-15.5" type="curve" smooth="yes"/>
      <point x="581.0" y="-15.5"/>
      <point x="619.0" y="48.5"/>
      <point x="637.5" y="193.5" type="curve"/>
      <point x="695.0" y="193.5" type="line"/>
      <point x="611.5" y="334.5" type="line"/>
      <point x="596.5" y="290.5"/>
      <point x="560.5" y="256.0"/>
      <point x="507.0" y="256.0" type="curve" smooth="yes"/>
      <point x="434.5" y="256.0"/>
      <point x="411.5" y="301.0"/>
    </contour>
  </outline>
</glyph>
<glyph name="paragraph" format="2">
  <advance width="784.5"/>
  <unicode hex="00B6"/>
  <outline>
    <contour>
      <point x="351.5" y="634.0" type="curve"/>
      <point x="460.5" y="634.0" type="line"/>
      <point x="460.5" y="1278.0" type="line"/>
      <point x="353.0" y="1278.0" type="line" smooth="yes"/>
      <point x="139.0" y="1278.0"/>
      <point x="49.0" y="1177.0"/>
      <point x="49.0" y="985.5" type="curve" smooth="yes"/>
      <point x="49.0" y="926.0" type="line" smooth="yes"/>
      <point x="49.0" y="731.0"/>
      <point x="139.0" y="634.0"/>
    </contour>
    <contour>
      <point x="695.5" y="0.0" type="line"/>
      <point x="695.5" y="1278.0" type="line"/>
      <point x="366.5" y="1278.0" type="line"/>
      <point x="365.5" y="0.0" type="line"/>
    </contour>
  </outline>
</glyph>
<glyph name="onesuperior" format="2">
  <advance width="407.5"/>
  <unicode hex="00B9"/>
  <outline>
    <contour>
      <point x="149.5" y="713.0" type="line"/>
      <point x="361.0" y="713.0" type="line"/>
      <point x="361.0" y="1394.5" type="line"/>
      <point x="183.0" y="1394.5" type="line"/>
      <point x="23.0" y="1319.5" type="line"/>
      <point x="16.5" y="1112.5" type="line"/>
      <point x="139.5" y="1171.0" type="line"/>
      <point x="149.0" y="1171.0" type="line"/>
    </contour>
  </outline>
</glyph>
<glyph name="ordmasculine" format="2">
  <advance width="627.5"/>
  <unicode hex="00BA"/>
  <outline>
    <contour>
      <point x="313.0" y="622.0" type="curve" smooth="yes"/>
      <point x="498.5" y="622.0"/>
      <point x="595.5" y="722.5"/>
      <point x="595.5" y="909.5" type="curve" smooth="yes"/>
      <point x="595.5" y="1006.5" type="line" smooth="yes"/>
      <point x="595.5" y="1192.0"/>
      <point x="499.5" y="1294.0"/>
      <point x="313.0" y="1294.0" type="curve" smooth="yes"/>
      <point x="128.5" y="1294.0"/>
      <point x="32.0" y="1193.0"/>
      <point x="32.0" y="1006.5" type="curve" smooth="yes"/>
      <point x="32.0" y="909.5" type="line" smooth="yes"/>
      <point x="32.0" y="722.5"/>
      <point x="129.0" y="622.0"/>
    </contour>
    <contour>
      <point x="314.0" y="805.5" type="curve" smooth="yes"/>
      <point x="274.5" y="805.5"/>
      <point x="259.0" y="833.5"/>
      <point x="259.0" y="884.0" type="curve" smooth="yes"/>
      <point x="259.0" y="1033.5" type="line" smooth="yes"/>
      <point x="259.0" y="1083.0"/>
      <point x="274.5" y="1110.5"/>
      <point x="314.0" y="1110.5" type="curve" smooth="yes"/>
      <point x="353.0" y="1110.5"/>
      <point x="368.5" y="1083.0"/>
      <point x="368.5" y="1033.5" type="curve" smooth="yes"/>
      <point x="368.5" y="884.0" type="line" smooth="yes"/>
      <point x="368.5" y="833.5"/>
      <point x="353.0" y="805.5"/>
    </contour>
  </outline>
</glyph>
<glyph name="guillemetright" format="2">
  <advance width="931.5"/>
  <unicode hex="00BB"/>
  <outline>
    <contour>
      <point x="210.0" y="495.5" type="line"/>
      <point x="7.5" y="81.5" type="line"/>
      <point x="305.5" y="81.5" type="line"/>
      <point x="499.5" y="471.5" type="line"/>
      <point x="499.5" y="526.5" type="line"/>
      <point x="305.5" y="910.5" type="line"/>
      <point x="7.5" y="910.5" type="line"/>
    </contour>
    <contour>
      <point x="618.0" y="495.5" type="line"/>
      <point x="415.5" y="81.5" type="line"/>
      <point x="713.5" y="81.5" type="line"/>
      <point x="907.5" y="471.5" type="line"/>
      <point x="907.5" y="526.5" type="line"/>
      <point x="713.5" y="910.5" type="line"/>
      <point x="415.5" y="910.5" type="line"/>
    </contour>
  </outline>
</glyph>
<glyph name="questiondown" format="2">
  <advance width="766.0"/>
  <unicode hex="00BF"/>
  <outline>
    <contour>
      <point x="590.5" y="589.0" type="line"/>
      <point x="457.0" y="555.0" type="line" smooth="yes"/>
      <point x="175.5" y="485.0"/>
      <point x="41.0" y="366.5"/>
      <point x="41.0" y="105.5" type="curve" smooth="yes"/>
      <point x="41.0" y="56.5" type="line" smooth="yes"/>
      <point x="41.0" y="-174.0"/>
      <point x="164.5" y="-308.0"/>
      <point x="421.5" y="-308.0" type="curve" smooth="yes"/>
      <point x="541.0" y="-308.0"/>
      <point x="645.5" y="-280.0"/>
      <point x="711.0" y="-250.5" type="curve"/>
      <point x="744.5" y="29.0" type="line"/>
      <point x="670.0" y="-0.5"/>
      <point x="595.5" y="-20.0"/>
      <point x="518.5" y="-20.0" type="curve" smooth="yes"/>
      <point x="415.5" y="-20.0"/>
      <point x="377.0" y="21.0"/>
      <point x="377.0" y="98.0" type="curve" smooth="yes"/>
      <point x="377.0" y="114.0" type="line" smooth="yes"/>
      <point x="377.0" y="192.5"/>
      <point x="404.5" y="234.5"/>
      <point x="521.0" y="266.0" type="curve" smooth="yes"/>
      <point x="590.5" y="283.5" type="line"/>
    </contour>
    <contour>
      <point x="475.5" y="1024.0" type="curve" smooth="yes"/>
      <point x="360.0" y="1024.0"/>
      <point x="302.5" y="956.5"/>
      <point x="302.5" y="841.0" type="curve" smooth="yes"/>
      <point x="302.5" y="827.0" type="line" smooth="yes"/>
      <point x="302.5" y="713.0"/>
      <point x="360.0" y="644.0"/>
      <point x="475.5" y="644.0" type="curve" smooth="yes"/>
      <point x="593.5" y="644.0"/>
      <point x="648.0" y="713.0"/>
      <point x="648.0" y="827.0" type="curve" smooth="yes"/>
      <point x="648.0" y="841.0" type="line" smooth="yes"/>
      <point x="648.0" y="956.5"/>
      <point x="593.5" y="1024.0"/>
    </contour>
  </outline>
</glyph>
<glyph name="AE" format="2">
  <advance width="1534.5"/>
  <unicode hex="00C6"/>
  <anchor x="767.0" y="0.0" name="bottom"/>
  <anchor x="767.0" y="1278.0" name="top"/>
  <outline>
    <contour>
      <point x="11.0" y="0.0" type="line"/>
      <point x="358.5" y="0.0" type="line"/>
      <point x="670.5" y="1046.5" type="line"/>
      <point x="758.0" y="1046.5" type="line"/>
      <point x="759.0" y="1278.0" type="line"/>
      <point x="427.5" y="1278.0" type="line"/>
    </contour>
    <contour>
      <point x="293.5" y="280.0" type="line"/>
      <point x="761.5" y="280.0" type="line"/>
      <point x="761.5" y="537.5" type="line"/>
      <point x="293.5" y="537.5" type="line"/>
    </contour>
    <contour>
      <point x="861.5" y="0.0" type="line"/>
      <point x="1470.5" y="0.0" type="line"/>
      <point x="1470.5" y="290.5" type="line"/>
      <point x="861.5" y="290.5" type="line"/>
    </contour>
    <contour>
      <point x="704.0" y="0.0" type="line"/>
      <point x="1035.0" y="0.0" type="line"/>
      <point x="1035.0" y="1278.0" type="line"/>
      <point x="704.0" y="1278.0" type="line"/>
    </contour>
    <contour>
      <point x="913.0" y="509.0" type="line"/>
      <point x="1452.5" y="509.0" type="line"/>
      <point x="1452.5" y="787.0" type="line"/>
      <point x="913.0" y="787.0" type="line"/>
    </contour>
    <contour>
      <point x="861.5" y="991.0" type="line"/>
      <point x="1466.0" y="991.0" type="line"/>
      <point x="1466.0" y="1278.0" type="line"/>
      <point x="861.5" y="1278.0" type="line"/>
    </contour>
  </outline>
</glyph>
<glyph name="Eth" format="2">
  <advance width="1084.5"/>
  <unicode hex="00D0"/>
  <anchor x="524.0" y="0.0" name="bottom"/>
  <anchor x="542.5" y="639.0" name="center"/>
  <anchor x="524.0" y="1278.0" name="top"/>
  <outline>
    <contour>
      <point x="2.0" y="553.0" type="line"/>
      <point x="566.5" y="552.5" type="line"/>
      <point x="566.5" y="743.5" type="line"/>
      <point x="2.0" y="744.0" type="line"/>
    </contour>
    <component base="D"/>
  </outline>
</glyph>
<glyph name="multiply" format="2">
  <advance width="836.0"/>
  <unicode hex="00D7"/>
  <outline>
    <contour>
      <point x="800.5" y="412.5" type="line"/>
      <point x="228.0" y="1001.0" type="line"/>
      <point x="37.0" y="838.0" type="line"/>
      <point x="610.5" y="249.0" type="line"/>
    </contour>
    <contour>
      <point x="35.5" y="412.5" type="line"/>
      <point x="225.5" y="249.0" type="line"/>
      <point x="798.5" y="838.0" type="line"/>
      <point x="608.0" y="1001.0" type="line"/>
    </contour>
  </outline>
</glyph>
<glyph name="Oslash" format="2">
  <advance width="1103.0"/>
  <unicode hex="00D8"/>
  <anchor x="551.5" y="0.0" name="bottom"/>
  <anchor x="551.5" y="639.5" name="center"/>
  <anchor x="998.5" y="10.5" name="ogonek"/>
  <anchor x="551.5" y="1278.0" name="top"/>
  <anchor x="12.5" y="1278.5" name="topleft"/>
  <anchor x="1090.0" y="1278.5" name="topright"/>
  <outline>
    <contour>
      <point x="556.0" y="-28.5" type="curve" smooth="yes"/>
      <point x="877.5" y="-28.5"/>
      <point x="1041.5" y="144.0"/>
      <point x="1041.5" y="477.0" type="curve" smooth="yes"/>
      <point x="1041.5" y="797.0" type="line" smooth="yes"/>
      <point x="1041.5" y="1118.0"/>
      <point x="857.5" y="1304.5"/>
      <point x="547.0" y="1304.5" type="curve" smooth="yes"/>
      <point x="225.5" y="1304.5"/>
      <point x="61.5" y="1128.0"/>
      <point x="61.5" y="799.0" type="curve" smooth="yes"/>
      <point x="61.5" y="479.0" type="line" smooth="yes"/>
      <point x="61.5" y="154.0"/>
      <point x="245.5" y="-28.5"/>
    </contour>
    <contour>
      <point x="100.5" y="-72.0" type="line"/>
      <point x="260.5" y="-72.0" type="line"/>
      <point x="373.0" y="139.0" type="line"/>
      <point x="410.5" y="203.5" type="line"/>
      <point x="786.5" y="965.0" type="line"/>
      <point x="853.0" y="1073.5" type="line"/>
      <point x="1002.5" y="1351.0" type="line"/>
      <point x="842.5" y="1351.0" type="line"/>
      <point x="753.0" y="1181.0" type="line"/>
      <point x="704.0" y="1083.0" type="line"/>
      <point x="325.5" y="313.0" type="line"/>
      <point x="259.5" y="217.0" type="line"/>
    </contour>
    <contour>
      <point x="551.5" y="251.5" type="curve" smooth="yes"/>
      <point x="445.0" y="251.5"/>
      <point x="399.5" y="314.5"/>
      <point x="399.5" y="453.0" type="curve" smooth="yes"/>
      <point x="399.5" y="818.5" type="line" smooth="yes"/>
      <point x="399.5" y="956.5"/>
      <point x="444.0" y="1024.5"/>
      <point x="551.5" y="1024.5" type="curve" smooth="yes"/>
      <point x="662.5" y="1024.5"/>
      <point x="703.5" y="956.5"/>
      <point x="703.5" y="823.5" type="curve" smooth="yes"/>
      <point x="703.5" y="458.0" type="line" smooth="yes"/>
      <point x="703.5" y="319.5"/>
      <point x="658.5" y="251.5"/>
    </contour>
  </outline>
</glyph>
<glyph name="Thorn" format="2">
  <advance width="1036.0"/>
  <unicode hex="00DE"/>
  <anchor x="518.5" y="0.0" name="bottom"/>
  <anchor x="518.5" y="1278.0" name="top"/>
  <outline>
    <contour>
      <point x="308.5" y="177.5" type="line"/>
      <point x="553.5" y="177.5" type="line" smooth="yes"/>
      <point x="858.0" y="177.5"/>
      <point x="992.5" y="313.5"/>
      <point x="992.5" y="590.5" type="curve" smooth="yes"/>
      <point x="992.5" y="699.5" type="line" smooth="yes"/>
      <point x="992.5" y="970.0"/>
      <point x="858.0" y="1113.5"/>
      <point x="550.5" y="1113.5" type="curve" smooth="yes"/>
      <point x="308.5" y="1113.5" type="line"/>
      <point x="308.5" y="835.0" type="line"/>
      <point x="529.0" y="835.0" type="line" smooth="yes"/>
      <point x="624.0" y="835.0"/>
      <point x="658.0" y="793.5"/>
      <point x="658.0" y="692.0" type="curve" smooth="yes"/>
      <point x="658.0" y="598.5" type="line" smooth="yes"/>
      <point x="658.0" y="497.0"/>
      <point x="624.0" y="456.5"/>
      <point x="529.0" y="456.5" type="curve" smooth="yes"/>
      <point x="308.5" y="456.5" type="line"/>
    </contour>
    <contour>
      <point x="89.0" y="0.0" type="line"/>
      <point x="423.0" y="0.0" type="line"/>
      <point x="423.0" y="242.0" type="line"/>
      <point x="421.0" y="365.5" type="line"/>
      <point x="421.0" y="922.5" type="line"/>
      <point x="423.0" y="1062.5" type="line"/>
      <point x="423.0" y="1278.0" type="line"/>
      <point x="89.0" y="1278.0" type="line"/>
    </contour>
  </outline>
</glyph>
<glyph name="germandbls" format="2">
  <advance width="1113.5"/>
  <unicode hex="00DF"/>
  <anchor x="536.5" y="0.0" name="bottom"/>
  <anchor x="536.5" y="995.5" name="top"/>
  <outline>
    <contour>
      <point x="79.0" y="1001.0" type="curve" smooth="yes"/>
      <point x="79.0" y="0.0" type="line"/>
      <point x="403.5" y="0.0" type="line"/>
      <point x="403.5" y="984.0" type="line" smooth="yes"/>
      <point x="403.5" y="1053.0"/>
      <point x="433.5" y="1092.0"/>
      <point x="508.0" y="1092.0" type="curve" smooth="yes"/>
      <point x="571.5" y="1092.0"/>
      <point x="606.0" y="1067.5"/>
      <point x="606.0" y="1015.5" type="curve" smooth="yes"/>
      <point x="606.0" y="930.0"/>
      <point x="457.0" y="866.5"/>
      <point x="457.0" y="701.0" type="curve" smooth="yes"/>
      <point x="457.0" y="695.5" type="line" smooth="yes"/>
      <point x="457.0" y="565.0"/>
      <point x="508.0" y="518.5"/>
      <point x="640.0" y="442.0" type="curve" smooth="yes"/>
      <point x="726.5" y="388.5"/>
      <point x="751.5" y="368.0"/>
      <point x="751.5" y="325.0" type="curve" smooth="yes"/>
      <point x="751.5" y="322.0" type="line" smooth="yes"/>
      <point x="751.5" y="283.5"/>
      <point x="723.0" y="255.5"/>
      <point x="653.0" y="255.5" type="curve" smooth="yes"/>
      <point x="582.0" y="255.5"/>
      <point x="521.0" y="276.0"/>
      <point x="465.0" y="297.5" type="curve"/>
      <point x="488.5" y="21.0" type="line"/>
      <point x="545.5" y="0.5"/>
      <point x="616.0" y="-16.0"/>
      <point x="714.5" y="-16.0" type="curve" smooth="yes"/>
      <point x="935.5" y="-16.0"/>
      <point x="1077.0" y="89.5"/>
      <point x="1077.0" y="295.5" type="curve" smooth="yes"/>
      <point x="1077.0" y="308.0" type="line" smooth="yes"/>
      <point x="1077.0" y="476.5"/>
      <point x="1010.0" y="535.5"/>
      <point x="902.5" y="603.0" type="curve" smooth="yes"/>
      <point x="811.0" y="657.0"/>
      <point x="777.5" y="681.0"/>
      <point x="777.5" y="729.0" type="curve" smooth="yes"/>
      <point x="777.5" y="735.0" type="line" smooth="yes"/>
      <point x="777.5" y="821.5"/>
      <point x="933.0" y="878.0"/>
      <point x="933.0" y="1053.5" type="curve"/>
      <point x="933.0" y="1256.5"/>
      <point x="769.5" y="1354.5"/>
      <point x="511.5" y="1354.5" type="curve" smooth="yes"/>
      <point x="203.5" y="1354.5"/>
      <point x="79.0" y="1237.0"/>
    </contour>
  </outline>
</glyph>
<glyph name="ae" format="2">
  <advance width="1434.0"/>
  <unicode hex="00E6"/>
  <anchor x="717.0" y="0.0" name="bottom"/>
  <anchor x="717.0" y="995.5" name="top"/>
  <outline>
    <contour>
      <point x="1035.5" y="-21.0" type="curve" smooth="yes"/>
      <point x="1161.5" y="-21.0"/>
      <point x="1270.5" y="2.5"/>
      <point x="1346.5" y="41.5" type="curve"/>
      <point x="1369.5" y="291.5" type="line"/>
      <point x="1287.5" y="262.5"/>
      <point x="1196.0" y="244.5"/>
      <point x="1099.0" y="244.5" type="curve" smooth="yes"/>
      <point x="920.5" y="244.5"/>
      <point x="861.5" y="304.5"/>
      <point x="861.5" y="399.0" type="curve" smooth="yes"/>
      <point x="861.5" y="465.5" type="line"/>
      <point x="859.0" y="508.5" type="line"/>
      <point x="859.0" y="621.5" type="line" smooth="yes"/>
      <point x="859.0" y="715.5"/>
      <point x="888.5" y="769.5"/>
      <point x="969.5" y="769.5" type="curve" smooth="yes"/>
      <point x="1050.0" y="769.5"/>
      <point x="1079.5" y="721.5"/>
      <point x="1079.5" y="623.0" type="curve" smooth="yes"/>
      <point x="1079.5" y="565.5"/>
      <point x="1078.5" y="485.5"/>
      <point x="1076.0" y="385.0" type="curve"/>
      <point x="1369.0" y="385.0" type="line"/>
      <point x="1379.0" y="436.5"/>
      <point x="1383.5" y="496.5"/>
      <point x="1383.5" y="553.0" type="curve" smooth="yes"/>
      <point x="1383.5" y="608.5" type="line" smooth="yes"/>
      <point x="1383.5" y="874.0"/>
      <point x="1258.5" y="1021.0"/>
      <point x="1009.5" y="1021.0" type="curve" smooth="yes"/>
      <point x="859.0" y="1021.0"/>
      <point x="759.0" y="963.5"/>
      <point x="702.0" y="853.0" type="curve"/>
      <point x="691.0" y="853.0" type="line"/>
      <point x="646.0" y="955.0"/>
      <point x="559.5" y="1018.0"/>
      <point x="408.0" y="1018.0" type="curve" smooth="yes"/>
      <point x="284.5" y="1018.0"/>
      <point x="182.5" y="982.5"/>
      <point x="110.0" y="942.5" type="curve"/>
      <point x="86.0" y="681.5" type="line"/>
      <point x="172.5" y="716.5"/>
      <point x="274.5" y="750.0"/>
      <point x="380.5" y="750.0" type="curve" smooth="yes"/>
      <point x="498.5" y="750.0"/>
      <point x="540.5" y="708.0"/>
      <point x="540.5" y="610.5" type="curve"/>
      <point x="545.0" y="484.0" type="line"/>
      <point x="545.0" y="407.0"/>
      <point x="548.0" y="352.5"/>
      <point x="562.5" y="278.5" type="curve"/>
      <point x="581.0" y="222.5" type="line"/>
      <point x="636.5" y="67.5"/>
      <point x="785.0" y="-21.0"/>
    </contour>
    <contour>
      <point x="306.5" y="-19.5" type="curve" smooth="yes"/>
      <point x="484.0" y="-19.5"/>
      <point x="552.0" y="61.5"/>
      <point x="598.0" y="164.0" type="curve"/>
      <point x="646.0" y="164.0" type="line"/>
      <point x="566.5" y="321.0" type="line"/>
      <point x="546.5" y="269.0"/>
      <point x="504.5" y="233.5"/>
      <point x="433.0" y="233.5" type="curve" smooth="yes"/>
      <point x="373.5" y="233.5"/>
      <point x="351.5" y="266.0"/>
      <point x="351.5" y="318.0" type="curve" smooth="yes"/>
      <point x="351.5" y="332.0" type="line" smooth="yes"/>
      <point x="351.5" y="382.0"/>
      <point x="376.0" y="405.5"/>
      <point x="440.0" y="417.0" type="curve" smooth="yes"/>
      <point x="600.5" y="445.5" type="line"/>
      <point x="573.0" y="647.0" type="line"/>
      <point x="371.0" y="614.0" type="line" smooth="yes"/>
      <point x="142.5" y="576.0"/>
      <point x="40.0" y="501.0"/>
      <point x="40.0" y="303.5" type="curve" smooth="yes"/>
      <point x="40.0" y="269.0" type="line" smooth="yes"/>
      <point x="40.0" y="85.0"/>
      <point x="125.5" y="-19.5"/>
    </contour>
    <contour>
      <point x="733.5" y="385.0" type="line"/>
      <point x="1300.5" y="385.0" type="line"/>
      <point x="1300.5" y="591.0" type="line"/>
      <point x="733.5" y="591.0" type="line"/>
    </contour>
  </outline>
</glyph>
<glyph name="eth" format="2">
  <advance width="977.5"/>
  <unicode hex="00F0"/>
  <outline>
    <contour>
      <point x="489.0" y="-25.0" type="curve" smooth="yes"/>
      <point x="776.0" y="-25.0"/>
      <point x="924.5" y="129.0"/>
      <point x="924.5" y="421.0" type="curve"/>
      <point x="924.5" y="579.5" type="line"/>
      <point x="924.5" y="869.5"/>
      <point x="799.5" y="1036.0"/>
      <point x="551.0" y="1321.5" type="curve"/>
      <point x="177.5" y="1321.5" type="line"/>
      <point x="177.5" y="1321.5" type="line"/>
      <point x="456.5" y="992.0"/>
      <point x="579.5" y="873.5"/>
      <point x="589.5" y="691.0" type="curve"/>
      <point x="590.5" y="665.5"/>
      <point x="592.5" y="640.0"/>
      <point x="593.5" y="614.5" type="curve"/>
      <point x="593.5" y="537.5"/>
      <point x="593.5" y="460.5"/>
      <point x="593.5" y="394.0" type="curve" smooth="yes"/>
      <point x="593.5" y="290.0"/>
      <point x="561.5" y="240.0"/>
      <point x="488.5" y="240.0" type="curve" smooth="yes"/>
      <point x="415.5" y="240.0"/>
      <point x="383.0" y="290.0"/>
      <point x="383.0" y="394.0" type="curve" smooth="yes"/>
      <point x="383.0" y="495.0" type="line" smooth="yes"/>
      <point x="383.0" y="594.5"/>
      <point x="415.0" y="645.0"/>
      <point x="486.0" y="645.0" type="curve" smooth="yes"/>
      <point x="559.5" y="645.0"/>
      <point x="593.5" y="595.0"/>
      <point x="593.5" y="500.5" type="curve"/>
      <point x="668.0" y="732.5" type="line"/>
      <point x="573.0" y="732.5" type="line"/>
      <point x="543.5" y="826.5"/>
      <point x="485.5" y="901.0"/>
      <point x="351.5" y="901.0" type="curve" smooth="yes"/>
      <point x="155.0" y="901.0"/>
      <point x="53.0" y="753.0"/>
      <point x="53.0" y="480.0" type="curve" smooth="yes"/>
      <point x="53.0" y="416.0" type="line" smooth="yes"/>
      <point x="53.0" y="127.5"/>
      <point x="202.0" y="-25.0"/>
    </contour>
    <contour>
      <point x="167.5" y="959.0" type="line"/>
      <point x="888.0" y="1106.5" type="line"/>
      <point x="888.0" y="1270.5" type="line"/>
      <point x="167.5" y="1124.0" type="line"/>
    </contour>
  </outline>
</glyph>
<glyph name="divide" format="2">
  <advance width="880.5"/>
  <unicode hex="00F7"/>
  <outline>
    <contour>
      <point x="68.5" y="493.0" type="line"/>
      <point x="812.0" y="493.0" type="line"/>
      <point x="812.0" y="761.5" type="line"/>
      <point x="68.5" y="761.5" type="line"/>
    </contour>
    <contour>
      <point x="438.0" y="164.0" type="curve" smooth="yes"/>
      <point x="526.0" y="164.0"/>
      <point x="569.5" y="215.0"/>
      <point x="569.5" y="302.5" type="curve" smooth="yes"/>
      <point x="569.5" y="312.5" type="line" smooth="yes"/>
      <point x="569.5" y="399.0"/>
      <point x="526.0" y="452.0"/>
      <point x="438.0" y="452.0" type="curve" smooth="yes"/>
      <point x="348.0" y="452.0"/>
      <point x="306.5" y="399.0"/>
      <point x="306.5" y="312.5" type="curve" smooth="yes"/>
      <point x="306.5" y="302.5" type="line" smooth="yes"/>
      <point x="306.5" y="215.0"/>
      <point x="348.0" y="164.0"/>
    </contour>
    <contour>
      <point x="438.0" y="804.0" type="curve" smooth="yes"/>
      <point x="526.0" y="804.0"/>
      <point x="569.5" y="855.0"/>
      <point x="569.5" y="942.5" type="curve" smooth="yes"/>
      <point x="569.5" y="952.5" type="line" smooth="yes"/>
      <point x="569.5" y="1039.0"/>
      <point x="526.0" y="1092.0"/>
      <point x="438.0" y="1092.0" type="curve" smooth="yes"/>
      <point x="348.0" y="1092.0"/>
      <point x="306.5" y="1039.0"/>
      <point x="306.5" y="952.5" type="curve" smooth="yes"/>
      <point x="306.5" y="942.5" type="line" smooth="yes"/>
      <point x="306.5" y="855.0"/>
      <point x="348.0" y="804.0"/>
    </contour>
  </outline>
</glyph>
<glyph name="oslash" format="2">
  <advance width="977.5"/>
  <unicode hex="00F8"/>
  <anchor x="489.5" y="0.0" name="bottom"/>
  <anchor x="489.5" y="498.0" name="center"/>
  <anchor x="883.0" y="10.0" name="ogonek"/>
  <anchor x="489.5" y="995.5" name="top"/>
  <anchor x="961.5" y="995.5" name="topright"/>
  <outline>
    <contour>
      <point x="489.0" y="-21.5" type="curve" smooth="yes"/>
      <point x="776.0" y="-21.5"/>
      <point x="924.5" y="132.0"/>
      <point x="924.5" y="424.5" type="curve"/>
      <point x="924.5" y="582.5" type="line"/>
      <point x="924.5" y="852.0"/>
      <point x="759.0" y="1018.0"/>
      <point x="489.0" y="1018.0" type="curve" smooth="yes"/>
      <point x="202.0" y="1018.0"/>
      <point x="53.0" y="865.0"/>
      <point x="53.0" y="572.5" type="curve"/>
      <point x="53.0" y="414.5" type="line"/>
      <point x="53.0" y="145.0"/>
      <point x="219.0" y="-21.5"/>
    </contour>
    <contour>
      <point x="116.5" y="-72.0" type="line"/>
      <point x="252.0" y="-72.0" type="line"/>
      <point x="334.0" y="72.5" type="line"/>
      <point x="381.5" y="166.0" type="line"/>
      <point x="672.5" y="738.5" type="line"/>
      <point x="737.0" y="845.0" type="line"/>
      <point x="861.0" y="1067.5" type="line"/>
      <point x="726.0" y="1067.5" type="line"/>
      <point x="643.0" y="917.5" type="line"/>
      <point x="599.5" y="827.0" type="line"/>
      <point x="306.5" y="246.5" type="line"/>
      <point x="238.5" y="145.0" type="line"/>
    </contour>
    <contour>
      <point x="489.0" y="237.5" type="curve" smooth="yes"/>
      <point x="402.0" y="237.5"/>
      <point x="370.5" y="290.0"/>
      <point x="370.5" y="387.0" type="curve" smooth="yes"/>
      <point x="370.5" y="598.0" type="line" smooth="yes"/>
      <point x="370.5" y="706.0"/>
      <point x="406.5" y="759.0"/>
      <point x="489.0" y="759.0" type="curve" smooth="yes"/>
      <point x="576.0" y="759.0"/>
      <point x="607.0" y="707.0"/>
      <point x="607.0" y="611.0" type="curve" smooth="yes"/>
      <point x="607.0" y="399.0" type="line" smooth="yes"/>
      <point x="607.0" y="290.5"/>
      <point x="571.5" y="237.5"/>
    </contour>
  </outline>
</glyph>
<glyph name="thorn" format="2">
  <advance width="1008.5"/>
  <unicode hex="00FE"/>
  <anchor x="509.0" y="0.0" name="bottom"/>
  <anchor x="509.0" y="995.5" name="top"/>
  <outline>
    <contour>
      <point x="659.0" y="-19.5" type="curve" smooth="yes"/>
      <point x="862.0" y="-19.5"/>
      <point x="952.0" y="126.5"/>
      <point x="952.0" y="413.5" type="curve" smooth="yes"/>
      <point x="952.0" y="579.0" type="line" smooth="yes"/>
      <point x="952.0" y="867.5"/>
      <point x="860.5" y="1015.0"/>
      <point x="665.5" y="1015.0" type="curve" smooth="yes"/>
      <point x="503.5" y="1015.0"/>
      <point x="439.5" y="920.0"/>
      <point x="416.5" y="794.0" type="curve"/>
      <point x="336.0" y="794.0" type="line"/>
      <point x="401.5" y="665.5" type="line"/>
      <point x="417.0" y="712.5"/>
      <point x="459.0" y="747.0"/>
      <point x="516.0" y="747.0" type="curve" smooth="yes"/>
      <point x="588.5" y="747.0"/>
      <point x="618.5" y="699.5"/>
      <point x="618.5" y="599.0" type="curve" smooth="yes"/>
      <point x="618.5" y="406.0" type="line" smooth="yes"/>
      <point x="618.5" y="306.0"/>
      <point x="587.0" y="256.5"/>
      <point x="515.0" y="256.5" type="curve" smooth="yes"/>
      <point x="441.5" y="256.5"/>
      <point x="406.5" y="306.5"/>
      <point x="405.5" y="396.0" type="curve"/>
      <point x="342.5" y="204.0" type="line"/>
      <point x="413.5" y="204.0" type="line"/>
      <point x="436.0" y="73.0"/>
      <point x="503.0" y="-19.5"/>
    </contour>
    <contour>
      <point x="79.0" y="-347.0" type="line"/>
      <point x="409.5" y="-347.0" type="line"/>
      <point x="409.5" y="-38.5" type="line"/>
      <point x="402.5" y="241.5" type="line"/>
      <point x="405.5" y="286.0" type="line"/>
      <point x="405.5" y="713.5" type="line"/>
      <point x="405.0" y="753.0" type="line"/>
      <point x="409.5" y="1069.0" type="line"/>
      <point x="409.5" y="1321.5" type="line"/>
      <point x="79.0" y="1321.5" type="line"/>
    </contour>
  </outline>
</glyph>
<glyph name="idotless" format="2">
  <advance width="490.5"/>
  <unicode hex="0131"/>
  <anchor x="245.0" y="0.0" name="bottom"/>
  <anchor x="436.0" y="0.0" name="ogonek"/>
  <anchor x="245.0" y="995.5" name="top"/>
  <outline>
    <contour>
      <point x="79.0" y="0.0" type="line"/>
      <point x="411.5" y="0.0" type="line"/>
      <point x="411.5" y="995.5" type="line"/>
      <point x="79.0" y="995.5" type="line"/>
    </contour>
  </outline>
</glyph>
<glyph name="OE" format="2">
  <advance width="1527.0"/>
  <unicode hex="0152"/>
  <anchor x="763.5" y="0.0" name="bottom"/>
  <anchor x="763.5" y="1278.0" name="top"/>
  <outline>
    <contour>
      <point x="549.5" y="-30.0" type="curve" smooth="yes"/>
      <point x="877.0" y="-30.0"/>
      <point x="1040.5" y="148.0"/>
      <point x="1040.5" y="477.0" type="curve" smooth="yes"/>
      <point x="1040.5" y="799.0" type="line" smooth="yes"/>
      <point x="1040.5" y="1124.0"/>
      <point x="877.0" y="1306.0"/>
      <point x="549.5" y="1306.0" type="curve" smooth="yes"/>
      <point x="225.5" y="1306.0"/>
      <point x="61.5" y="1129.0"/>
      <point x="61.5" y="799.0" type="curve" smooth="yes"/>
      <point x="61.5" y="477.0" type="line" smooth="yes"/>
      <point x="61.5" y="143.0"/>
      <point x="225.5" y="-30.0"/>
    </contour>
    <contour>
      <point x="551.5" y="252.5" type="curve" smooth="yes"/>
      <point x="449.5" y="252.5"/>
      <point x="407.0" y="319.0"/>
      <point x="407.0" y="454.0" type="curve" smooth="yes"/>
      <point x="407.0" y="822.5" type="line" smooth="yes"/>
      <point x="407.0" y="957.0"/>
      <point x="449.5" y="1023.5"/>
      <point x="551.5" y="1023.5" type="curve" smooth="yes"/>
      <point x="653.0" y="1023.5"/>
      <point x="696.0" y="957.0"/>
      <point x="696.0" y="822.5" type="curve" smooth="yes"/>
      <point x="696.0" y="454.0" type="line" smooth="yes"/>
      <point x="696.0" y="319.0"/>
      <point x="653.0" y="252.5"/>
    </contour>
    <contour>
      <point x="695.0" y="0.0" type="line"/>
      <point x="1463.0" y="0.0" type="line"/>
      <point x="1463.0" y="290.5" type="line"/>
      <point x="695.0" y="290.5" type="line"/>
    </contour>
    <contour>
      <point x="911.5" y="509.0" type="line"/>
      <point x="1445.0" y="509.0" type="line"/>
      <point x="1445.0" y="787.0" type="line"/>
      <point x="911.5" y="787.0" type="line"/>
    </contour>
    <contour>
      <point x="695.0" y="991.0" type="line"/>
      <point x="1458.5" y="991.0" type="line"/>
      <point x="1458.5" y="1278.0" type="line"/>
      <point x="695.0" y="1278.0" type="line"/>
    </contour>
  </outline>
</glyph>
<glyph name="oe" format="2">
  <advance width="1489.5"/>
  <unicode hex="0153"/>
  <anchor x="744.5" y="0.0" name="bottom"/>
  <anchor x="744.5" y="995.5" name="top"/>
  <outline>
    <contour>
      <point x="441.0" y="-25.0" type="curve" smooth="yes"/>
      <point x="594.0" y="-25.0"/>
      <point x="693.5" y="37.5"/>
      <point x="746.0" y="148.5" type="curve"/>
      <point x="756.0" y="148.5" type="line"/>
      <point x="822.5" y="36.5"/>
      <point x="937.5" y="-21.0"/>
      <point x="1113.5" y="-21.0" type="curve" smooth="yes"/>
      <point x="1229.0" y="-21.0"/>
      <point x="1330.5" y="2.5"/>
      <point x="1402.0" y="41.5" type="curve"/>
      <point x="1425.0" y="291.5" type="line"/>
      <point x="1343.0" y="262.5"/>
      <point x="1251.5" y="244.5"/>
      <point x="1154.5" y="244.5" type="curve" smooth="yes"/>
      <point x="981.0" y="244.5"/>
      <point x="917.0" y="300.5"/>
      <point x="917.0" y="399.0" type="curve" smooth="yes"/>
      <point x="917.0" y="464.0" type="line"/>
      <point x="914.5" y="508.0" type="line"/>
      <point x="914.5" y="622.5" type="line" smooth="yes"/>
      <point x="914.5" y="715.0"/>
      <point x="944.0" y="769.5"/>
      <point x="1025.0" y="769.5" type="curve" smooth="yes"/>
      <point x="1105.5" y="769.5"/>
      <point x="1135.0" y="721.5"/>
      <point x="1135.0" y="623.0" type="curve" smooth="yes"/>
      <point x="1135.0" y="569.5"/>
      <point x="1134.0" y="488.0"/>
      <point x="1131.5" y="385.0" type="curve"/>
      <point x="1424.5" y="385.0" type="line"/>
      <point x="1434.5" y="436.5"/>
      <point x="1439.0" y="496.5"/>
      <point x="1439.0" y="553.0" type="curve" smooth="yes"/>
      <point x="1439.0" y="608.5" type="line" smooth="yes"/>
      <point x="1439.0" y="874.0"/>
      <point x="1313.5" y="1021.0"/>
      <point x="1064.0" y="1021.0" type="curve" smooth="yes"/>
      <point x="914.0" y="1021.0"/>
      <point x="812.0" y="961.5"/>
      <point x="754.0" y="848.0" type="curve"/>
      <point x="744.0" y="848.0" type="line"/>
      <point x="690.5" y="958.5"/>
      <point x="589.5" y="1021.5"/>
      <point x="440.5" y="1021.5" type="curve" smooth="yes"/>
      <point x="186.0" y="1021.5"/>
      <point x="53.0" y="867.5"/>
      <point x="53.0" y="572.5" type="curve" smooth="yes"/>
      <point x="53.0" y="424.5" type="line" smooth="yes"/>
      <point x="53.0" y="130.0"/>
      <point x="185.5" y="-25.0"/>
    </contour>
    <contour>
      <point x="789.0" y="385.0" type="line"/>
      <point x="1356.0" y="385.0" type="line"/>
      <point x="1356.0" y="591.0" type="line"/>
      <point x="789.0" y="591.0" type="line"/>
    </contour>
    <contour>
      <point x="487.5" y="240.0" type="curve" smooth="yes"/>
      <point x="415.5" y="240.0"/>
      <point x="383.5" y="290.5"/>
      <point x="383.5" y="394.0" type="curve" smooth="yes"/>
      <point x="383.5" y="603.0" type="line" smooth="yes"/>
      <point x="383.5" y="706.0"/>
      <point x="415.5" y="756.5"/>
      <point x="487.5" y="756.5" type="curve" smooth="yes"/>
      <point x="560.5" y="756.5"/>
      <point x="594.0" y="706.0"/>
      <point x="594.0" y="603.0" type="curve" smooth="yes"/>
      <point x="594.0" y="394.0" type="line" smooth="yes"/>
      <point x="594.0" y="290.5"/>
      <point x="560.5" y="240.0"/>
    </contour>
  </outline>
</glyph>
<glyph name="gravecomb" format="2">
  <unicode hex="0300"/>
  <anchor x="442.0" y="995.5" name="_top"/>
  <anchor x="348.0" y="1368.0" name="top"/>
  <outline>
    <contour>
      <point x="436.5" y="1371.0" type="line"/>
      <point x="106.5" y="1371.0" type="line"/>
      <point x="106.5" y="1369.0" type="line"/>
      <point x="319.5" y="1075.5" type="line"/>
      <point x="578.0" y="1075.5" type="line"/>
      <point x="578.0" y="1077.0" type="line"/>
    </contour>
  </outline>
</glyph>
<glyph name="acutecomb" format="2">
  <unicode hex="0301"/>
  <anchor x="229.0" y="995.5" name="_top"/>
  <anchor x="229.0" y="1368.0" name="top"/>
  <outline>
    <contour>
      <point x="234.0" y="1371.0" type="line"/>
      <point x="92.5" y="1077.0" type="line"/>
      <point x="92.5" y="1075.5" type="line"/>
      <point x="351.0" y="1075.5" type="line"/>
      <point x="564.0" y="1369.0" type="line"/>
      <point x="564.0" y="1371.0" type="line"/>
    </contour>
  </outline>
</glyph>
<glyph name="circumflexcomb" format="2">
  <unicode hex="0302"/>
  <anchor x="418.0" y="995.5" name="_top"/>
  <anchor x="418.0" y="1351.5" name="top"/>
  <outline>
    <contour>
      <point x="243.5" y="1371.0" type="line"/>
      <point x="100.0" y="1077.5" type="line"/>
      <point x="100.0" y="1075.5" type="line"/>
      <point x="335.5" y="1075.5" type="line"/>
      <point x="413.5" y="1212.0" type="line"/>
      <point x="422.0" y="1212.0" type="line"/>
      <point x="500.0" y="1075.5" type="line"/>
      <point x="735.5" y="1075.5" type="line"/>
      <point x="735.5" y="1077.5" type="line"/>
      <point x="591.5" y="1371.0" type="line"/>
    </contour>
  </outline>
</glyph>
<glyph name="tildecomb" format="2">
  <unicode hex="0303"/>
  <anchor x="413.25" y="995.5" name="_top"/>
  <anchor x="413.5" y="1368.0" name="top"/>
  <outline>
    <contour>
      <point x="538.5" y="1085.0" type="curve" smooth="yes"/>
      <point x="676.0" y="1085.0"/>
      <point x="726.5" y="1178.5"/>
      <point x="726.5" y="1313.0" type="curve" smooth="yes"/>
      <point x="726.5" y="1359.0" type="line"/>
      <point x="550.5" y="1359.0" type="line"/>
      <point x="550.5" y="1357.5" type="line" smooth="yes"/>
      <point x="550.0" y="1317.0"/>
      <point x="539.0" y="1297.5"/>
      <point x="506.0" y="1297.5" type="curve" smooth="yes"/>
      <point x="449.0" y="1297.5"/>
      <point x="385.5" y="1346.5"/>
      <point x="289.0" y="1346.5" type="curve" smooth="yes"/>
      <point x="150.5" y="1346.5"/>
      <point x="100.0" y="1250.0"/>
      <point x="100.0" y="1114.0" type="curve" smooth="yes"/>
      <point x="100.0" y="1072.5" type="line"/>
      <point x="275.5" y="1072.5" type="line"/>
      <point x="275.5" y="1074.0" type="line" smooth="yes"/>
      <point x="276.0" y="1114.0"/>
      <point x="287.0" y="1135.0"/>
      <point x="323.0" y="1135.0" type="curve" smooth="yes"/>
      <point x="379.0" y="1135.0"/>
      <point x="453.5" y="1085.0"/>
    </contour>
  </outline>
</glyph>
<glyph name="macroncomb" format="2">
  <unicode hex="0304"/>
  <anchor x="383.25" y="995.5" name="_top"/>
  <anchor x="384.0" y="1300.5" name="top"/>
  <outline>
    <contour>
      <point x="90.0" y="1093.5" type="line"/>
      <point x="677.0" y="1093.5" type="line"/>
      <point x="677.0" y="1294.0" type="line"/>
      <point x="90.0" y="1294.0" type="line"/>
    </contour>
  </outline>
</glyph>
<glyph name="dotaccentcomb" format="2">
  <unicode hex="0307"/>
  <anchor x="261.5" y="995.5" name="_top"/>
  <anchor x="261.5" y="1363.0" name="top"/>
  <outline>
    <contour>
      <point x="260.5" y="1060.0" type="curve" smooth="yes"/>
      <point x="369.0" y="1060.0"/>
      <point x="423.0" y="1119.0"/>
      <point x="423.0" y="1215.5" type="curve" smooth="yes"/>
      <point x="423.0" y="1222.5" type="line" smooth="yes"/>
      <point x="423.0" y="1319.5"/>
      <point x="369.0" y="1379.5"/>
      <point x="260.5" y="1379.5" type="curve" smooth="yes"/>
      <point x="153.5" y="1379.5"/>
      <point x="100.0" y="1319.5"/>
      <point x="100.0" y="1222.5" type="curve" smooth="yes"/>
      <point x="100.0" y="1215.5" type="line" smooth="yes"/>
      <point x="100.0" y="1119.0"/>
      <point x="153.5" y="1060.0"/>
    </contour>
  </outline>
</glyph>
<glyph name="dieresiscomb" format="2">
  <unicode hex="0308"/>
  <anchor x="410.0" y="995.5" name="_top"/>
  <anchor x="410.0" y="1363.0" name="top"/>
  <outline>
    <contour>
      <point x="242.0" y="1064.5" type="curve" smooth="yes"/>
      <point x="338.5" y="1064.5"/>
      <point x="386.0" y="1118.0"/>
      <point x="386.0" y="1214.5" type="curve" smooth="yes"/>
      <point x="386.0" y="1224.0" type="line" smooth="yes"/>
      <point x="386.0" y="1321.0"/>
      <point x="338.5" y="1375.0"/>
      <point x="242.0" y="1375.0" type="curve" smooth="yes"/>
      <point x="147.0" y="1375.0"/>
      <point x="100.0" y="1321.0"/>
      <point x="100.0" y="1224.0" type="curve" smooth="yes"/>
      <point x="100.0" y="1214.5" type="line" smooth="yes"/>
      <point x="100.0" y="1118.0"/>
      <point x="147.0" y="1064.5"/>
    </contour>
    <contour>
      <point x="576.5" y="1064.5" type="curve" smooth="yes"/>
      <point x="671.5" y="1064.5"/>
      <point x="719.5" y="1118.0"/>
      <point x="719.5" y="1214.5" type="curve" smooth="yes"/>
      <point x="719.5" y="1224.0" type="line" smooth="yes"/>
      <point x="719.5" y="1321.0"/>
      <point x="671.5" y="1375.0"/>
      <point x="576.5" y="1375.0" type="curve" smooth="yes"/>
      <point x="480.5" y="1375.0"/>
      <point x="434.5" y="1321.0"/>
      <point x="434.5" y="1224.0" type="curve" smooth="yes"/>
      <point x="434.5" y="1214.5" type="line" smooth="yes"/>
      <point x="434.5" y="1118.0"/>
      <point x="480.0" y="1064.5"/>
    </contour>
  </outline>
</glyph>
<glyph name="ringcomb" format="2">
  <unicode hex="030A"/>
  <anchor x="326.25" y="995.5" name="_top"/>
  <anchor x="326.0" y="1419.5" name="top"/>
  <outline>
    <contour>
      <point x="99.5" y="1244.0" type="line" smooth="yes"/>
      <point x="99.5" y="1139.5"/>
      <point x="165.5" y="1060.5"/>
      <point x="326.0" y="1060.5" type="curve" smooth="yes"/>
      <point x="486.5" y="1060.5"/>
      <point x="553.0" y="1139.5"/>
      <point x="553.0" y="1244.0" type="curve" smooth="yes"/>
      <point x="553.0" y="1251.0" type="line" smooth="yes"/>
      <point x="553.0" y="1356.5"/>
      <point x="486.5" y="1435.0"/>
      <point x="326.0" y="1435.0" type="curve" smooth="yes"/>
      <point x="165.5" y="1435.0"/>
      <point x="99.5" y="1356.5"/>
      <point x="99.5" y="1251.0" type="curve" smooth="yes"/>
    </contour>
    <contour>
      <point x="255.5" y="1246.0" type="curve" smooth="yes"/>
      <point x="255.5" y="1250.0" type="line" smooth="yes"/>
      <point x="255.5" y="1287.0"/>
      <point x="281.0" y="1308.0"/>
      <point x="326.0" y="1308.0" type="curve" smooth="yes"/>
      <point x="370.5" y="1308.0"/>
      <point x="396.0" y="1287.0"/>
      <point x="396.0" y="1250.0" type="curve" smooth="yes"/>
      <point x="396.0" y="1246.0" type="line" smooth="yes"/>
      <point x="396.0" y="1208.0"/>
      <point x="370.5" y="1186.5"/>
      <point x="326.0" y="1186.5" type="curve" smooth="yes"/>
      <point x="281.0" y="1186.5"/>
      <point x="255.5" y="1208.0"/>
    </contour>
  </outline>
</glyph>
<glyph name="cedillacomb" format="2">
  <unicode hex="0327"/>
  <anchor x="299.5" y="0.0" name="_bottom"/>
  <anchor x="335.0" y="-375.5" name="bottom"/>
  <outline>
    <contour>
      <point x="400.5" y="37.0" type="line"/>
      <point x="207.5" y="37.0" type="line"/>
      <point x="190.0" y="-145.5" type="line"/>
      <point x="190.5" y="-145.5"/>
      <point x="192.5" y="-145.5"/>
      <point x="193.0" y="-145.5" type="curve" smooth="yes"/>
      <point x="297.0" y="-150.5"/>
      <point x="322.5" y="-160.0"/>
      <point x="322.5" y="-183.5" type="curve" smooth="yes"/>
      <point x="322.5" y="-186.5" type="line" smooth="yes"/>
      <point x="322.5" y="-208.5"/>
      <point x="298.0" y="-215.0"/>
      <point x="242.0" y="-215.0" type="curve" smooth="yes"/>
      <point x="208.5" y="-215.0"/>
      <point x="169.0" y="-211.0"/>
      <point x="136.0" y="-204.0" type="curve"/>
      <point x="160.0" y="-360.0" type="line"/>
      <point x="199.5" y="-369.5"/>
      <point x="247.0" y="-375.5"/>
      <point x="303.5" y="-375.5" type="curve" smooth="yes"/>
      <point x="452.0" y="-375.5"/>
      <point x="534.0" y="-323.5"/>
      <point x="534.0" y="-211.0" type="curve" smooth="yes"/>
      <point x="534.0" y="-204.5" type="line" smooth="yes"/>
      <point x="534.0" y="-108.5"/>
      <point x="468.0" y="-59.5"/>
      <point x="338.5" y="-59.5" type="curve" smooth="yes"/>
      <point x="310.0" y="-59.5"/>
      <point x="283.0" y="-61.0"/>
      <point x="253.0" y="-64.0" type="curve"/>
      <point x="380.5" y="-128.5" type="line"/>
    </contour>
  </outline>
</glyph>
<glyph name="Anusvara.tm" format="2">
  <unicode hex="0B82"/>
  <note>
Anusvara.tm
</note>
  <outline>
    <contour>
      <point x="330.0" y="1987.0" type="curve" smooth="yes"/>
      <point x="100.0" y="1987.0"/>
      <point x="0.0" y="1868.0"/>
      <point x="0.0" y="1676.0" type="curve" smooth="yes"/>
      <point x="0.0" y="1591.5" type="line"/>
      <point x="0.0" y="1399.5"/>
      <point x="100.0" y="1280.5"/>
      <point x="330.0" y="1280.5" type="curve" smooth="yes"/>
      <point x="563.5" y="1280.5"/>
      <point x="658.5" y="1398.0"/>
      <point x="658.5" y="1591.5" type="curve" smooth="yes"/>
      <point x="658.5" y="1676.0" type="line"/>
      <point x="658.5" y="1868.5"/>
      <point x="563.5" y="1987.0"/>
    </contour>
    <contour>
      <point x="330.0" y="1770.5" type="curve" smooth="yes"/>
      <point x="381.5" y="1770.5"/>
      <point x="397.5" y="1739.5"/>
      <point x="397.5" y="1681.5" type="curve" smooth="yes"/>
      <point x="397.5" y="1586.0" type="line"/>
      <point x="397.5" y="1527.5"/>
      <point x="382.5" y="1497.5"/>
      <point x="330.0" y="1497.5" type="curve" smooth="yes"/>
      <point x="277.5" y="1497.5"/>
      <point x="261.0" y="1527.5"/>
      <point x="261.0" y="1586.0" type="curve" smooth="yes"/>
      <point x="261.0" y="1681.5" type="line"/>
      <point x="261.0" y="1739.5"/>
      <point x="278.5" y="1770.5"/>
    </contour>
  </outline>
</glyph>
<glyph name="Aaytam.tm" format="2">
  <advance width="1578.5"/>
  <unicode hex="0B83"/>
  <note>
Aaytam.tm
</note>
  <outline>
    <contour>
      <point x="410.0" y="725.5" type="curve" smooth="yes"/>
      <point x="174.5" y="725.5"/>
      <point x="62.0" y="595.0"/>
      <point x="62.0" y="384.0" type="curve" smooth="yes"/>
      <point x="62.0" y="314.5" type="line"/>
      <point x="62.0" y="103.5"/>
      <point x="174.5" y="-28.0"/>
      <point x="410.0" y="-28.0" type="curve" smooth="yes"/>
      <point x="649.0" y="-28.0"/>
      <point x="757.0" y="100.5"/>
      <point x="757.0" y="307.5" type="curve" smooth="yes"/>
      <point x="757.0" y="391.0" type="line"/>
      <point x="757.0" y="597.0"/>
      <point x="649.0" y="725.5"/>
    </contour>
    <contour>
      <point x="410.0" y="495.5" type="curve" smooth="yes"/>
      <point x="464.0" y="495.5"/>
      <point x="482.0" y="462.0"/>
      <point x="482.0" y="402.0" type="curve" smooth="yes"/>
      <point x="482.0" y="296.5" type="line"/>
      <point x="482.0" y="235.5"/>
      <point x="464.0" y="203.0"/>
      <point x="410.0" y="203.0" type="curve" smooth="yes"/>
      <point x="355.5" y="203.0"/>
      <point x="336.0" y="235.5"/>
      <point x="336.0" y="296.5" type="curve" smooth="yes"/>
      <point x="336.0" y="402.0" type="line"/>
      <point x="336.0" y="462.0"/>
      <point x="355.5" y="495.5"/>
    </contour>
    <contour>
      <point x="1170.5" y="725.5" type="curve" smooth="yes"/>
      <point x="935.0" y="725.5"/>
      <point x="822.5" y="595.0"/>
      <point x="822.5" y="384.0" type="curve" smooth="yes"/>
      <point x="822.5" y="314.5" type="line"/>
      <point x="822.5" y="103.5"/>
      <point x="935.0" y="-28.0"/>
      <point x="1170.5" y="-28.0" type="curve" smooth="yes"/>
      <point x="1409.5" y="-28.0"/>
      <point x="1516.5" y="100.5"/>
      <point x="1516.5" y="307.5" type="curve" smooth="yes"/>
      <point x="1516.5" y="391.0" type="line"/>
      <point x="1516.5" y="597.0"/>
      <point x="1409.5" y="725.5"/>
    </contour>
    <contour>
      <point x="1170.5" y="495.5" type="curve" smooth="yes"/>
      <point x="1224.5" y="495.5"/>
      <point x="1242.5" y="462.0"/>
      <point x="1242.5" y="402.0" type="curve" smooth="yes"/>
      <point x="1242.5" y="296.5" type="line"/>
      <point x="1242.5" y="235.5"/>
      <point x="1224.5" y="203.0"/>
      <point x="1170.5" y="203.0" type="curve" smooth="yes"/>
      <point x="1116.0" y="203.0"/>
      <point x="1097.0" y="235.5"/>
      <point x="1097.0" y="296.5" type="curve" smooth="yes"/>
      <point x="1097.0" y="402.0" type="line"/>
      <point x="1097.0" y="462.0"/>
      <point x="1116.0" y="495.5"/>
    </contour>
    <contour>
      <point x="792.5" y="1474.5" type="curve" smooth="yes"/>
      <point x="557.0" y="1474.5"/>
      <point x="444.5" y="1343.0"/>
      <point x="444.5" y="1132.5" type="curve" smooth="yes"/>
      <point x="444.5" y="1048.5" type="line"/>
      <point x="444.5" y="837.5"/>
      <point x="557.0" y="706.5"/>
      <point x="792.5" y="706.5" type="curve" smooth="yes"/>
      <point x="1031.5" y="706.5"/>
      <point x="1138.5" y="834.5"/>
      <point x="1138.5" y="1041.0" type="curve" smooth="yes"/>
      <point x="1138.5" y="1140.0" type="line"/>
      <point x="1138.5" y="1346.0"/>
      <point x="1031.5" y="1474.5"/>
    </contour>
    <contour>
      <point x="792.5" y="1244.5" type="curve" smooth="yes"/>
      <point x="846.0" y="1244.5"/>
      <point x="864.5" y="1211.0"/>
      <point x="864.5" y="1150.5" type="curve" smooth="yes"/>
      <point x="864.5" y="1030.5" type="line"/>
      <point x="864.5" y="969.5"/>
      <point x="846.0" y="936.5"/>
      <point x="792.5" y="936.5" type="curve" smooth="yes"/>
      <point x="738.0" y="936.5"/>
      <point x="719.0" y="969.5"/>
      <point x="719.0" y="1030.5" type="curve" smooth="yes"/>
      <point x="719.0" y="1150.5" type="line"/>
      <point x="719.0" y="1211.0"/>
      <point x="738.0" y="1244.5"/>
    </contour>
  </outline>
</glyph>
<glyph name="VowelA.tm" format="2">
  <advance width="2146.0"/>
  <unicode hex="0B85"/>
  <note>
vowelA.tm
</note>
  <outline>
    <contour>
      <point x="1016.5" y="1233.0" type="curve" smooth="yes"/>
      <point x="651.5" y="1233.0"/>
      <point x="457.5" y="1028.0"/>
      <point x="457.5" y="678.5" type="curve" smooth="yes"/>
      <point x="457.5" y="543.5" type="line" smooth="yes"/>
      <point x="457.5" y="329.5"/>
      <point x="574.0" y="191.5"/>
      <point x="819.0" y="191.5" type="curve" smooth="yes"/>
      <point x="1062.0" y="191.5"/>
      <point x="1163.5" y="322.0"/>
      <point x="1163.5" y="522.5" type="curve" smooth="yes"/>
      <point x="1163.5" y="632.5" type="line" smooth="yes"/>
      <point x="1163.5" y="820.0"/>
      <point x="1096.5" y="922.0"/>
      <point x="939.0" y="922.0" type="curve" smooth="yes"/>
      <point x="814.5" y="922.0"/>
      <point x="749.0" y="843.0"/>
      <point x="734.0" y="744.5" type="curve"/>
      <point x="717.0" y="744.5" type="line"/>
      <point x="729.0" y="632.0" type="line"/>
      <point x="739.0" y="672.5"/>
      <point x="772.0" y="699.5"/>
      <point x="813.5" y="699.5" type="curve" smooth="yes"/>
      <point x="863.0" y="699.5"/>
      <point x="883.0" y="669.0"/>
      <point x="883.0" y="607.0" type="curve" smooth="yes"/>
      <point x="883.0" y="517.0" type="line" smooth="yes"/>
      <point x="883.0" y="454.5"/>
      <point x="864.0" y="420.0"/>
      <point x="814.0" y="420.0" type="curve" smooth="yes"/>
      <point x="757.5" y="420.0"/>
      <point x="737.0" y="459.5"/>
      <point x="737.0" y="527.0" type="curve"/>
      <point x="737.0" y="744.5" type="line"/>
      <point x="725.0" y="744.5" type="line"/>
      <point x="734.0" y="887.0"/>
      <point x="815.5" y="991.0"/>
      <point x="1011.5" y="991.0" type="curve" smooth="yes"/>
      <point x="1221.0" y="991.0"/>
      <point x="1292.0" y="886.0"/>
      <point x="1292.0" y="695.0" type="curve" smooth="yes"/>
      <point x="1292.0" y="540.5" type="line" smooth="yes"/>
      <point x="1292.0" y="234.0"/>
      <point x="1146.0" y="112.5"/>
      <point x="827.5" y="112.5" type="curve" smooth="yes"/>
      <point x="824.0" y="112.5" type="line" smooth="yes"/>
      <point x="536.5" y="112.5"/>
      <point x="346.0" y="253.5"/>
      <point x="346.0" y="479.5" type="curve" smooth="yes"/>
      <point x="346.0" y="487.0" type="line" smooth="yes"/>
      <point x="346.0" y="489.0"/>
      <point x="346.0" y="491.0"/>
      <point x="346.0" y="494.0" type="curve"/>
      <point x="554.5" y="494.0" type="line"/>
      <point x="550.5" y="732.5" type="line"/>
      <point x="44.5" y="732.5" type="line"/>
      <point x="43.5" y="686.5"/>
      <point x="42.5" y="658.5"/>
      <point x="42.5" y="620.0" type="curve" smooth="yes"/>
      <point x="42.5" y="573.0" type="line" smooth="yes"/>
      <point x="42.5" y="97.0"/>
      <point x="351.0" y="-143.0"/>
      <point x="832.0" y="-143.0" type="curve" smooth="yes"/>
      <point x="838.0" y="-143.0" type="line" smooth="yes"/>
      <point x="1358.5" y="-143.0"/>
      <point x="1592.0" y="82.0"/>
      <point x="1592.0" y="549.0" type="curve" smooth="yes"/>
      <point x="1592.0" y="681.0" type="line" smooth="yes"/>
      <point x="1592.0" y="1030.5"/>
      <point x="1426.0" y="1233.0"/>
    </contour>
    <contour>
      <point x="941.0" y="724.5" type="line"/>
      <point x="941.0" y="488.5" type="line"/>
      <point x="1340.0" y="488.5" type="line"/>
      <point x="1340.0" y="724.5" type="line"/>
    </contour>
    <contour>
      <point x="1375.5" y="732.5" type="line"/>
      <point x="1375.5" y="480.5" type="line"/>
      <point x="1728.5" y="480.5" type="line"/>
      <point x="1728.5" y="732.5" type="line"/>
    </contour>
    <contour>
      <point x="1720.5" y="1175.5" type="line"/>
      <point x="1720.5" y="-90.0" type="line"/>
      <point x="2035.0" y="-90.0" type="line"/>
      <point x="2035.0" y="1175.5" type="line"/>
    </contour>
  </outline>
</glyph>
<glyph name="VowelAa.tm" format="2">
  <advance width="2581.0"/>
  <unicode hex="0B86"/>
  <note>
vowelAa.tm
</note>
  <outline>
    <contour>
      <point x="2272.5" y="611.0" type="curve" smooth="yes"/>
      <point x="2133.0" y="611.0"/>
      <point x="2058.0" y="524.5"/>
      <point x="2042.0" y="409.0" type="curve"/>
      <point x="1997.0" y="409.0" type="line"/>
      <point x="1997.0" y="240.5" type="line"/>
      <point x="2017.5" y="240.5" type="line"/>
      <point x="2028.5" y="304.0"/>
      <point x="2070.5" y="346.0"/>
      <point x="2125.5" y="346.0" type="curve" smooth="yes"/>
      <point x="2196.5" y="346.0"/>
      <point x="2221.0" y="299.5"/>
      <point x="2221.0" y="190.0" type="curve" smooth="yes"/>
      <point x="2221.0" y="99.5" type="line" smooth="yes"/>
      <point x="2221.0" y="-123.0"/>
      <point x="2157.0" y="-211.0"/>
      <point x="1948.5" y="-211.0" type="curve" smooth="yes"/>
      <point x="1820.5" y="-211.0"/>
      <point x="1702.5" y="-190.5"/>
      <point x="1591.5" y="-151.5" type="curve"/>
      <point x="1630.5" y="-418.5" type="line"/>
      <point x="1743.0" y="-456.0"/>
      <point x="1858.0" y="-476.0"/>
      <point x="1988.0" y="-476.0" type="curve" smooth="yes"/>
      <point x="2390.5" y="-476.0"/>
      <point x="2536.0" y="-295.0"/>
      <point x="2536.0" y="93.5" type="curve" smooth="yes"/>
      <point x="2536.0" y="227.0" type="line" smooth="yes"/>
      <point x="2536.0" y="482.0"/>
      <point x="2464.0" y="611.0"/>
    </contour>
    <component base="VowelA.tm"/>
  </outline>
</glyph>
